<svg width="39" height="28" fill="none" xmlns="http://www.w3.org/2000/svg"><path d="M26.82 9.988h-6.234L16.204.754a1.306 1.306 0 00-.748-.688 1.172 1.172 0 00-.975.091c-.105.06-.2.134-.282.218a1.28 1.28 0 00-.283-.218 1.172 1.172 0 00-.974-.091 1.305 1.305 0 00-.748.688l-4.619 9.733a1.504 1.504 0 00.064 1.404h-6.06c-.256 0-.464-.227-.464-.507 0-.279.208-.506.463-.506H6.22c.225 0 .408-.199.408-.445 0-.245-.183-.445-.408-.445H1.578c-.704 0-1.277.627-1.277 1.396 0 .639.394 1.178.93 1.344L3.59 26.473c.15.885.86 1.527 1.683 1.527h17.852c.823 0 1.531-.642 1.683-1.527l2.358-13.745c.537-.166.931-.705.931-1.344 0-.77-.573-1.396-1.277-1.396zM14.856.948a.425.425 0 01.353-.034c.118.041.215.13.272.25l4.619 9.733c.057.12.067.258.03.386a.494.494 0 01-.228.297.425.425 0 01-.354.033.473.473 0 01-.27-.25l-4.62-9.733c-.117-.248-.028-.554.198-.682zm5.422 11.833l-.385 4.341h-5.287v-4.341h5.672zm-6.08-10.186l4.357 9.178c.019.04.04.08.062.118H9.781c.022-.038.043-.077.062-.118l.425-.895h6.197c.225 0 .408-.199.408-.445 0-.245-.183-.445-.408-.445H10.69l3.51-7.393zm-5.9 8.302l4.62-9.733a.473.473 0 01.27-.25.428.428 0 01.354.034c.226.128.315.434.198.682l-4.62 9.733a.473.473 0 01-.27.25.425.425 0 01-.354-.033.493.493 0 01-.228-.297.545.545 0 01.03-.386zm-6.23 1.884h5.233l.386 4.341H2.814l-.745-4.341zm.899 5.231h4.799l.385 4.342h-4.44l-.744-4.342zm2.306 9.098c-.432 0-.803-.337-.883-.8l-.526-3.066H8.23l.343 3.866h-3.3zm8.519 0h-4.4l-.344-3.866h4.744v3.866zm0-4.756H8.969l-.385-4.342h5.208v4.342zm0-5.232H8.505l-.385-4.341h5.672v4.341zm5.215 9.988h-4.4v-3.866h4.743l-.343 3.866zm.422-4.756h-4.823v-4.342h5.208l-.385 4.342zm4.579 3.955c-.08.464-.451.801-.883.801h-3.3l.343-3.866h4.366l-.526 3.065zm.678-3.955h-4.44l.386-4.342h4.8l-.746 4.342zm.898-5.232h-4.873l.385-4.341h5.233l-.745 4.341zm1.236-5.231h-6.061a1.513 1.513 0 00.186-1.012h5.875c.255 0 .463.226.463.505 0 .28-.208.507-.463.507z" fill="#fff"/><circle cx="29.699" cy="9" r="9" fill="#609416"/><path d="M26.384 8.694c0-1.185.12-2.138.362-2.858.246-.724.608-1.283 1.087-1.674.483-.392 1.09-.588 1.818-.588.538 0 1.01.109 1.415.328.406.214.74.526 1.005.936.265.406.472.903.622 1.49.15.584.226 1.372.226 2.366 0 1.176-.12 2.126-.362 2.85-.242.72-.604 1.279-1.087 1.675-.479.392-1.085.588-1.819.588-.966 0-1.725-.346-2.276-1.039-.66-.834-.991-2.192-.991-4.074zm1.264 0c0 1.645.192 2.741.575 3.288.387.542.863.813 1.428.813s1.04-.273 1.422-.82c.387-.547.581-1.64.581-3.281 0-1.65-.194-2.746-.58-3.288-.384-.543-.862-.814-1.436-.814-.566 0-1.017.24-1.354.718-.424.61-.636 1.739-.636 3.384z" fill="#fff"/></svg>