<svg width="45" height="44" fill="none" xmlns="http://www.w3.org/2000/svg"><path d="M29.653 17.988h-6.234l-4.382-9.234a1.306 1.306 0 00-.748-.688 1.172 1.172 0 00-.974.091c-.106.06-.2.134-.283.218a1.28 1.28 0 00-.282-.218 1.172 1.172 0 00-.974-.091 1.305 1.305 0 00-.748.688l-4.62 9.734a1.503 1.503 0 00.064 1.403h-6.06c-.256 0-.464-.227-.464-.507 0-.279.208-.506.464-.506h4.642c.225 0 .407-.199.407-.445 0-.245-.182-.445-.407-.445H4.412c-.705 0-1.278.627-1.278 1.396 0 .639.394 1.178.93 1.344l2.359 13.745c.152.885.86 1.527 1.683 1.527h17.852c.824 0 1.532-.642 1.684-1.527L30 20.728c.536-.166.93-.705.93-1.344 0-.77-.573-1.396-1.277-1.396zM17.69 8.948a.425.425 0 01.353-.034.47.47 0 01.27.25l4.62 9.733c.057.12.068.258.03.386a.494.494 0 01-.228.297.425.425 0 01-.353.033.473.473 0 01-.271-.25L17.49 9.63c-.117-.248-.028-.554.198-.682zm5.42 11.832l-.385 4.341H17.44V20.78h5.672zm-6.079-10.186l4.356 9.178c.019.04.04.08.062.118h-8.836c.022-.038.043-.077.063-.118l.424-.895h6.2c.225 0 .407-.199.407-.445 0-.245-.182-.445-.407-.445h-5.775l3.508-7.393zm-5.9 8.302l4.619-9.733a.473.473 0 01.27-.25.428.428 0 01.354.034c.227.128.316.434.198.682l-4.62 9.733a.473.473 0 01-.27.25.425.425 0 01-.354-.033.494.494 0 01-.228-.297.545.545 0 01.03-.386zm-6.23 1.884h5.233l.385 4.341H5.647l-.745-4.341zm.898 5.231h4.8l.384 4.342h-4.44L5.8 26.012zm2.306 9.098c-.432 0-.803-.337-.883-.8l-.526-3.066h4.366l.343 3.866h-3.3zm8.52 0h-4.402l-.343-3.866h4.744v3.866zm0-4.756h-4.824l-.385-4.342h5.208v4.342zm0-5.232h-5.288l-.385-4.341h5.672v4.341zm5.214 9.988h-4.4v-3.866h4.743l-.343 3.866zm.422-4.756h-4.823v-4.342h5.208l-.385 4.342zm4.58 3.955c-.08.464-.452.801-.884.801h-3.3L23 31.243h4.366l-.526 3.065zm.678-3.955h-4.44l.385-4.342h4.8l-.745 4.342zm.897-5.232h-4.873l.386-4.341h5.232l-.745 4.341zm1.236-5.231h-6.06a1.513 1.513 0 00.186-1.012h5.874c.255 0 .463.226.463.505 0 .28-.208.507-.463.507z" fill="#000"/><circle cx="32.532" cy="17" r="9" fill="#609416"/><path d="M29.217 16.694c0-1.185.12-2.138.362-2.858.246-.724.609-1.283 1.087-1.674.483-.392 1.09-.588 1.819-.588.537 0 1.009.109 1.415.328.405.214.74.526 1.005.936.264.406.471.903.622 1.49.15.584.225 1.372.225 2.366 0 1.176-.12 2.126-.362 2.85-.242.72-.604 1.279-1.087 1.675-.479.392-1.085.588-1.818.588-.967 0-1.725-.346-2.277-1.039-.66-.834-.991-2.192-.991-4.074zm1.265 0c0 1.645.191 2.741.574 3.288.387.542.863.813 1.429.813.565 0 1.039-.273 1.422-.82.387-.547.58-1.64.58-3.281 0-1.65-.193-2.746-.58-3.288-.383-.543-.862-.814-1.436-.814-.565 0-1.016.24-1.354.718-.423.61-.635 1.739-.635 3.384z" fill="#fff"/></svg>