<svg width="45" height="44" fill="none" xmlns="http://www.w3.org/2000/svg"><circle cx="22.833" cy="22" r="22" fill="#D5D5D5"/><path d="M28.198 18.167a.41.41 0 01.577.06.796.796 0 00.619.317.796.796 0 00.619-.317.41.41 0 01.637.517c-.32.394-.778.62-1.256.62s-.936-.226-1.256-.62a.41.41 0 01.06-.577zm3.07-2.435a.41.41 0 01.41.41v.469a.41.41 0 11-.82 0v-.469a.41.41 0 01.41-.41zm-3.748 0a.41.41 0 01.41.41v.469a.41.41 0 11-.82 0v-.469a.41.41 0 01.41-.41zM14.608 20.51a.41.41 0 01.577.06.796.796 0 00.619.317.796.796 0 00.619-.317.41.41 0 01.637.517c-.32.394-.778.62-1.256.62s-.936-.226-1.256-.62a.41.41 0 01.06-.577zm3.07-2.435a.41.41 0 01.41.41v.469a.41.41 0 01-.82 0v-.469a.41.41 0 01.41-.41zm-3.748 0a.41.41 0 01.41.41v.469a.41.41 0 01-.82 0v-.469a.41.41 0 01.41-.41z" fill="gray"/><path d="M9.975 26.186l3.213-1.285c.017-.007.034-.016.05-.024-2.22-.505-3.27-1.35-3.317-1.388a.41.41 0 01-.146-.376c.004-.032.464-3.288.464-6.502a5.571 5.571 0 015.565-5.565 5.571 5.571 0 015.565 5.565c0 .84.038 1.869.1 2.842l.896.448 2.628-1.314.023-.01a4.59 4.59 0 01-.237-1.147 1.345 1.345 0 01-.482-2.308v-2.729c0-.754.381-1.459 1.006-1.883a1.803 1.803 0 011.748-1.339H30.8a3.695 3.695 0 013.69 3.69v2.261a1.345 1.345 0 01-.481 2.308 4.626 4.626 0 01-1.862 3.365v1.134l3.392 1.018a1.805 1.805 0 011.294 1.74v4.576a.41.41 0 01-.41.41h-.058v4.745a.41.41 0 11-.82 0v-4.744h-1.523v4.744a.41.41 0 11-.82 0v-7.072c0-.36.105-.708.304-1.007l.701-1.052a.41.41 0 01.683.455l-.701 1.052a.993.993 0 00-.167.552v1.507h1.991v-4.167a.99.99 0 00-.71-.954l-1.408-.422a4.648 4.648 0 01-4.501 3.552c-.772 0-1.522-.19-2.193-.553a1.346 1.346 0 01-1.087.553h-.059v.058a3.692 3.692 0 01-1.874 3.211v.67c0 .024.016.047.04.055l1.53.51c.742.247 1.241.94 1.241 1.723v1.33a.41.41 0 11-.82 0v-1.33a.994.994 0 00-.68-.945l-.45-.15a3.223 3.223 0 01-5.354 0l-.45.15a.994.994 0 00-.68.945v1.33a.41.41 0 11-.821 0v-1.33c0-.783.499-1.476 1.242-1.723l1.53-.51a.059.059 0 00.04-.056v-.669a3.705 3.705 0 01-1.737-2.213 4.157 4.157 0 01-6.967-1.596l-1.566.626a.991.991 0 00-.625.924v1.919h1.522v-.527a.41.41 0 01.82 0v5.154a.41.41 0 11-.82 0v-3.807h-1.054v3.807a.41.41 0 11-.82 0v-3.807h-.059a.41.41 0 01-.41-.41v-2.329c0-.747.448-1.409 1.142-1.686zm10.574-9.575a4.75 4.75 0 00-4.745-4.745 4.75 4.75 0 00-4.745 4.745c0 2.754-.331 5.538-.44 6.37.368.24 1.31.77 2.9 1.118v-.653a4.646 4.646 0 01-2.228-2.995 4.653 4.653 0 01-.115-1.028c0-2.319 1.677-2.651 3.298-2.973 1.032-.205 2.099-.417 2.948-1.097a.41.41 0 01.666.32c0 .012.018 1.09 1.564 1.477a.41.41 0 11-.199.796c-1.294-.323-1.821-1.05-2.037-1.595-.89.527-1.886.725-2.782.903-1.733.344-2.638.597-2.638 2.169a3.822 3.822 0 001.416 2.963 3.77 3.77 0 002.392.844c.803 0 1.567-.246 2.216-.712a4.634 4.634 0 011.123-1.73v-1.834a.41.41 0 01.593-.367l.886.443a42.87 42.87 0 01-.073-2.42zm-.586 3.007v1.484l1.485-.742-1.485-.742zm4.803 0l-1.484.742 1.484.742v-1.484zm2.226 4.49v.39c.294.254.469.625.469 1.017a3.79 3.79 0 001.933.527 3.823 3.823 0 003.714-2.968l-1.014-.304a2.758 2.758 0 01-2.7 2.218 2.755 2.755 0 01-2.441-1.483c.026.199.04.4.04.604zm4.335-1.874v-.95a4.599 4.599 0 01-1.933.423 4.6 4.6 0 01-1.933-.424v.951c0 1.066.867 1.933 1.933 1.933 1.064 0 1.93-.864 1.933-1.928v-.005zm-1.933-1.347c2.1 0 3.807-1.708 3.807-3.808a.41.41 0 01.41-.41.528.528 0 000-1.054h-.937a.41.41 0 01-.389-.28l-.376-1.13c-.943-.021-3.865-.153-5.51-.976a.41.41 0 11.367-.734c1.765.883 5.403.894 5.44.894a.41.41 0 01.389.28l.375 1.126h.641l.059.001v-1.934a2.873 2.873 0 00-2.87-2.87h-3.75a.988.988 0 00-.978.839.41.41 0 01-.203.293 1.464 1.464 0 00-.751 1.27v2.402l.058-.001h.469a.41.41 0 110 .82h-.469a.528.528 0 000 1.054.41.41 0 01.41.41c0 2.1 1.708 3.808 3.808 3.808zm-2.753 1.347v-1.439a4.662 4.662 0 01-1.054-1.09v1.082a4.63 4.63 0 011.056 1.561 2.882 2.882 0 01-.002-.114zm-6.135 9.487a2.4 2.4 0 003.717 0l-.262-.087a.878.878 0 01-.6-.834v-.327a3.678 3.678 0 01-1.992 0v.327a.877.877 0 01-.601.834l-.262.087zm-1.422-5.68a.41.41 0 01.41.41v.469a2.873 2.873 0 002.87 2.87 2.873 2.873 0 002.87-2.87v-.468a.41.41 0 01.41-.41h.47c.29 0 .527-.237.527-.527a.521.521 0 00-.265-.453.404.404 0 01-.097-.08c-1.014-.03-4.3-.22-6.461-1.454a.41.41 0 01.407-.713c1.892 1.082 4.866 1.298 5.947 1.341v-.047a3.81 3.81 0 00-.65-2.125.409.409 0 01-.53.148l-2.627-1.314-2.629 1.314a.411.411 0 01-.53-.148 3.81 3.81 0 00-.649 2.125v.598a.41.41 0 01-.204.355.521.521 0 00-.265.453c0 .29.237.527.528.527h.468zm-3.28 2.344a3.343 3.343 0 002.802-1.523 1.349 1.349 0 01-1.338-1.347c0-.392.175-.763.469-1.017v-.39c0-.164.009-.329.026-.491a4.632 4.632 0 01-3.424.194v.6a1.34 1.34 0 01-.846 1.251l-.885.354a3.337 3.337 0 003.196 2.369z" fill="gray"/><path d="M21.169 27.539a.41.41 0 01.577.06.796.796 0 00.619.317.796.796 0 00.618-.317.41.41 0 01.637.517c-.32.394-.777.62-1.255.62-.479 0-.936-.226-1.256-.62a.41.41 0 01.06-.577zm2.594-1.144a.41.41 0 110-.82.41.41 0 010 .82zm-2.789 0a.41.41 0 110-.82.41.41 0 010 .82z" fill="gray"/></svg>