<svg width="45" height="44" fill="none" xmlns="http://www.w3.org/2000/svg"><circle cx="22.5" cy="22" r="22" fill="#E8D749"/><path d="M27.865 18.167a.41.41 0 01.577.06.796.796 0 00.619.317.796.796 0 00.618-.317.41.41 0 01.637.517c-.32.394-.777.62-1.255.62-.479 0-.936-.226-1.256-.62a.41.41 0 01.06-.577zm3.07-2.435a.41.41 0 01.41.41v.469a.41.41 0 11-.82 0v-.469a.41.41 0 01.41-.41zm-3.749 0a.41.41 0 01.41.41v.469a.41.41 0 11-.82 0v-.469a.41.41 0 01.41-.41zM14.275 20.51a.41.41 0 01.577.06.796.796 0 00.618.317.796.796 0 00.62-.317.41.41 0 11.636.517c-.32.394-.777.62-1.255.62-.479 0-.937-.226-1.256-.62a.41.41 0 01.06-.577zm3.07-2.435a.41.41 0 01.41.41v.469a.41.41 0 01-.82 0v-.469a.41.41 0 01.41-.41zm-3.749 0a.41.41 0 01.41.41v.469a.41.41 0 11-.82 0v-.469a.41.41 0 01.41-.41z" fill="#609416"/><path d="M9.641 26.186l3.214-1.285c.017-.007.033-.016.05-.024-2.22-.505-3.271-1.35-3.318-1.388a.41.41 0 01-.146-.376c.005-.032.465-3.288.465-6.502a5.571 5.571 0 015.565-5.565 5.571 5.571 0 015.565 5.565c0 .84.038 1.869.1 2.842l.895.448 2.629-1.314.023-.01a4.6 4.6 0 01-.237-1.147 1.345 1.345 0 01-.482-2.308v-2.729c0-.754.381-1.459 1.006-1.883a1.803 1.803 0 011.748-1.339h3.748a3.695 3.695 0 013.691 3.69v2.261a1.345 1.345 0 01-.482 2.308 4.626 4.626 0 01-1.861 3.365v1.134l3.392 1.018a1.805 1.805 0 011.294 1.74v4.576a.41.41 0 01-.41.41h-.059v4.745a.41.41 0 11-.82 0v-4.744h-1.523v4.744a.41.41 0 11-.82 0v-7.072c0-.36.105-.708.305-1.007l.701-1.052a.41.41 0 01.683.455l-.702 1.052a.993.993 0 00-.167.552v1.507h1.992v-4.167a.99.99 0 00-.71-.954l-1.408-.422a4.648 4.648 0 01-4.501 3.552c-.773 0-1.522-.19-2.194-.553a1.346 1.346 0 01-1.087.553h-.058v.058a3.692 3.692 0 01-1.875 3.211v.67c0 .024.016.047.04.055l1.53.51c.743.247 1.242.94 1.242 1.723v1.33a.41.41 0 11-.82 0v-1.33a.994.994 0 00-.681-.945l-.45-.15a3.223 3.223 0 01-5.353 0l-.45.15a.994.994 0 00-.681.945v1.33a.41.41 0 11-.82 0v-1.33c0-.783.499-1.476 1.241-1.723l1.53-.51a.059.059 0 00.04-.056v-.669a3.705 3.705 0 01-1.736-2.213 4.157 4.157 0 01-6.967-1.596l-1.566.626a.991.991 0 00-.626.924v1.919h1.523v-.527a.41.41 0 11.82 0v5.154a.41.41 0 11-.82 0v-3.807H9.79v3.807a.41.41 0 01-.82 0v-3.807h-.06a.41.41 0 01-.41-.41v-2.329c0-.747.448-1.409 1.141-1.686zm10.574-9.575a4.75 4.75 0 00-4.744-4.745 4.75 4.75 0 00-4.745 4.745c0 2.754-.332 5.538-.44 6.37.368.24 1.31.77 2.9 1.118v-.653a4.646 4.646 0 01-2.228-2.995 4.653 4.653 0 01-.115-1.028c0-2.319 1.676-2.651 3.298-2.973 1.031-.205 2.098-.417 2.948-1.097a.41.41 0 01.666.32c0 .012.018 1.09 1.564 1.477a.41.41 0 11-.199.796c-1.294-.323-1.822-1.05-2.037-1.595-.89.527-1.886.725-2.782.903-1.733.344-2.638.597-2.638 2.169a3.822 3.822 0 001.416 2.963c.684.552 1.51.844 2.392.844.803 0 1.567-.246 2.215-.712a4.634 4.634 0 011.123-1.73v-1.834a.41.41 0 01.594-.367l.886.443a42.87 42.87 0 01-.074-2.42zm-.585 3.007v1.484l1.484-.742-1.484-.742zm4.803 0l-1.485.742 1.485.742v-1.484zm2.226 4.49v.39c.294.254.469.625.469 1.017a3.79 3.79 0 001.933.527 3.823 3.823 0 003.713-2.968l-1.013-.304a2.758 2.758 0 01-2.7 2.218 2.755 2.755 0 01-2.442-1.483c.026.199.04.4.04.604zm4.335-1.874v-.95a4.599 4.599 0 01-1.933.423 4.6 4.6 0 01-1.933-.424v.951a1.934 1.934 0 003.865.005v-.005zm-1.933-1.347a3.812 3.812 0 003.807-3.808.41.41 0 01.41-.41.528.528 0 000-1.054h-.937a.41.41 0 01-.39-.28l-.376-1.13c-.942-.021-3.864-.153-5.51-.976a.41.41 0 11.367-.734c1.766.883 5.404.894 5.44.894a.41.41 0 01.39.28l.374 1.126h.642l.059.001v-1.934a2.873 2.873 0 00-2.87-2.87h-3.75a.988.988 0 00-.978.839.41.41 0 01-.204.293c-.463.261-.75.747-.75 1.27v2.402l.058-.001h.469a.41.41 0 110 .82h-.469a.528.528 0 000 1.054.41.41 0 01.41.41c0 2.1 1.708 3.808 3.808 3.808zm-2.754 1.347v-1.439a4.664 4.664 0 01-1.054-1.09v1.082c.46.446.817.979 1.057 1.561a2.882 2.882 0 01-.003-.114zm-6.134 9.487a2.4 2.4 0 003.716 0l-.261-.087a.878.878 0 01-.601-.834v-.327a3.677 3.677 0 01-1.992 0v.327a.877.877 0 01-.6.834l-.262.087zm-1.422-5.68a.41.41 0 01.41.41v.469a2.873 2.873 0 002.87 2.87 2.873 2.873 0 002.87-2.87v-.468a.41.41 0 01.41-.41h.47c.29 0 .526-.237.526-.527a.521.521 0 00-.264-.453.406.406 0 01-.098-.08c-1.014-.03-4.3-.22-6.46-1.454a.41.41 0 11.407-.713c1.892 1.082 4.866 1.298 5.947 1.341v-.047a3.81 3.81 0 00-.65-2.125.409.409 0 01-.53.148l-2.628-1.314-2.628 1.314a.41.41 0 01-.53-.148 3.81 3.81 0 00-.65 2.125v.598a.41.41 0 01-.203.355.521.521 0 00-.265.453c0 .29.237.527.527.527h.469zm-3.28 2.344a3.343 3.343 0 002.802-1.523 1.349 1.349 0 01-1.338-1.347c0-.392.175-.763.469-1.017v-.39c0-.164.009-.329.026-.491a4.632 4.632 0 01-3.424.194v.6a1.34 1.34 0 01-.847 1.251l-.884.354a3.337 3.337 0 003.196 2.369z" fill="#609416"/><path d="M20.836 27.539a.41.41 0 01.577.06.796.796 0 00.618.317.796.796 0 00.619-.317.41.41 0 01.637.517c-.32.394-.777.62-1.256.62a1.62 1.62 0 01-1.255-.62.41.41 0 01.06-.577zm2.594-1.144a.41.41 0 110-.82.41.41 0 010 .82zm-2.79 0a.41.41 0 110-.82.41.41 0 010 .82z" fill="#609416"/></svg>