<svg width="45" height="44" fill="none" xmlns="http://www.w3.org/2000/svg"><circle cx="22.833" cy="22" r="22" fill="#D5D5D5"/><path d="M13.25 33.722v1.811c0 .258.19.467.426.467s.427-.209.427-.467v-1.866c0-.116 0-.33-3.324-9.173a1.507 1.507 0 01-.092-.52V12.2c0-.258.192-.467.427-.467h.854c.236 0 .427.209.427.467v6.152c-.51.197-.851.723-.854 1.314a.51.51 0 00.009.093l.854 4.667c.009.05.025.096.048.14l1.708 3.267a.424.424 0 00.37.244.421.421 0 00.376-.234.504.504 0 00-.005-.473l-1.673-3.203-.833-4.539c.019-.243.205-.43.427-.428h.835c.205.168.368.39.476.643l1.27 4.626c.023.087.07.164.132.222 2.243 2.071 5.4 5.504 5.4 6.642v4.2c0 .257.191.466.427.466s.427-.209.427-.467v-4.2c0-1.922-4.466-6.206-5.605-7.266l-1.245-4.534a.524.524 0 00-.027-.075c-.126-.28-.595-1.19-1.236-1.19h-.427V12.2c0-.774-.573-1.4-1.28-1.4h-.855c-.707 0-1.28.627-1.28 1.4v11.773c-.001.3.051.596.154.873 1.234 3.28 3.09 8.274 3.261 8.875zM34.172 10.8h-.854c-.707 0-1.28.627-1.28 1.4v6.067h-.428c-.64 0-1.108.912-1.238 1.192a.564.564 0 00-.027.074L29.1 24.067c-1.136 1.06-5.603 5.344-5.603 7.267v4.2c0 .257.192.466.427.466.236 0 .427-.209.427-.467v-4.2c0-1.137 3.16-4.57 5.4-6.643a.471.471 0 00.133-.223l1.27-4.625a1.88 1.88 0 01.456-.641h.854c.223-.001.41.185.427.428l-.83 4.54-1.675 3.198a.504.504 0 00-.005.473.42.42 0 00.376.234.423.423 0 00.37-.244l1.708-3.267a.472.472 0 00.048-.14l.854-4.666a.499.499 0 00.008-.09c-.002-.591-.344-1.117-.854-1.314v-6.152c0-.258.191-.467.427-.467h.854c.236 0 .427.209.427.467v11.773c0 .177-.03.352-.09.516-3.326 8.847-3.326 9.061-3.326 9.177v1.866c0 .258.191.467.427.467s.427-.209.427-.467v-1.81c.171-.602 2.028-5.596 3.263-8.882.102-.276.154-.57.153-.867V12.2c0-.774-.573-1.4-1.28-1.4zm-6.405 9.334c.236 0 .427-.209.427-.467v-8.4c0-.257-.191-.466-.427-.466h-.546l-.757-2.48a.453.453 0 00-.242-.286.394.394 0 00-.356.015L23.53 9.328a1.196 1.196 0 00-1.774 0L19.418 8.05a.394.394 0 00-.354-.013.452.452 0 00-.241.283l-.757 2.481h-.547c-.235 0-.427.209-.427.467v8.4c0 .257.192.466.427.466h10.248zm-.854-8.4h.427v7.467h-2.989v-7.467h2.562zm-2.989-1.4v-.178l1.886-1.03.51 1.675h-2.396v-.467zm-2.989 8.867h-2.989v-7.467h2.99v7.467zm.427-8.867v.467h-2.396l.512-1.675 1.884 1.03v.178zm.854 0c0-.258.191-.466.427-.466s.427.208.427.466v.467h-.854v-.467zm1.281 8.867H21.79v-7.467h1.708v7.467z" fill="gray"/></svg>