<svg width="44" height="44" fill="none" xmlns="http://www.w3.org/2000/svg"><circle cx="22" cy="22" r="22" fill="#E8D749"/><path d="M12.416 33.722v1.811c0 .258.191.467.427.467s.427-.209.427-.467v-1.866c0-.116 0-.33-3.324-9.173a1.505 1.505 0 01-.092-.52V12.2c0-.258.191-.467.427-.467h.854c.236 0 .427.209.427.467v6.152c-.51.197-.852.723-.854 1.314a.52.52 0 00.008.093l.854 4.667c.01.05.025.096.048.14l1.708 3.267a.424.424 0 00.37.244.421.421 0 00.377-.234.504.504 0 00-.005-.473l-1.674-3.203-.832-4.539c.018-.243.204-.43.427-.428h.835c.204.168.368.39.475.643l1.27 4.626a.47.47 0 00.133.222c2.242 2.071 5.4 5.504 5.4 6.642v4.2c0 .257.191.466.427.466s.427-.209.427-.467v-4.2c0-1.922-4.466-6.206-5.605-7.266l-1.245-4.534a.5.5 0 00-.027-.075c-.126-.28-.596-1.19-1.236-1.19h-.427V12.2c0-.774-.573-1.4-1.281-1.4h-.854C9.574 10.8 9 11.428 9 12.2v11.773c0 .3.052.596.154.873 1.234 3.28 3.091 8.274 3.262 8.875zM33.339 10.8h-.854c-.707 0-1.281.627-1.281 1.4v6.067h-.427c-.64 0-1.108.912-1.238 1.192a.564.564 0 00-.027.074l-1.245 4.534c-1.137 1.06-5.603 5.344-5.603 7.267v4.2c0 .257.191.466.427.466s.427-.209.427-.467v-4.2c0-1.137 3.16-4.57 5.4-6.643a.472.472 0 00.133-.223l1.27-4.625c.108-.247.263-.466.456-.641h.854c.223-.001.409.185.427.428l-.83 4.54-1.676 3.198a.504.504 0 00-.005.473.422.422 0 00.376.234.423.423 0 00.37-.244l1.709-3.267a.475.475 0 00.047-.14l.855-4.666a.499.499 0 00.008-.09c-.002-.591-.344-1.117-.854-1.314v-6.152c0-.258.191-.467.427-.467h.854c.236 0 .427.209.427.467v11.773c0 .177-.03.352-.09.516-3.326 8.847-3.326 9.061-3.326 9.177v1.866c0 .258.191.467.427.467s.427-.209.427-.467v-1.81c.171-.602 2.028-5.596 3.263-8.882.102-.276.154-.57.153-.867V12.2c0-.774-.573-1.4-1.281-1.4zm-6.405 9.334c.235 0 .427-.209.427-.467v-8.4c0-.257-.192-.466-.427-.466h-.547l-.756-2.48a.453.453 0 00-.243-.286.394.394 0 00-.355.015l-2.336 1.278a1.196 1.196 0 00-1.774 0L18.585 8.05a.394.394 0 00-.355-.013.452.452 0 00-.24.283l-.757 2.481h-.547c-.236 0-.427.209-.427.467v8.4c0 .257.191.466.427.466h10.248zm-.854-8.4h.427v7.467h-2.99v-7.467h2.563zm-2.99-1.4v-.178l1.886-1.03.511 1.675h-2.396v-.467zm-2.988 8.867h-2.99v-7.467h2.99v7.467zm.427-8.867v.467h-2.396l.512-1.675 1.884 1.03v.178zm.854 0c0-.258.19-.466.427-.466.236 0 .427.208.427.466v.467h-.854v-.467zm1.28 8.867h-1.707v-7.467h1.708v7.467z" fill="#609416"/></svg>