<svg width="65" height="66" fill="none" xmlns="http://www.w3.org/2000/svg"><circle cx="32.5" cy="32.502" r="32.5" fill="#609416"/><path d="M49.57 19.926l-.905-.884a1.608 1.608 0 000-2.312 1.745 1.745 0 00-2.37 0l-.904-.883a3.009 3.009 0 014.152.028 2.834 2.834 0 01.028 4.05zM15.844 40.002h1.281v3.75h-1.281v-3.75z" fill="#fff"/><path d="M41.469 45.002v-1.33c1.13-.286 1.92-1.281 1.922-2.42v-1.33c1.13-.286 1.92-1.281 1.922-2.42v-1.33c1.25-.313 2.066-1.486 1.904-2.735-.163-1.25-1.254-2.187-2.545-2.185h-8.008v-4.688c-.003-2.933-2.44-5.31-5.445-5.313h-.64v6.25c-.002.27-.092.534-.257.75l-2.402 3.126a1.3 1.3 0 01-1.026.5h-2.722v-1.875H12v1.25h10.89v10h-5.765v1.25h5.766v3.75H12v1.25h12.172v-1.876h3.532l3.844 1.876h7.358c1.415 0 2.563-1.12 2.563-2.5zm-13.462-.626h-3.835v-11.25h2.723a2.6 2.6 0 002.05-1l2.403-3.125c.33-.433.51-.959.511-1.5V22.55c2.027.31 3.521 2.013 3.524 4.014v5.938h9.289c.707 0 1.281.56 1.281 1.25s-.574 1.25-1.281 1.25h-4.805v1.25h4.164v1.25c0 .69-.573 1.25-1.281 1.25h-4.805v1.25h4.164v1.25c0 .69-.573 1.25-1.28 1.25h-2.884v1.25h2.242v1.25c0 .69-.573 1.25-1.28 1.25H31.85l-3.843-1.876zM12 18.752h8.969v1.25H12v-1.25zm0-3.125h11.531v1.25H12v-1.25zm0-3.125h14.094v1.25H12v-1.25zm32.031 32.5H53v1.25h-8.969v-1.25zm-2.562 3.125H53v1.25H41.469v-1.25zm-2.563 3.125H53v1.25H38.906v-1.25zm5.125-22.386l7.353-7.173a5.29 5.29 0 00.207-7.397c-1.954-2.13-5.272-2.399-7.56-.614-2.287-1.785-5.605-1.516-7.56.614a5.29 5.29 0 00.208 7.397l7.352 7.173zm-6.446-13.903c1.655-1.615 4.338-1.615 5.993 0l.453.442.453-.442a4.31 4.31 0 014.097-1.078c1.465.382 2.61 1.498 3 2.928a4.066 4.066 0 01-1.104 3.997l-6.446 6.288-6.446-6.288a4.068 4.068 0 010-5.847z" fill="#fff"/></svg>