<svg width="65" height="66" fill="none" xmlns="http://www.w3.org/2000/svg"><circle cx="32.5" cy="32.502" r="32" fill="#609416" stroke="#8BB155"/><path d="M36.267 30.987a.694.694 0 000 1.389.254.254 0 01.215.134.694.694 0 001.373.21 1.43 1.43 0 00-.347-1.16 1.64 1.64 0 00-1.241-.573z" fill="#fff"/><path d="M35.276 25.435a2.777 2.777 0 00-2.517 1.621 5.687 5.687 0 00-2.726-2.937.693.693 0 00-.834 1.077c.06.069.132.125.214.166a4.296 4.296 0 012.365 3.484 4.418 4.418 0 00-2.251-.635 5.344 5.344 0 00-4.055 1.863 5.102 5.102 0 00-1.19 4.096c.098.645.297 1.27.59 1.854l2.977 5.957a2.63 2.63 0 004.485.447l.166-.218.114.152a2.638 2.638 0 003.546.727 2.62 2.62 0 00.967-1.065L39.7 36.88a.696.696 0 00-.84-.973.692.692 0 00-.402.353l-2.572 5.144a1.25 1.25 0 01-1.425.65 1.359 1.359 0 01-.736-.526l-.67-.892a.718.718 0 00-1.11 0l-.72.959a1.25 1.25 0 01-1.496.398 1.289 1.289 0 01-.637-.632l-2.978-5.959a4.856 4.856 0 01-.46-1.442 3.668 3.668 0 01.873-2.981 3.957 3.957 0 013-1.38 3.046 3.046 0 011.836.625 1.897 1.897 0 002.287-.01 3.03 3.03 0 011.823-.615 3.956 3.956 0 013 1.38 3.666 3.666 0 01.872 2.981.694.694 0 001.373.208 5.103 5.103 0 00-1.191-4.095 5.344 5.344 0 00-2.404-1.597 3.447 3.447 0 00.93-2.347.695.695 0 00-.694-.694h-2.083zm0 1.388h1.27a2.087 2.087 0 01-1.964 1.388h-.694a1.388 1.388 0 011.388-1.388zm-5.726-8.099l-.458 2.652a.695.695 0 001.005.734l2.402-1.257 2.403 1.256a.694.694 0 001.005-.734l-.457-2.651 1.943-1.88a.695.695 0 00-.384-1.185l-2.685-.389-1.2-2.414a.723.723 0 00-1.244 0l-1.202 2.415-2.685.389a.694.694 0 00-.384 1.185l1.94 1.88zm1.687-2.13a.696.696 0 00.523-.378l.74-1.491.74 1.49a.695.695 0 00.522.378l1.647.238-1.189 1.151a.694.694 0 00-.201.617l.285 1.63-1.48-.774a.695.695 0 00-.642 0l-1.484.774.282-1.63a.695.695 0 00-.201-.617L29.59 16.83l1.647-.237zm9.092 5.878l-.372 2.152a.693.693 0 001.005.734l1.95-1.02 1.949 1.018a.694.694 0 001.005-.733l-.371-2.152 1.572-1.523a.694.694 0 00-.383-1.186l-2.176-.313-.972-1.958a.722.722 0 00-1.244 0l-.971 1.958-2.178.314a.694.694 0 00-.383 1.186l1.569 1.523zm1.547-1.7a.694.694 0 00.523-.38l.513-1.032.513 1.033a.695.695 0 00.522.379l1.139.164-.82.794a.694.694 0 00-.202.617l.194 1.13-1.025-.538a.698.698 0 00-.643 0l-1.025.537.194-1.129a.693.693 0 00-.201-.617l-.82-.794 1.138-.164zm-22.371 1.7l-.372 2.152a.694.694 0 001.006.734l1.949-1.02 1.949 1.018a.694.694 0 001.005-.733l-.372-2.152 1.573-1.523a.694.694 0 00-.383-1.186l-2.176-.313-.972-1.958a.722.722 0 00-1.244 0l-.971 1.958-2.178.314a.694.694 0 00-.383 1.186l1.569 1.523zm1.547-1.7a.694.694 0 00.523-.38l.513-1.032.513 1.033a.694.694 0 00.522.379l1.139.164-.82.794a.694.694 0 00-.202.617l.194 1.13-1.025-.538a.698.698 0 00-.643 0l-1.025.537.194-1.129a.693.693 0 00-.201-.617l-.82-.794 1.138-.164zm25.041 7.264a.694.694 0 00.177.712l1.205 1.167-.284 1.648a.694.694 0 001.005.734l1.495-.78 1.495.78a.693.693 0 001.005-.734l-.284-1.648 1.208-1.167a.694.694 0 00-.383-1.186l-1.67-.24-.746-1.503a.722.722 0 00-1.243 0l-.747 1.502-1.666.24a.694.694 0 00-.567.475zm2.79.608a.694.694 0 00.521-.38l.287-.575.287.576a.694.694 0 00.523.379l.63.09-.453.44a.694.694 0 00-.202.616l.108.625-.572-.3a.694.694 0 00-.642 0l-.572.3.108-.625a.694.694 0 00-.201-.617l-.453-.438.63-.091zm-35.791 1.272l-.284 1.648a.694.694 0 001.005.733l1.495-.78 1.495.78a.696.696 0 001.005-.733l-.284-1.648 1.205-1.168a.694.694 0 00-.384-1.186l-1.672-.24-.743-1.502a.694.694 0 00-1.243 0l-.746 1.502-1.67.24a.694.694 0 00-.384 1.186l1.205 1.168zm1.407-1.272a.695.695 0 00.522-.378l.287-.577.287.576a.693.693 0 00.522.38l.63.09-.453.439a.695.695 0 00-.201.616l.108.625-.569-.297a.699.699 0 00-.642 0l-.573.299.109-.625a.694.694 0 00-.202-.616l-.453-.439.628-.093zm24.882 18.721a.694.694 0 00-.916-.353 14.709 14.709 0 01-11.93 0 .693.693 0 00-.564 1.27 16.103 16.103 0 0013.058 0 .693.693 0 00.352-.917z" fill="#fff"/><path d="M50.866 41.669l2.074-1.033a.693.693 0 00-.07-1.272l-3.6-1.354a6.253 6.253 0 00-4.386 0 6.185 6.185 0 00-3.939 4.816 20.436 20.436 0 01-16.891 0 6.184 6.184 0 00-3.938-4.816 6.253 6.253 0 00-4.386 0l-3.604 1.35a.694.694 0 00-.07 1.272l2.077 1.037-2.34 3.51a.693.693 0 00.82 1.035l3.604-1.35a4.858 4.858 0 012.313-.267.694.694 0 00.174-1.378 6.256 6.256 0 00-2.974.344l-1.589.596 1.583-2.374a.693.693 0 00-.268-1.007l-1.351-.676 2.112-.792a4.852 4.852 0 015.06 1.038 4.793 4.793 0 011.1 1.609c-.207-.118-.416-.229-.616-.355a.694.694 0 00-1.062.589v2.474a6.213 6.213 0 002.936 5.299 16.765 16.765 0 0013.292 1.943.694.694 0 00-.367-1.338 15.385 15.385 0 01-12.189-1.78 4.831 4.831 0 01-2.283-4.124v-1.264a21.819 21.819 0 0020.824 0v1.264a4.83 4.83 0 01-2.284 4.121c-.51.315-1.036.6-1.579.852a.694.694 0 00.594 1.256 16.816 16.816 0 001.721-.931 6.212 6.212 0 002.936-5.298v-2.474a.694.694 0 00-1.062-.589c-.202.126-.411.237-.617.355a4.797 4.797 0 012.75-2.647 4.852 4.852 0 013.411 0l2.112.792-1.352.676a.694.694 0 00-.267 1.007l1.582 2.374-1.588-.596a6.264 6.264 0 00-2.974-.344.694.694 0 00.173 1.377 4.906 4.906 0 012.314.267l3.603 1.352a.707.707 0 00.601-.055.695.695 0 00.22-.981l-2.34-3.51z" fill="#fff"/></svg>