<svg width="65" height="66" fill="none" xmlns="http://www.w3.org/2000/svg"><circle cx="32.5" cy="32.502" r="32.5" fill="#609416"/><path d="M51.833 23.168h-4.237a5.995 5.995 0 00-3.763-10.666h-5.845A6 6 0 0032.5 16.08a6 6 0 00-5.488-3.58h-5.846a5.995 5.995 0 00-3.762 10.667h-4.238a.667.667 0 00-.666.667V30.5c0 .369.298.667.666.667H14.5v20.667c0 .368.298.666.666.666h34.667a.667.667 0 00.667-.666V31.168h1.333a.667.667 0 00.667-.666v-6.667a.667.667 0 00-.667-.667zm-9.182-9.278c.054-.008.107-.019.161-.025.17-.02.34-.03.51-.03h.511A4.672 4.672 0 0148.5 18.5a4.672 4.672 0 01-4.667 4.667h-1.566a5.993 5.993 0 00.124-9.23c.086-.019.173-.035.26-.048zm-1.73.64a4.655 4.655 0 01-2.421 8.638h-2.314l2.86-6.537a4.654 4.654 0 011.875-2.1zm-4.72 9.972h4.553l3.15 6.297 2.184 4.37h-2.255a.667.667 0 00-.533.266l-1.326 1.767-3.17-6.974-2.602-5.727zm.96 5.333h-1.328v-2.923l1.329 2.923zM24.079 14.53a4.655 4.655 0 011.876 2.1l2.86 6.538H26.5a4.655 4.655 0 01-2.422-8.638zm4.72 9.972l-2.6 5.724-3.173 6.976-1.325-1.767a.667.667 0 00-.534-.267h-2.254L21.1 30.8l3.145-6.297h4.553zm-12.298-6a4.672 4.672 0 014.666-4.667h.512c.17 0 .34.01.51.03.053.006.106.017.16.025.088.013.174.03.26.047a5.993 5.993 0 00.124 9.231h-1.566a4.672 4.672 0 01-4.666-4.666zm-2.667 11.333V24.5h8.921l-2.666 5.334h-6.255zm15.333 21.333H15.833v-20h3.588l-2.185 4.369a.667.667 0 00.597.965h3l1.8 2.4a.667.667 0 001.139-.124l3.461-7.61h1.933v20zm0-21.333h-1.328l1.328-2.923v2.923zm-1.99-13.738a5.97 5.97 0 00-1.74-2.262h1.576a4.667 4.667 0 014.275 2.796l.485 1.108-1.939 4.433-2.658-6.075zM34.5 51.168h-4V24.502h4v26.666zm-3.648-28l2.86-6.537a4.667 4.667 0 014.276-2.796h1.578a5.97 5.97 0 00-1.738 2.262l-3.098 7.071h-3.878zm18.314 28H35.833v-20h1.933l3.46 7.61a.667.667 0 001.14.123l1.8-2.4h3a.667.667 0 00.6-.964l-2.188-4.369h3.588v20zm2-21.333h-6.254L42.245 24.5h8.921v5.334z" fill="#fff"/></svg>