<svg width="65" height="66" fill="none" xmlns="http://www.w3.org/2000/svg"><circle cx="32.5" cy="32.502" r="32" fill="#609416" stroke="#8BB155"/><path d="M29.817 45.835a9.9 9.9 0 00-4.892-8.04l-4.605-5.117a2.49 2.49 0 00-2.487-.764v-8.746a2.667 2.667 0 10-5.333 0v12.618c0 1.02.26 2.023.755 2.916l5.912 10.639v2.494c0 .368.298.666.666.666h9.334a.667.667 0 00.666-.666v-6h-.016zM28.5 51.168h-8v-2a.667.667 0 00-.084-.324l-5.995-10.791a4.685 4.685 0 01-.588-2.267V23.168a1.333 1.333 0 112.667 0v9.569a2.533 2.533 0 00.045 3.355l5.462 6.01.986-.898-5.462-6.008a1.212 1.212 0 111.798-1.627l4.676 5.195a.9.9 0 00.2.153 8.542 8.542 0 014.295 7.401v4.85zm21.333-30.666a2.667 2.667 0 00-2.666 2.666v8.745a2.582 2.582 0 00-.662-.078c-.699.015-1.36.32-1.825.842l-4.604 5.115a9.878 9.878 0 00-4.894 8.043h-.016v6c0 .368.299.666.667.666h9.334a.667.667 0 00.666-.666V49.34l5.838-10.582a6.003 6.003 0 00.829-3.042V23.168a2.667 2.667 0 00-2.667-2.666zm1.334 15.214a4.69 4.69 0 01-.654 2.382L44.58 48.846a.667.667 0 00-.08.322v2h-8v-4.85a8.557 8.557 0 014.33-7.416.672.672 0 00.165-.134l4.675-5.2a1.213 1.213 0 111.8 1.626l-5.463 6.009.986.898 5.462-6.008c.86-.947.88-2.387.045-3.356v-9.569a1.333 1.333 0 112.666 0v12.548z" fill="#fff"/><path d="M40.5 29.168h-1.334a7.326 7.326 0 00-6 3.133v-4.466h.667a7.342 7.342 0 007.334-7.334.667.667 0 00-.667-.666h-1.334a7.326 7.326 0 00-6 3.133v-4.466h.667a5.34 5.34 0 005.334-5.334.667.667 0 00-.667-.666h-1.333a5.333 5.333 0 00-4.667 2.757 5.333 5.333 0 00-4.667-2.758H26.5a.667.667 0 00-.667.667 5.34 5.34 0 005.334 5.334h.666v4.466a7.327 7.327 0 00-6-3.133H24.5a.667.667 0 00-.667.666 7.342 7.342 0 007.334 7.334h.666V32.3a7.327 7.327 0 00-6-3.133H24.5a.667.667 0 00-.667.667 7.342 7.342 0 007.334 7.333h.666V42.5h1.334v-5.333h.666a7.342 7.342 0 007.334-7.333.667.667 0 00-.667-.667zm-1.334-8h.63a6.009 6.009 0 01-5.963 5.333h-.63a6.009 6.009 0 015.963-5.333zm-2-7.333h.612a4.007 4.007 0 01-3.945 3.333h-.611a4.007 4.007 0 013.945-3.333zm-6 3.333a4.007 4.007 0 01-3.944-3.333h.611a4.007 4.007 0 013.945 3.333h-.611zm0 9.333a6.009 6.009 0 01-5.963-5.333h.63a6.009 6.009 0 015.964 5.333h-.63zm0 9.334a6.009 6.009 0 01-5.963-5.334h.63a6.009 6.009 0 015.964 5.334h-.63zm2.667 0h-.63a6.009 6.009 0 015.963-5.334h.63a6.009 6.009 0 01-5.963 5.334z" fill="#fff"/></svg>