<svg width="28" height="29" fill="none" xmlns="http://www.w3.org/2000/svg"><path d="M18.725 14.812c0-2.598-2.1-4.676-4.725-4.676-2.625 0-4.725 2.079-4.725 4.676 0 2.598 2.1 4.676 4.725 4.676 2.625 0 4.725-2.078 4.725-4.676zm2.45 0c0 3.984-3.15 7.1-7.175 7.1s-7.175-3.116-7.175-7.1c0-3.983 3.15-7.1 7.175-7.1s7.175 3.117 7.175 7.1zM23.1 7.365c0 1.04-.7 1.732-1.75 1.732s-1.75-.693-1.75-1.732c0-1.039.7-1.731 1.75-1.731s1.75.865 1.75 1.731zM14 3.382c-2.1 0-6.475-.173-8.225.52C4.55 4.422 3.5 5.46 3.15 6.672c-.7 1.732-.525 6.062-.525 8.14 0 2.079-.175 6.408.525 8.14.35 1.212 1.4 2.251 2.625 2.598 1.75.692 6.3.52 8.225.52 1.925 0 6.475.172 8.225-.52 1.225-.52 2.1-1.386 2.625-2.598.7-1.905.525-6.235.525-8.14 0-1.905.175-6.408-.525-8.14-.35-1.212-1.4-2.25-2.625-2.597-1.75-.866-6.125-.693-8.225-.693zm14 11.43v5.715c0 2.079-.7 4.157-2.275 5.889-1.575 1.558-3.675 2.251-5.95 2.251H8.225c-2.1 0-4.2-.693-5.95-2.251A8.828 8.828 0 010 20.527V9.097c0-2.251.875-4.33 2.275-5.888C4.025 1.823 6.125.958 8.225.958h11.55c2.1 0 4.2.692 5.95 2.25A8.828 8.828 0 0128 9.099v5.714z" fill="#fff"/></svg>