<svg width="193" height="38" fill="none" xmlns="http://www.w3.org/2000/svg"><path d="M17.422 25.937l-1.194.239c-.145-.732-.214-1.339-.214-1.816 0-2.692.806-5.986 2.413-9.887.333-.796.766-1.766 1.289-2.916-1.563-.348-2.876-.527-3.941-.527-1.433 0-2.657.314-3.667.945-1.01.627-1.518 1.463-1.518 2.498v.095c0 .507.09.97.264 1.383l-2.771.288c.144-2.005 1.204-3.532 3.174-4.587 1.737-.925 3.94-1.383 6.618-1.383.607 0 1.378.05 2.318.144 1.244.13 2.015.2 2.319.214.492.03.97.05 1.433.05.905 0 1.687-.05 2.338-.145a11.44 11.44 0 001.861-.408l-2.1 2.32c-.462-.03-.945-.08-1.457-.145l-1.722-.214a64.187 64.187 0 01-1.383-.214l-1.194-.214c-.587 1.18-1.344 3.12-2.269 5.826h4.418l-1.169 1.364c-.428-.17-1.01-.359-1.741-.578-.304-.03-.637-.044-1.006-.044h-.691c-.463.985-.766 2.617-.906 4.906-.015.253-.024.492-.024.716-.005.612.169 1.314.522 2.09zM14.6 27.609l-3.155.955c.065-2.354.637-5.224 1.722-8.608.507-1.572 1.303-3.697 2.388-6.369.254-.651.508-1.273.766-1.86h2.294a47.405 47.405 0 00-.811 2.169l-.766 2.219a63.264 63.264 0 00-1.816 6.155c-.174.681-.388 1.716-.647 3.1-.05.413-.07.76-.07 1.05 0 .601.03 1 .095 1.189zm12.276-1.672l-3.439.383c.065-.144.145-.343.24-.597l.288-.836c.174-.542.438-1.353.786-2.438l.836-2.483c.478-1.418.716-2.537.716-3.368 0-.528-.428-.786-1.288-.786l.144-.528 4.632-.239c-.239.478-.442.98-.617 1.508l-.642 1.935-2.373 7.21h.289c.348-1.13.875-2.498 1.577-4.11.811-1.86 1.682-3.343 2.602-4.443 1.18-1.403 2.378-2.1 3.607-2.1.254 0 .478.03.667.095l-.955 2.916c-.622-.573-1.18-.861-1.672-.861-.637 0-1.299.413-1.98 1.244-.956 1.164-1.95 3.224-2.986 6.184-.194.558-.333.995-.432 1.314zm14.966-3.204l2.388-7.19-.288.005c-2.528 7.18-5.215 10.772-8.066 10.772-1.02 0-1.527-.493-1.527-1.483 0-.413.169-1.114.502-2.1l.93-2.77c.479-1.419.717-2.538.717-3.37 0-.527-.428-.785-1.288-.785l.144-.528 4.632-.239c-.239.478-.448.98-.622 1.503l-2.1 6.26c-.174.527-.263.945-.263 1.263 0 .19.065.363.189.513.13.149.279.228.453.228.686 0 1.393-.467 2.124-1.408.493-.622 1.01-1.502 1.553-2.652.796-1.686 1.368-3.055 1.721-4.11.095-.303.254-.756.478-1.363l3.413-.239c-.11.384-.308.966-.597 1.742l-.358.955c-.03.08-.12.329-.264.742l-1.483 4.323c-.159.463-.238.886-.238 1.264 0 .493.209.742.622.742.89 0 1.99-.772 3.293-2.32.543-.745 1.369-1.86 2.483-3.343l-.383 1.1c-.094.254-.289.572-.572.955-.239.304-.478.607-.717.906-1.144 1.542-2.373 2.721-3.677 3.532-.731.448-1.457.667-2.174.667-1.005 0-1.503-.492-1.503-1.483.01-.432.165-1.134.478-2.09z" fill="#fff"/><path d="M57.281 19.25l-.333 1.1-1.433 1.885c-1.115 1.468-2.309 2.602-3.583 3.413a4.134 4.134 0 01-2.269.667c-1.005 0-1.502-.413-1.502-1.244 0-.289.239-1.164.716-2.627l.811-2.483c.478-1.463.717-2.587.717-3.368 0-.528-.428-.786-1.289-.786l.145-.528 4.632-.239c-.174.369-.488 1.17-.93 2.413-.03.095-.145.438-.334 1.026l-1.503 4.681c-.209.637-.308 1.05-.308 1.244 0 .349.214.528.647.528.925 0 2.04-.756 3.343-2.27.607-.71 1.438-1.85 2.473-3.412zm-3.105-7.931c-.428 0-.78-.13-1.05-.394-.268-.263-.407-.607-.407-1.04 0-.432.134-.78.407-1.05.27-.268.623-.407 1.05-.407.413 0 .757.14 1.025.418.269.278.408.627.408 1.04 0 .413-.134.756-.408 1.025-.268.273-.612.408-1.025.408z" fill="#fff"/><path d="M65.138 19.155l-.383 1.1-1.483 2.055c-1.94 2.677-4.045 4.01-6.304 4.01-.557 0-.99-.19-1.304-.572-.308-.383-.468-.856-.468-1.428 0-.667.16-1.463.478-2.384l1.98-5.766h-.308c-.542 0-.965.045-1.264.13-.11.03-.249.074-.408.129l.572-1.005h1.647l1.025-2.96 2.483-.668-1.1 3.633h2.2l-.622.86a9.875 9.875 0 00-1.528-.12h-.333l-1.861 5.957c-.224.716-.333 1.209-.333 1.477 0 .732.368 1.095 1.1 1.095 1.084 0 2.283-.702 3.607-2.1.641-.686 1.507-1.836 2.607-3.443zm17.36.045l-.359 1.1c-.527.587-1.05 1.179-1.577 1.766a23.806 23.806 0 01-1.697 1.672c-.985.845-1.96 1.433-2.915 1.766a8.712 8.712 0 01-1.22.358c-.606.304-1.194.453-1.766.453-1.13 0-2.055-.309-2.771-.93-.766-.652-1.144-1.523-1.144-2.603 0-.81.238-1.552.716-2.219a3.807 3.807 0 011.86-1.408l2.295 1.1.05-.05c-.05 0-.195-.348-.443-1.04-.25-.692-.369-1.174-.369-1.443 0-.81.274-1.463.826-1.945.548-.488 1.23-.727 2.04-.727 1.383 0 2.294.612 2.722 1.841l-1.98 1.125c.144-.383.214-.727.214-1.025 0-.349-.08-.662-.24-.93-.173-.334-.427-.503-.765-.503-.254 0-.468.11-.647.323a1.125 1.125 0 00-.264.727c0 .607.348 1.582 1.05 2.935.731 1.418 1.1 2.423 1.1 3.01 0 .767-.215 1.384-.647 1.861l.05.05a.2.2 0 00.144.05c.239 0 .741-.294 1.502-.886a19.752 19.752 0 003.677-3.702c.2-.263.383-.502.558-.726zm-11.584 4.16c0 .666.184 1.233.548 1.696.398.508.915.766 1.552.766.607 0 1.105-.233 1.503-.706a2.415 2.415 0 00.597-1.612c0-.463-.135-1.035-.408-1.722a9.694 9.694 0 00-.647-1.288c-.906 0-1.647.248-2.22.74-.611.523-.925 1.235-.925 2.125z" fill="#fff"/><path d="M83.12 25.937l-3.414.383c.269-.572.727-1.86 1.363-3.871l.787-2.483c.492-1.562.74-2.682.74-3.368 0-.528-.427-.786-1.288-.786l.144-.528 4.633-.239c-.274.543-.707 1.687-1.304 3.434l-2.388 7.214.308.005c.145-.413.359-1.04.647-1.886a23.8 23.8 0 012.105-4.513c1.05-1.766 2.144-3 3.274-3.701a3.63 3.63 0 011.96-.548c1.035 0 1.553.383 1.553 1.145 0 .428-.08.89-.24 1.383l-1.815 5.588c-.145.447-.214.83-.214 1.144 0 .413.149.622.452.622.861 0 1.966-.771 3.32-2.319a27.124 27.124 0 001.502-1.886l1.05-1.482-.383 1.1c-1.578 2.497-3.29 4.283-5.135 5.348-.717.413-1.448.622-2.2.622-.333 0-.621-.105-.86-.309a.996.996 0 01-.358-.786c0-.413.08-.875.238-1.383l1.672-5.398c.224-.717.334-1.18.334-1.384 0-.413-.2-.622-.598-.622-.651 0-1.353.478-2.1 1.433-.586.767-1.273 2.006-2.054 3.727l-.503 1.075a20.939 20.939 0 00-.766 1.91l-.463 1.359z" fill="#fff"/><path d="M109.296 19.25l-.358 1.1c-1.224 1.736-2.254 3-3.08 3.796-1.513 1.447-2.931 2.174-4.249 2.174-.399 0-.732-.105-1.006-.309-.318-.238-.477-.547-.477-.93 0-.348.069-.721.204-1.12l1.607-5.02h-.264c-.746 2.04-1.537 3.607-2.363 4.707-1.339 1.781-2.767 2.677-4.294 2.677-1.145 0-1.717-.732-1.717-2.2 0-1.925.89-3.915 2.677-5.97.826-.955 1.662-1.712 2.498-2.269.836-.557 1.622-.836 2.353-.836 1.035 0 1.553.493 1.553 1.483 0 .254-.015.428-.05.527h.214l.607-1.816 2.617-.189-2.627 8.215c-.159.492-.239.796-.239.905a.78.78 0 00.189.528c.13.224.304.333.528.333.428 0 1.064-.398 1.91-1.194.781-.701 1.687-1.741 2.722-3.13.219-.338.567-.825 1.045-1.462zm-12.539 5.562h.095c.383 0 .85-.293 1.408-.885.383-.398.806-.956 1.264-1.672 1.159-1.767 1.741-3.12 1.741-4.06 0-1.433-.507-2.15-1.527-2.15-1.035 0-2 1.035-2.891 3.105-.702 1.642-1.05 3.055-1.05 4.25.005.945.324 1.412.96 1.412z" fill="#fff"/><path d="M119.113 19.25l-.383 1.1c-1.608 1.945-2.986 3.328-4.13 4.154-1.687 1.209-3.493 1.816-5.424 1.816-1.945 0-2.915-.811-2.915-2.438 0-.781.278-1.737.836-2.866a15.292 15.292 0 011.622-2.532c1.831-2.294 3.751-3.439 5.756-3.439.478 0 1.165.11 2.055.334l-1.05 2.199c-.109-1.274-.741-1.91-1.885-1.91-.891 0-1.762.567-2.602 1.696-.573.746-1.06 1.632-1.458 2.652-.428 1.115-.647 2.1-.647 2.96 0 1.304.716 1.96 2.149 1.96 1.115 0 2.294-.407 3.533-1.218 1.199-.767 2.712-2.254 4.543-4.468z" fill="#fff"/><path d="M115.814 26.32c.03-.13.079-.294.144-.503l.239-.74c.174-.494.428-1.245.766-2.245l2.985-9.195c.717-2.214 1.075-3.637 1.075-4.274 0-.398-.169-.666-.502-.81-.145-.05-.488-.095-1.025-.145l.189-.527 4.617-.24-5.866 18.052h.408c.861-3.025 2.065-5.692 3.607-8 1.179-1.767 2.398-2.653 3.657-2.653.463 0 .861.17 1.194.503.334.333.503.731.503 1.194 0 .955-.398 1.742-1.194 2.364-.543.427-1.379.825-2.508 1.194-.015.03-.065.05-.144.05-.145 0-.189.228-.145.691.08.701.289 1.448.622 2.244.448 1.02.946 1.527 1.503 1.527.955 0 2.1-.74 3.438-2.219.622-.666 1.324-1.542 2.1-2.627.174-.253.333-.477.477-.666l-.383 1.1-1.338 1.765c-1.13 1.498-2.339 2.657-3.632 3.488-.702.448-1.369.667-2.005.667-.986 0-1.752-.756-2.294-2.269a9.826 9.826 0 01-.478-1.886l-.239-1.577h-.049c-.209 0-.508.508-.906 1.528-.065.13-.333.89-.811 2.293l-.527 1.528-3.478.388zm6.02-6.26h.717c.97 0 1.846-.387 2.627-1.168.413-.428.622-.901.622-1.409v-.094a.874.874 0 00-.214-.587.688.688 0 00-.548-.249c-.557 0-1.184.463-1.885 1.383-.418.557-.856 1.264-1.319 2.125zm27.515-.86l-.358 1.1c-.523.587-1.05 1.179-1.577 1.766a23.91 23.91 0 01-1.697 1.672c-.985.845-1.96 1.433-2.916 1.766a8.704 8.704 0 01-1.219.358c-.607.304-1.194.453-1.766.453-1.13 0-2.055-.309-2.771-.93-.767-.652-1.145-1.523-1.145-2.603 0-.81.239-1.552.717-2.219a3.803 3.803 0 011.86-1.408l2.294 1.1.05-.05c-.05 0-.194-.348-.443-1.04-.249-.692-.373-1.174-.373-1.443 0-.81.274-1.463.826-1.945.552-.488 1.229-.727 2.045-.727 1.383 0 2.294.612 2.722 1.841l-1.981 1.125c.145-.383.214-.727.214-1.025 0-.349-.079-.662-.239-.93-.174-.334-.428-.503-.766-.503a.81.81 0 00-.647.323 1.126 1.126 0 00-.263.727c0 .607.348 1.582 1.049 2.935.732 1.418 1.1 2.423 1.1 3.01 0 .767-.214 1.384-.647 1.861l.05.05c.03.03.08.05.144.05.239 0 .742-.294 1.503-.886a19.752 19.752 0 003.677-3.702c.194-.263.378-.502.557-.726zm-11.583 4.16c0 .666.184 1.233.547 1.696.398.508.916.766 1.553.766.607 0 1.104-.233 1.502-.706a2.416 2.416 0 00.597-1.612c0-.463-.134-1.035-.408-1.722a9.806 9.806 0 00-.646-1.288c-.906 0-1.647.248-2.22.74-.617.523-.925 1.235-.925 2.125z" fill="#fff"/><path d="M150.016 25.937l-3.413.383 3.607-11.13c-1.035-.368-1.751-.93-2.149-1.697l1.721-1.219c0 .622.264 1.209.786 1.766.572-1.816 1.329-3.249 2.269-4.299 1.224-1.403 2.657-2.1 4.299-2.1 1.637 0 2.458.667 2.458 2.006 0 1.289-.821 2.547-2.458 3.771-.622.463-1.368.871-2.244 1.22a8.783 8.783 0 01-2.199.547l-3.438 10.508h.308c.941-2.722 1.871-4.896 2.797-6.518 1.592-2.756 3.353-4.13 5.279-4.13.383 0 .721.13 1.015.383.293.254.442.573.442.956 0 .587-.144 1.224-.427 1.91l-1.622 5.066c-.11.348-.17.686-.17 1.005 0 .383.189.572.573.572h.049c.413 0 .946-.279 1.602-.836.941-.811 1.991-1.965 3.155-3.463a31.79 31.79 0 011.05-1.383l-.383 1.1c-1.722 2.577-3.453 4.363-5.205 5.348-.731.413-1.473.622-2.219.622a1.24 1.24 0 01-.836-.333c-.254-.224-.383-.478-.383-.767 0-.03.08-.522.239-1.477l1.761-5.493c.13-.398.194-.747.194-1.05 0-.428-.209-.647-.622-.647-.766 0-1.607.667-2.532 2.005-1.145 1.657-2.1 3.662-2.866 6.02a37.218 37.218 0 00-.438 1.354zm3.463-13.469l-.692 2.1h.334c1.144 0 2.149-.528 3.01-1.577.796-.97 1.194-2.006 1.194-3.105 0-1.085-.398-1.622-1.194-1.622-.846 0-1.732 1.403-2.652 4.204z" fill="#fff"/><path d="M175.043 19.155l-.383 1.1c-1.309 1.701-2.423 2.945-3.344 3.727-1.562 1.303-3.055 1.96-4.488 1.96-.507 0-.98-.13-1.408-.383l-1.244.502a4.36 4.36 0 01-1.502.264c-1.622 0-2.438-.82-2.438-2.458 0-1.766.89-3.637 2.677-5.612 1.925-2.135 3.851-3.2 5.781-3.2 1.657 0 2.483.796 2.483 2.389 0 1.244-.622 2.731-1.861 4.468-.781 1.084-1.512 1.88-2.199 2.388-.353.269-.527.463-.527.572 0 .13.248.19.741.19.861 0 1.697-.24 2.508-.717 1.383-.811 2.627-1.926 3.726-3.344l.787-1.005c.238-.308.467-.587.691-.84zm-8.165-3.299l.095-.213c-.493.159-1.005.467-1.528.93-1.065.955-1.846 2.214-2.338 3.771a7.968 7.968 0 00-.383 2.389c0 .636.109 1.194.333 1.671.289.608.716.906 1.289.906.129 0 .174-.12.144-.358-.05-.224-.119-.503-.214-.836l-.333-1.005c-.11-.349-.17-.652-.17-.906 0-.925.185-1.88.548-2.876.368-.995.851-1.836 1.458-2.517.383-.413.746-.732 1.099-.956zm-2.463 5.951c0 1.418.523 2.379 1.563 2.891.512-.508.97-1.17 1.368-1.98.831-1.722 1.249-3.359 1.249-4.921 0-1.16-.344-1.742-1.035-1.742-.562 0-1.145.438-1.752 1.314a7.967 7.967 0 00-1.129 2.458 6.977 6.977 0 00-.264 1.84v.14z" fill="#fff"/><path d="M173.874 31.763l-3.702.309a20.3 20.3 0 00.428-1.22l.408-1.144.358-1.005c.08-.224.184-.532.308-.93l2.533-7.812c.463-1.418.692-2.537.692-3.368 0-.528-.423-.786-1.264-.786l.144-.528 4.608-.239c-.095.19-.224.488-.384.886a15.697 15.697 0 00-.597 1.672c0 .03-.094.328-.288.886l-4.249 13.04h.527c1.005-3.806 1.99-7.005 2.961-9.602.781-2.085 1.631-3.692 2.557-4.827.348-.428.692-.796 1.025-1.1.687-.636 1.448-.955 2.294-.955 1.368 0 2.055.851 2.055 2.558 0 1.274-.423 2.707-1.264 4.299a11.37 11.37 0 01-2.916 3.513c-.766.607-1.537.905-2.319.905-.781 0-1.368-.269-1.766-.811l1.622-1.338v.333c0 .637.334.955 1.005.955.543 0 1.035-.348 1.483-1.05.368-.572.652-1.244.861-2.005.268-.97.477-2.06.622-3.274.03-.333.049-.627.049-.885 0-.876-.238-1.314-.716-1.314-.667 0-1.433.702-2.294 2.1-.637 1.05-1.288 2.478-1.96 4.274l-.836 2.294c-.896 2.492-1.557 4.547-1.985 6.17z" fill="#fff"/><path d="M192.308 15.359c.08 2.244-.169 4.533-1.02 6.647-.841 2.115-2.298 3.96-4.07 5.384-1.771 1.433-3.801 2.512-5.906 3.353-2.099.856-4.284 1.483-6.483 2.02-4.408 1.025-8.891 1.622-13.379 2.08-4.488.453-8.986.746-13.484.985-8.996.483-17.997.647-26.987.896-8.996.229-17.982.488-26.968.836-8.996.288-18.002.462-27.007.438-4.503-.01-9.006-.08-13.514-.224a249.89 249.89 0 01-13.499-.757c-4.493-.373-8.98-.875-13.439-1.612-4.448-.746-8.886-1.711-13.155-3.264-2.12-.796-4.205-1.736-6.12-2.97-1.906-1.229-3.672-2.761-4.911-4.697C1.117 22.554.5 20.264.5 18.001c-.005-2.274.517-4.498 1.244-6.623-.657 2.145-1.1 4.384-1.015 6.618.06 2.229.716 4.438 1.97 6.264 1.24 1.841 2.986 3.284 4.876 4.438 1.901 1.155 3.966 2.03 6.07 2.757 4.225 1.453 8.628 2.353 13.056 3.025 4.434.662 8.902 1.09 13.375 1.398 17.917 1.16 35.923.826 53.885.194 17.987-.642 35.993-.766 53.955-1.383 4.488-.17 8.976-.398 13.449-.776 4.468-.388 8.931-.92 13.305-1.856 2.184-.478 4.354-1.04 6.438-1.831 2.09-.776 4.1-1.786 5.867-3.14 1.766-1.348 3.229-3.11 4.109-5.164.901-2.05 1.229-4.32 1.224-6.563z" fill="#fff"/><path d="M6.222 23.32a26.21 26.21 0 01-1.702-2.916c-.482-1.02-.885-2.085-1.114-3.2-.229-1.109-.264-2.278-.03-3.402.239-1.13.771-2.185 1.478-3.09 1.433-1.816 3.443-3.04 5.488-4.01 2.065-.951 4.229-1.663 6.413-2.245C21.14 3.308 25.612 2.631 30.09 2.09c4.483-.527 8.976-.886 13.474-1.164C52.559.357 61.57.213 70.57.094c9.006-.1 18.007-.1 27.008-.09 9 .055 18.001.15 27.007.353 9.001.224 18.006.488 26.997 1.185 4.493.338 8.986.766 13.459 1.353 4.468.602 8.936 1.343 13.3 2.562 2.174.622 4.329 1.374 6.359 2.409a15.32 15.32 0 012.871 1.865c.875.737 1.661 1.627 2.139 2.692a5.95 5.95 0 01.468 3.394c-.174 1.139-.602 2.214-1.145 3.209-1.104 1.985-2.617 3.687-4.199 5.284 1.528-1.647 2.975-3.398 4-5.389.503-.995.896-2.05 1.035-3.144a5.555 5.555 0 00-.517-3.185c-.468-.985-1.229-1.806-2.09-2.492-.861-.687-1.816-1.254-2.821-1.737-2.005-.96-4.14-1.647-6.299-2.209-4.329-1.13-8.772-1.806-13.225-2.334-4.458-.517-8.936-.875-13.419-1.144-17.942-1.045-35.939-1.15-53.93-1.19-17.992-.094-35.994-.213-53.946.573-4.488.21-8.97.498-13.434.955-4.458.468-8.91 1.085-13.26 2.14-2.174.517-4.318 1.17-6.363 2.05-2.02.895-4 2.04-5.409 3.741-.696.846-1.229 1.836-1.482 2.911-.254 1.075-.244 2.2-.055 3.294.189 1.1.547 2.164.995 3.194a26.328 26.328 0 001.607 2.976z" fill="#fff"/></svg>