<svg width="193" height="38" fill="none" xmlns="http://www.w3.org/2000/svg"><path d="M17.255 25.937l-1.194.239c-.144-.732-.214-1.339-.214-1.816 0-2.692.806-5.986 2.413-9.887.334-.796.767-1.766 1.29-2.916-1.563-.348-2.877-.527-3.942-.527-1.433 0-2.657.314-3.667.945-1.01.627-1.517 1.463-1.517 2.498v.095c0 .507.09.97.264 1.383l-2.772.288c.144-2.005 1.204-3.532 3.175-4.587 1.736-.925 3.94-1.383 6.617-1.383.607 0 1.378.05 2.319.144 1.244.13 2.015.2 2.318.214.493.03.97.05 1.433.05.906 0 1.687-.05 2.339-.145.607-.08 1.224-.213 1.86-.408l-2.099 2.32c-.463-.03-.945-.08-1.458-.145l-1.721-.214a64.283 64.283 0 01-1.384-.214l-1.194-.214c-.587 1.18-1.343 3.12-2.269 5.826h4.419l-1.17 1.364a22.42 22.42 0 00-1.741-.578c-.303-.03-.637-.044-1.005-.044h-.692c-.462.985-.766 2.617-.905 4.906a12.23 12.23 0 00-.025.716c-.005.612.17 1.314.522 2.09zm-2.82 1.672l-3.155.955c.064-2.354.637-5.224 1.721-8.608.508-1.572 1.304-3.697 2.389-6.369.253-.651.507-1.273.766-1.86h2.294a47.17 47.17 0 00-.811 2.169l-.767 2.219a63.264 63.264 0 00-1.816 6.155c-.174.681-.388 1.716-.647 3.1-.05.413-.07.76-.07 1.05 0 .601.03 1 .095 1.189zm12.274-1.672l-3.438.383c.065-.144.144-.343.239-.597l.288-.836c.174-.542.438-1.353.786-2.438l.836-2.483c.478-1.418.717-2.537.717-3.368 0-.528-.428-.786-1.289-.786l.144-.528 4.633-.239c-.24.478-.443.98-.617 1.508l-.642 1.935-2.373 7.21h.288c.348-1.13.876-2.498 1.577-4.11.811-1.86 1.682-3.343 2.603-4.443 1.179-1.403 2.378-2.1 3.607-2.1.254 0 .477.03.667.095l-.956 2.916c-.622-.573-1.179-.861-1.672-.861-.636 0-1.298.413-1.98 1.244-.955 1.164-1.95 3.224-2.985 6.184a40.56 40.56 0 00-.433 1.314zm14.966-3.204l2.389-7.19-.289.005c-2.527 7.18-5.214 10.772-8.065 10.772-1.02 0-1.528-.493-1.528-1.483 0-.413.17-1.114.503-2.1l.93-2.77c.478-1.419.717-2.538.717-3.37 0-.527-.428-.785-1.289-.785l.144-.528 4.633-.239c-.24.478-.448.98-.622 1.503l-2.1 6.26c-.174.527-.264.945-.264 1.263 0 .19.065.363.19.513.129.149.278.228.452.228.687 0 1.393-.467 2.125-1.408.492-.622 1.01-1.502 1.552-2.652.796-1.686 1.368-3.055 1.722-4.11.094-.303.253-.756.477-1.363l3.414-.239c-.11.384-.309.966-.598 1.742l-.358.955c-.03.08-.12.329-.264.742l-1.482 4.323c-.16.463-.24.886-.24 1.264 0 .493.21.742.623.742.89 0 1.99-.772 3.294-2.32.542-.745 1.368-1.86 2.483-3.343l-.384 1.1c-.094.254-.288.572-.572.955-.239.304-.477.607-.716.906-1.145 1.542-2.374 2.721-3.677 3.532-.732.448-1.458.667-2.175.667-1.005 0-1.502-.492-1.502-1.483.01-.432.164-1.134.477-2.09z" fill="#000"/><path d="M57.115 19.25l-.334 1.1-1.433 1.885c-1.114 1.468-2.308 2.602-3.582 3.413a4.134 4.134 0 01-2.269.667c-1.005 0-1.503-.413-1.503-1.244 0-.289.24-1.164.717-2.627l.81-2.483c.478-1.463.717-2.587.717-3.368 0-.528-.428-.786-1.288-.786l.144-.528 4.632-.239c-.174.369-.487 1.17-.93 2.413-.03.095-.145.438-.334 1.026L50.96 23.16c-.21.637-.309 1.05-.309 1.244 0 .349.214.528.647.528.926 0 2.04-.756 3.344-2.27.607-.71 1.438-1.85 2.473-3.412zm-3.105-7.931c-.428 0-.781-.13-1.05-.394-.269-.263-.408-.607-.408-1.04 0-.432.134-.78.408-1.05.269-.268.622-.407 1.05-.407.413 0 .756.14 1.025.418.269.278.408.627.408 1.04 0 .413-.134.756-.408 1.025-.269.273-.612.408-1.025.408z" fill="#000"/><path d="M64.971 19.155l-.383 1.1-1.483 2.055c-1.94 2.677-4.045 4.01-6.304 4.01-.557 0-.99-.19-1.303-.572-.309-.383-.468-.856-.468-1.428 0-.667.159-1.463.477-2.384l1.98-5.766h-.308c-.542 0-.965.045-1.264.13-.109.03-.248.074-.408.129l.573-1.005h1.647l1.025-2.96 2.482-.668-1.1 3.633h2.2l-.622.86a9.875 9.875 0 00-1.528-.12h-.333l-1.86 5.957c-.225.716-.334 1.209-.334 1.477 0 .732.368 1.095 1.1 1.095 1.084 0 2.283-.702 3.607-2.1.642-.686 1.507-1.836 2.607-3.443zm17.359.045l-.357 1.1c-.528.587-1.05 1.179-1.578 1.766a23.806 23.806 0 01-1.696 1.672c-.985.845-1.96 1.433-2.916 1.766a8.716 8.716 0 01-1.219.358c-.607.304-1.194.453-1.766.453-1.13 0-2.055-.309-2.772-.93-.766-.652-1.144-1.523-1.144-2.603 0-.81.239-1.552.716-2.219a3.807 3.807 0 011.861-1.408l2.294 1.1.05-.05c-.05 0-.194-.348-.443-1.04-.249-.692-.368-1.174-.368-1.443 0-.81.273-1.463.826-1.945.547-.488 1.229-.727 2.04-.727 1.383 0 2.293.612 2.721 1.841l-1.98 1.125c.144-.383.214-.727.214-1.025 0-.349-.08-.662-.239-.93-.174-.334-.428-.503-.766-.503-.254 0-.468.11-.647.323a1.126 1.126 0 00-.264.727c0 .607.349 1.582 1.05 2.935.732 1.418 1.1 2.423 1.1 3.01 0 .767-.214 1.384-.647 1.861l.05.05c.03.03.08.05.144.05.239 0 .741-.294 1.503-.886a19.752 19.752 0 003.677-3.702c.199-.263.383-.502.557-.726zm-11.582 4.16c0 .666.184 1.233.547 1.696.398.508.916.766 1.552.766.608 0 1.105-.233 1.503-.706a2.415 2.415 0 00.597-1.612c0-.463-.134-1.035-.408-1.722a9.694 9.694 0 00-.647-1.288c-.905 0-1.647.248-2.219.74-.612.523-.925 1.235-.925 2.125z" fill="#000"/><path d="M82.953 25.937l-3.413.383c.268-.572.726-1.86 1.363-3.871l.786-2.483c.493-1.562.741-2.682.741-3.368 0-.528-.428-.786-1.288-.786l.144-.528 4.632-.239c-.273.543-.706 1.687-1.303 3.434l-2.389 7.214.309.005c.144-.413.358-1.04.647-1.886a23.8 23.8 0 012.104-4.513c1.05-1.766 2.145-3 3.274-3.701a3.63 3.63 0 011.96-.548c1.036 0 1.553.383 1.553 1.145 0 .428-.08.89-.239 1.383l-1.816 5.588c-.144.447-.214.83-.214 1.144 0 .413.15.622.453.622.86 0 1.965-.771 3.319-2.319a27.124 27.124 0 001.502-1.886l1.05-1.482-.383 1.1c-1.577 2.497-3.289 4.283-5.135 5.348-.716.413-1.448.622-2.199.622-.333 0-.622-.105-.86-.309a.996.996 0 01-.359-.786c0-.413.08-.875.239-1.383l1.672-5.398c.224-.717.333-1.18.333-1.384 0-.413-.2-.622-.597-.622-.652 0-1.353.478-2.1 1.433-.587.767-1.273 2.006-2.055 3.727l-.502 1.075a20.939 20.939 0 00-.767 1.91l-.462 1.359z" fill="#000"/><path d="M109.129 19.25l-.358 1.1c-1.224 1.736-2.254 3-3.08 3.796-1.512 1.447-2.931 2.174-4.249 2.174-.398 0-.731-.105-1.005-.309-.319-.238-.478-.547-.478-.93 0-.348.07-.721.204-1.12l1.607-5.02h-.263c-.747 2.04-1.538 3.607-2.364 4.707-1.338 1.781-2.766 2.677-4.294 2.677-1.144 0-1.716-.732-1.716-2.2 0-1.925.89-3.915 2.677-5.97.826-.955 1.662-1.712 2.497-2.269.836-.557 1.622-.836 2.354-.836 1.035 0 1.552.493 1.552 1.483 0 .254-.015.428-.05.527h.214l.607-1.816 2.618-.189-2.628 8.215c-.159.492-.238.796-.238.905 0 .21.064.383.189.528.129.224.303.333.527.333.428 0 1.065-.398 1.911-1.194.781-.701 1.686-1.741 2.721-3.13.219-.338.568-.825 1.045-1.462zm-12.538 5.562h.094c.383 0 .851-.293 1.408-.885.383-.398.806-.956 1.264-1.672 1.16-1.767 1.742-3.12 1.742-4.06 0-1.433-.508-2.15-1.528-2.15-1.035 0-2 1.035-2.89 3.105-.702 1.642-1.05 3.055-1.05 4.25.004.945.323 1.412.96 1.412z" fill="#000"/><path d="M118.946 19.25l-.383 1.1c-1.607 1.945-2.986 3.328-4.13 4.154-1.687 1.209-3.493 1.816-5.423 1.816-1.946 0-2.916-.811-2.916-2.438 0-.781.279-1.737.836-2.866a15.358 15.358 0 011.622-2.532c1.831-2.294 3.752-3.439 5.757-3.439.477 0 1.164.11 2.055.334l-1.05 2.199c-.11-1.274-.742-1.91-1.886-1.91-.891 0-1.761.567-2.602 1.696-.572.746-1.06 1.632-1.458 2.652-.428 1.115-.647 2.1-.647 2.96 0 1.304.717 1.96 2.15 1.96 1.114 0 2.293-.407 3.532-1.218 1.199-.767 2.712-2.254 4.543-4.468z" fill="#000"/><path d="M115.647 26.32c.03-.13.08-.294.144-.503l.239-.74c.174-.494.428-1.245.767-2.245l2.985-9.195c.716-2.214 1.075-3.637 1.075-4.274 0-.398-.17-.666-.503-.81-.144-.05-.488-.095-1.025-.145l.189-.527 4.618-.24-5.867 18.052h.408c.861-3.025 2.065-5.692 3.608-8 1.179-1.767 2.398-2.653 3.657-2.653.462 0 .86.17 1.194.503.333.333.502.731.502 1.194 0 .955-.398 1.742-1.194 2.364-.542.427-1.378.825-2.507 1.194-.015.03-.065.05-.145.05-.144 0-.189.228-.144.691.08.701.289 1.448.622 2.244.448 1.02.945 1.527 1.502 1.527.956 0 2.1-.74 3.439-2.219.622-.666 1.323-1.542 2.099-2.627.174-.253.334-.477.478-.666l-.383 1.1-1.339 1.765c-1.129 1.498-2.338 2.657-3.632 3.488-.701.448-1.368.667-2.005.667-.985 0-1.751-.756-2.294-2.269a9.75 9.75 0 01-.477-1.886l-.239-1.577h-.05c-.209 0-.507.508-.905 1.528-.065.13-.334.89-.811 2.293l-.528 1.528-3.478.388zm6.021-6.26h.716c.97 0 1.846-.387 2.627-1.168.413-.428.622-.901.622-1.409v-.094a.869.869 0 00-.214-.587.685.685 0 00-.547-.249c-.557 0-1.184.463-1.886 1.383-.418.557-.856 1.264-1.318 2.125zm27.514-.86l-.358 1.1c-.522.587-1.05 1.179-1.577 1.766a23.7 23.7 0 01-1.697 1.672c-.985.845-1.96 1.433-2.915 1.766a8.744 8.744 0 01-1.219.358c-.607.304-1.195.453-1.767.453-1.129 0-2.055-.309-2.771-.93-.766-.652-1.144-1.523-1.144-2.603 0-.81.238-1.552.716-2.219a3.81 3.81 0 011.861-1.408l2.294 1.1.049-.05c-.049 0-.194-.348-.442-1.04-.249-.692-.374-1.174-.374-1.443 0-.81.274-1.463.826-1.945.553-.488 1.229-.727 2.045-.727 1.383 0 2.294.612 2.722 1.841l-1.98 1.125c.144-.383.214-.727.214-1.025a1.8 1.8 0 00-.239-.93c-.174-.334-.428-.503-.766-.503a.81.81 0 00-.647.323 1.127 1.127 0 00-.264.727c0 .607.348 1.582 1.05 2.935.731 1.418 1.099 2.423 1.099 3.01 0 .767-.214 1.384-.646 1.861l.049.05c.03.03.08.05.145.05.238 0 .741-.294 1.502-.886a19.752 19.752 0 003.677-3.702c.194-.263.378-.502.557-.726zm-11.583 4.16c0 .666.184 1.233.548 1.696.398.508.915.766 1.552.766.607 0 1.105-.233 1.503-.706a2.416 2.416 0 00.597-1.612c0-.463-.135-1.035-.408-1.722a9.681 9.681 0 00-.647-1.288c-.906 0-1.647.248-2.219.74-.617.523-.926 1.235-.926 2.125z" fill="#000"/><path d="M149.849 25.937l-3.413.383 3.607-11.13c-1.035-.368-1.751-.93-2.149-1.697l1.721-1.219c0 .622.264 1.209.787 1.766.572-1.816 1.328-3.249 2.268-4.299 1.224-1.403 2.657-2.1 4.299-2.1 1.637 0 2.458.667 2.458 2.006 0 1.289-.821 2.547-2.458 3.771-.622.463-1.368.871-2.244 1.22a8.773 8.773 0 01-2.199.547l-3.438 10.508h.309c.94-2.722 1.87-4.896 2.796-6.518 1.592-2.756 3.353-4.13 5.279-4.13.383 0 .721.13 1.015.383.293.254.443.573.443.956 0 .587-.145 1.224-.428 1.91l-1.622 5.066a3.36 3.36 0 00-.169 1.005c0 .383.189.572.572.572h.05c.413 0 .945-.279 1.602-.836.94-.811 1.99-1.965 3.154-3.463a31.79 31.79 0 011.05-1.383l-.383 1.1c-1.722 2.577-3.453 4.363-5.204 5.348-.732.413-1.473.622-2.22.622-.303 0-.582-.11-.835-.333-.254-.224-.384-.478-.384-.767 0-.03.08-.522.239-1.477l1.762-5.493c.129-.398.194-.747.194-1.05 0-.428-.209-.647-.622-.647-.767 0-1.607.667-2.533 2.005-1.144 1.657-2.1 3.662-2.866 6.02a37.218 37.218 0 00-.438 1.354zm3.463-13.469l-.691 2.1h.333c1.144 0 2.15-.528 3.01-1.577.796-.97 1.194-2.006 1.194-3.105 0-1.085-.398-1.622-1.194-1.622-.846 0-1.731 1.403-2.652 4.204z" fill="#000"/><path d="M174.877 19.155l-.384 1.1c-1.308 1.701-2.423 2.945-3.343 3.727-1.563 1.303-3.055 1.96-4.488 1.96-.508 0-.98-.13-1.408-.383l-1.244.502c-.478.174-.98.264-1.503.264-1.622 0-2.438-.82-2.438-2.458 0-1.766.891-3.637 2.677-5.612 1.926-2.135 3.851-3.2 5.782-3.2 1.657 0 2.482.796 2.482 2.389 0 1.244-.621 2.731-1.86 4.468-.782 1.084-1.513 1.88-2.2 2.388-.353.269-.527.463-.527.572 0 .13.249.19.741.19.861 0 1.697-.24 2.508-.717 1.383-.811 2.627-1.926 3.727-3.344l.786-1.005c.239-.308.468-.587.692-.84zm-8.165-3.299l.094-.213c-.492.159-1.005.467-1.527.93-1.065.955-1.846 2.214-2.339 3.771a7.968 7.968 0 00-.383 2.389c0 .636.109 1.194.333 1.671.289.608.717.906 1.289.906.129 0 .174-.12.144-.358a14.093 14.093 0 00-.214-.836l-.333-1.005c-.109-.349-.169-.652-.169-.906 0-.925.184-1.88.547-2.876.368-.995.851-1.836 1.458-2.517.383-.413.746-.732 1.1-.956zm-2.463 5.951c0 1.418.522 2.379 1.562 2.891.512-.508.97-1.17 1.368-1.98.831-1.722 1.249-3.359 1.249-4.921 0-1.16-.343-1.742-1.035-1.742-.562 0-1.144.438-1.751 1.314a7.946 7.946 0 00-1.13 2.458 6.974 6.974 0 00-.263 1.84v.14z" fill="#000"/><path d="M173.707 31.763l-3.702.309c.16-.413.304-.821.428-1.22l.408-1.144.358-1.005c.08-.224.185-.532.309-.93l2.532-7.812c.463-1.418.692-2.537.692-3.368 0-.528-.423-.786-1.264-.786l.145-.528 4.607-.239c-.095.19-.224.488-.383.886a15.264 15.264 0 00-.597 1.672c0 .03-.095.328-.289.886l-4.249 13.04h.527c1.006-3.806 1.991-7.005 2.961-9.602.781-2.085 1.632-3.692 2.557-4.827.349-.428.692-.796 1.025-1.1.687-.636 1.448-.955 2.294-.955 1.368 0 2.055.851 2.055 2.558 0 1.274-.423 2.707-1.264 4.299a11.353 11.353 0 01-2.915 3.513c-.767.607-1.538.905-2.319.905-.781 0-1.368-.269-1.766-.811l1.622-1.338v.333c0 .637.333.955 1.005.955.542 0 1.035-.348 1.482-1.05.369-.572.652-1.244.861-2.005.269-.97.478-2.06.622-3.274.03-.333.05-.627.05-.885 0-.876-.239-1.314-.717-1.314-.666 0-1.433.702-2.293 2.1-.637 1.05-1.289 2.478-1.961 4.274l-.836 2.294c-.895 2.492-1.557 4.547-1.985 6.17z" fill="#000"/><path d="M192.142 15.359c.079 2.244-.17 4.533-1.02 6.647-.841 2.115-2.299 3.96-4.07 5.384-1.772 1.433-3.802 2.512-5.906 3.353-2.1.856-4.284 1.483-6.484 2.02-4.408 1.025-8.891 1.622-13.379 2.08-4.488.453-8.986.746-13.484.985-8.996.483-17.996.647-26.987.896-8.996.229-17.982.488-26.968.836-8.996.288-18.001.462-27.007.438-4.503-.01-9.006-.08-13.514-.224a249.88 249.88 0 01-13.498-.757c-4.494-.373-8.981-.875-13.44-1.612-4.448-.746-8.886-1.711-13.155-3.264-2.12-.796-4.204-1.736-6.12-2.97-1.906-1.229-3.672-2.761-4.91-4.697-1.25-1.92-1.867-4.21-1.867-6.473-.005-2.274.518-4.498 1.244-6.623-.657 2.145-1.1 4.384-1.015 6.618.06 2.229.717 4.438 1.97 6.264 1.24 1.841 2.986 3.284 4.877 4.438 1.9 1.155 3.965 2.03 6.07 2.757 4.224 1.453 8.628 2.353 13.056 3.025 4.433.662 8.901 1.09 13.374 1.398 17.917 1.16 35.924.826 53.886.194 17.986-.642 35.993-.766 53.955-1.383 4.488-.17 8.976-.398 13.449-.776 4.468-.388 8.931-.92 13.304-1.856 2.185-.478 4.354-1.04 6.439-1.831 2.089-.776 4.099-1.786 5.866-3.14 1.766-1.348 3.229-3.11 4.11-5.164.9-2.05 1.229-4.32 1.224-6.563z" fill="#000"/><path d="M6.055 23.32a26.213 26.213 0 01-1.701-2.916c-.483-1.02-.886-2.085-1.115-3.2-.229-1.109-.264-2.278-.03-3.402.24-1.13.772-2.185 1.478-3.09 1.433-1.816 3.443-3.04 5.488-4.01 2.065-.951 4.23-1.663 6.414-2.245 4.383-1.149 8.856-1.826 13.334-2.368 4.483-.527 8.976-.886 13.474-1.164C52.393.357 61.404.213 70.404.094c9.006-.1 18.007-.1 27.008-.09 9.001.055 18.001.15 27.007.353 9.001.224 18.007.488 26.998 1.185 4.493.338 8.986.766 13.459 1.353 4.468.602 8.936 1.343 13.299 2.562 2.175.622 4.329 1.374 6.359 2.409a15.32 15.32 0 012.871 1.865c.876.737 1.662 1.627 2.139 2.692a5.95 5.95 0 01.468 3.394c-.174 1.139-.602 2.214-1.144 3.209-1.105 1.985-2.617 3.687-4.2 5.284 1.528-1.647 2.976-3.398 4.001-5.389.502-.995.895-2.05 1.035-3.144a5.564 5.564 0 00-.518-3.185c-.468-.985-1.229-1.806-2.09-2.492-.86-.687-1.816-1.254-2.821-1.737-2.005-.96-4.139-1.647-6.299-2.209-4.329-1.13-8.772-1.806-13.225-2.334-4.458-.517-8.936-.875-13.419-1.144-17.942-1.045-35.938-1.15-53.93-1.19-17.992-.094-35.993-.213-53.945.573-4.488.21-8.971.498-13.434.955-4.459.468-8.912 1.085-13.26 2.14-2.175.517-4.319 1.17-6.364 2.05-2.02.895-4 2.04-5.408 3.741-.697.846-1.23 1.836-1.483 2.911-.254 1.075-.244 2.2-.055 3.294.19 1.1.547 2.164.995 3.194a26.328 26.328 0 001.607 2.976z" fill="#000"/></svg>