<svg width="45" height="44" fill="none" xmlns="http://www.w3.org/2000/svg"><circle cx="22.833" cy="22" r="22" fill="#D5D5D5"/><path d="M29.567 29.003H16.592a.41.41 0 100 .82h12.975a.41.41 0 000-.82zm-3.774 1.958h-9.201a.41.41 0 100 .82h9.2a.41.41 0 000-.82z" fill="gray"/><path d="M32.915 17.37a.41.41 0 00-.41.41v14.655a2.747 2.747 0 01-2.745 2.745H16.398a2.747 2.747 0 01-2.744-2.745V14.751a2.748 2.748 0 012.744-2.744H29.76a2.748 2.748 0 012.745 2.744v1.146a.41.41 0 10.82 0v-1.146a3.57 3.57 0 00-3.565-3.565h-2.03v-.911c0-.743-.348-1.417-.953-1.85a2.247 2.247 0 00-2.058-.3l-9.464 3.25a3.57 3.57 0 00-2.422 3.376v17.684A3.57 3.57 0 0016.398 36H29.76a3.57 3.57 0 003.565-3.565V17.78a.41.41 0 00-.41-.41zm-7.93-8.468c.45-.155.929-.085 1.316.191.386.276.608.707.608 1.182v.911h-8.58l6.656-2.284z" fill="gray"/><path d="M27.9 13.992h-9.642a2.391 2.391 0 00-2.389 2.388v8.557a2.391 2.391 0 002.389 2.389H27.9a2.391 2.391 0 002.389-2.389V16.38a2.391 2.391 0 00-2.389-2.388zm0 12.513h-9.642a1.57 1.57 0 01-1.568-1.568V16.38a1.57 1.57 0 011.568-1.568H27.9a1.57 1.57 0 011.569 1.568v8.557a1.57 1.57 0 01-1.569 1.568z" fill="gray"/><path d="M25.994 17.976h-.512a1.441 1.441 0 00-.351-1.463 1.448 1.448 0 00-2.053.015l-.002-.002a1.363 1.363 0 00-.985-.44 1.468 1.468 0 00-1.064.427 1.441 1.441 0 00-.35 1.463h-.513c-.973 0-1.766.792-1.766 1.766a1.77 1.77 0 001.06 1.618v2.064c0 .998.812 1.81 1.81 1.81h3.57c.998 0 1.81-.812 1.81-1.81v-2.042a1.768 1.768 0 001.112-1.64c0-.974-.792-1.766-1.766-1.766zm-4.387-.883a.643.643 0 01.466-.188.55.55 0 01.399.175c.208.227.43.279.58.283a.849.849 0 00.62-.268.626.626 0 01.88-.002.62.62 0 010 .877l.006.006H21.6l.006-.006a.62.62 0 010-.877zm-2.388 2.649c0-.521.424-.945.945-.945h1.61v1.89h-1.61a.946.946 0 01-.945-.945zm4.457 4.67h-2.409a.99.99 0 01-.988-.988v-1.917h1.495v1.453a.41.41 0 00.82 0v-1.453h1.082v2.906zm0-3.725h-1.082v-1.89h1.082v1.89zm2.15 2.737a.99.99 0 01-.988.989h-.342v-2.906h1.33v1.917zm.168-2.737h-1.498v-1.89h1.498a.946.946 0 010 1.89z" fill="gray"/></svg>