<svg width="45" height="44" fill="none" xmlns="http://www.w3.org/2000/svg"><circle cx="22.833" cy="22" r="22" fill="#D5D5D5"/><path d="M36.514 14.176h-9.437c.536-.284 1.02-.616 1.367-.995 1.083-1.186 1.083-3.106 0-4.293-1.085-1.184-2.842-1.184-3.928 0-.673.736-1.18 2.029-1.532 3.216-.352-1.187-.859-2.48-1.532-3.216-1.085-1.184-2.843-1.184-3.928 0-1.083 1.187-1.083 3.107 0 4.293.348.38.832.711 1.368.995H9.454c-.343 0-.62.304-.62.679v5.496c0 .374.277.678.62.678h1.21v14.293c0 .374.277.678.62.678h23.4c.344 0 .621-.303.621-.678V21.029h1.21c.342 0 .62-.304.62-.678v-5.496c0-.375-.278-.679-.62-.679zm-6.832 7.462l-.66-.571a.58.58 0 00-.77 0l-.541.468a23.682 23.682 0 00-.074-1.967c-.14-1.705-.463-3.055-.965-4.035h1.68c1.11 1.206 1.343 4.15 1.33 6.105zm-12.065-6.105h1.68c-.503.98-.826 2.33-.965 4.035a23.687 23.687 0 00-.074 1.967l-.542-.468a.58.58 0 00-.77 0l-.66.572c-.015-1.955.217-4.898 1.33-6.106zm2.882.443v3.696h-.931c.113-1.362.38-2.782.931-3.696zm1.242-.443h2.487v19.11H21.74v-19.11zm3.729.443c.55.915.816 2.334.93 3.696h-.93v-3.696zm-.076-6.129a1.447 1.447 0 012.172 0 1.793 1.793 0 010 2.374c-.507.554-1.537 1.023-2.535 1.369l1.057-1.147c.158-.17.22-.42.164-.655a.652.652 0 00-.438-.482.585.585 0 00-.6.174l-1.084 1.176c.317-1.102.75-2.247 1.264-2.809zm-6.992 0a1.447 1.447 0 012.172 0c.513.56.946 1.706 1.263 2.808l-1.082-1.174a.584.584 0 00-.877.004.723.723 0 00.002.958l1.058 1.148c-.998-.346-2.028-.814-2.536-1.37a1.793 1.793 0 010-2.374zm-8.327 5.686h6.011c-.502.98-.825 2.33-.964 4.035l-.008.104h-5.04v-4.139zm1.83 5.496h3.146c-.02 1.138.044 1.96.048 2.008l.018-.002c.02.25.162.467.372.566.21.1.452.065.631-.09l1.211-1.047 1.211 1.047a.578.578 0 00.68.065.694.694 0 00.323-.655c-.044-.63-.06-1.261-.046-1.892h1v13.615h-8.594V21.029zm22.159 13.615h-8.595V21.029h1c.014.63-.002 1.262-.046 1.892a.695.695 0 00.324.655.577.577 0 00.68-.065l1.21-1.047 1.211 1.047c.18.155.422.19.632.09.21-.1.352-.317.371-.566l.019.002c.004-.047.067-.87.047-2.008h3.147v13.615zm1.83-14.972h-5.04l-.007-.104c-.14-1.705-.463-3.055-.965-4.035h6.012v4.14z" fill="gray"/></svg>