<svg width="45" height="44" fill="none" xmlns="http://www.w3.org/2000/svg"><circle cx="22.833" cy="22" r="22" fill="#E8D749"/><path d="M18.655 26.697h1.068v1.068h-1.068v-1.068zm-2.138-3.739h1.069v1.068h-1.069v-1.068zm-4.273-3.206h1.068v1.069h-1.068v-1.069zm.534 4.808h1.068v1.069h-1.068V24.56z" fill="#609416"/><path d="M38.557 16.811c.26-.716.397-1.464.397-2.233A6.585 6.585 0 0032.376 8a6.532 6.532 0 00-4.65 1.926l-.524.524-.523-.523A6.535 6.535 0 0022.027 8a6.585 6.585 0 00-6.578 6.578c0 .4.04.793.11 1.178a6.534 6.534 0 00-3.148-.811 6.585 6.585 0 00-6.578 6.577c0 1.757.685 3.41 1.927 4.652L17.586 36l8.28-8.28 1.336 1.335 2.508-2.508 1.45 1.813 1.384-4.612 1.383 4.612 3.046-3.807-1.26-1.511.93.619c.358.24.774.365 1.206.365.61 0 1.105-.496 1.105-1.105v-5.268a1.1 1.1 0 00-.397-.842zm-12.634-6.129l1.279 1.279 1.278-1.28a5.473 5.473 0 013.896-1.613 5.516 5.516 0 015.51 5.51c0 .69-.134 1.36-.384 1.998a2.163 2.163 0 00-.86.336l-2.49 1.66a1.591 1.591 0 00-1.074-.422h-1.069c-.415 0-.79.163-1.074.422l-2.49-1.66a2.167 2.167 0 00-1.206-.365c-.308 0-.587.128-.788.332a23.365 23.365 0 01-5.72-7.047l-.28-.53a5.47 5.47 0 011.576-.234 5.47 5.47 0 013.896 1.614zm4.507 10.371l-2.577 1.719a.901.901 0 01-.651.149l.037-5.305c.219 0 .432.064.613.186l2.578 1.718c-.01.077-.023.153-.023.233v1.068c0 .08.012.156.023.232zm1.045-.232v-1.068c0-.295.24-.535.535-.535h1.068c.295 0 .534.24.534.535v1.068c0 .295-.24.534-.534.534h-1.069a.535.535 0 01-.534-.534zm-11.688-10.49a24.43 24.43 0 006.346 7.67v1.85a23.543 23.543 0 01-7.538-8.416l-.418-.79c.378-.371.81-.687 1.28-.937l.33.624zM17.586 34.49l-9.07-9.07a5.471 5.471 0 01-1.614-3.897 5.516 5.516 0 015.509-5.509c1.376 0 2.686.515 3.707 1.446a6.575 6.575 0 001.257 1.77l.7.699-.49.489-2.033-2.035a4.463 4.463 0 00-.9-.69 3.18 3.18 0 00-1.874-.61c-.06 0-.12.005-.18.009-.062-.003-.124-.01-.187-.01a4.446 4.446 0 00-4.44 4.441c0 1.187.46 2.302 1.3 3.141l8.315 8.315 6.77-6.769.755.755-7.525 7.525zm-3.554-15.924a2.13 2.13 0 01-1.254 3.859 2.139 2.139 0 01-2.137-2.137c0-1.138.895-2.062 2.018-2.125.486.035.953.172 1.373.403zm4.622 10.803a2.139 2.139 0 01-2.137-2.136c0-.416.123-.81.346-1.154a3.19 3.19 0 002.829-.709 2.134 2.134 0 011.1 1.863 2.139 2.139 0 01-2.138 2.136zM11.71 24.56c0-.415.122-.809.345-1.153a3.182 3.182 0 002.33-.35 3.201 3.201 0 001.34 2.507 2.14 2.14 0 01-1.879 1.133 2.139 2.139 0 01-2.136-2.137zm6.78-3.536a2.137 2.137 0 11-1.807 0l.903.903.903-.903zm-7.43 1.964a3.17 3.17 0 00-.416 1.538l-.618-.618a3.353 3.353 0 01-.987-2.386c0-.719.228-1.384.612-1.932a3.202 3.202 0 001.409 3.398zm4.394 4.34a3.206 3.206 0 003.164 3.107l-1.032 1.032-3.705-3.704a3.189 3.189 0 001.573-.435zm6.403-.132a3.205 3.205 0 00-1.48-2.667c.262-.464.414-1 .414-1.571 0-.114-.013-.226-.025-.338l2.833 2.833-1.742 1.743zm5.345.348l-9.07-9.07a5.471 5.471 0 01-1.615-3.896c0-1.125.34-2.171.922-3.044l.212.4a24.618 24.618 0 008.482 9.202v1.784c0 .61.497 1.106 1.106 1.106.431 0 .848-.126 1.206-.366l.93-.619-1.26 1.512.923 1.154-1.836 1.837zm3.52-1.441l-1.228-1.536 1.892-2.27c.139.06.29.091.445.109l-1.109 3.697zm3.643 0l-1.109-3.697c.156-.018.307-.05.445-.108l1.892 2.27-1.228 1.535zm3.483-3.145c-.219 0-.431-.064-.613-.186l-2.577-1.719c.01-.076.023-.152.023-.232v-1.068c0-.08-.013-.156-.024-.233l2.578-1.718a.891.891 0 01.65-.148l-.036 5.304z" fill="#609416"/></svg>