<svg width="45" height="44" fill="none" xmlns="http://www.w3.org/2000/svg"><circle cx="22.667" cy="22" r="22" fill="#E8D749"/><path d="M36.62 25.074l.004-.002-4.597-10.03 1.115-.555-.417-.835-1.087.54-.147-.32a.467.467 0 00-.849 0l-.13.287a6.003 6.003 0 00-2.525-.559h-3.92v-.933H25v-.933h-.802l.335-1.343a1.924 1.924 0 10-3.733 0l.336 1.342h-.803v.934h.934v.933h-3.918c-.873 0-1.735.192-2.527.56l-.131-.286a.467.467 0 00-.848 0l-.147.32-1.087-.543-.417.836 1.114.557L8.71 25.072a.456.456 0 00-.042.195 3.27 3.27 0 003.267 3.266H16.6a3.27 3.27 0 003.267-3.266.456.456 0 00-.047-.193l-4.61-10.069c.67-.31 1.4-.472 2.14-.472h3.917v17.074L19.674 33.2H18a2.336 2.336 0 00-2.333 2.333c0 .258.209.467.467.467H29.2a.467.467 0 00.467-.467 2.336 2.336 0 00-2.334-2.333H25.66l-1.593-1.593V14.534h3.92c.738 0 1.468.16 2.138.471L25.51 25.072a.456.456 0 00-.042.195 3.27 3.27 0 003.266 3.266H33.4a3.27 3.27 0 003.267-3.266.453.453 0 00-.047-.193zM16.6 27.6h-4.667a2.337 2.337 0 01-2.286-1.867h9.24A2.337 2.337 0 0116.6 27.6zm2.073-2.8H9.861l4.286-9.352a.46.46 0 00.24 0l4.286 9.352zm3.213-15.486a1.021 1.021 0 011.562 0c.188.24.255.555.18.85l-.392 1.57h-1.138l-.393-1.57a.985.985 0 01.181-.85zM22.2 13.6v-.933h.933v.933H22.2zm.933.934v16.8H22.2v-16.8h.933zm4.2 19.6a1.4 1.4 0 011.32.933H16.68a1.403 1.403 0 011.32-.934h9.333zM24.34 33.2h-3.347l.934-.933h1.48l.933.933zm6.606-17.75a.318.318 0 00.236-.01l4.29 9.36H26.66l4.286-9.35zM33.4 27.6h-4.667a2.337 2.337 0 01-2.286-1.867h9.24A2.337 2.337 0 0133.4 27.6z" fill="#609416"/></svg>