<svg width="45" height="44" fill="none" xmlns="http://www.w3.org/2000/svg"><circle cx="22.833" cy="22" r="22" fill="#D5D5D5"/><path d="M36.787 25.074l.004-.002-4.597-10.03 1.115-.555-.418-.835-1.086.54-.148-.32a.467.467 0 00-.848 0l-.131.287a6.003 6.003 0 00-2.525-.559h-3.92v-.933h.934v-.933h-.803l.336-1.343a1.924 1.924 0 10-3.733 0l.335 1.342H20.5v.934h.933v.933h-3.917c-.873 0-1.736.192-2.527.56l-.131-.286a.467.467 0 00-.849 0l-.147.32-1.087-.543-.417.836 1.115.557-4.597 10.028a.456.456 0 00-.042.195 3.27 3.27 0 003.266 3.266h4.667a3.27 3.27 0 003.267-3.266.456.456 0 00-.047-.193l-4.61-10.069c.67-.31 1.4-.472 2.139-.472h3.917v17.074L19.84 33.2h-1.673a2.336 2.336 0 00-2.334 2.333c0 .258.21.467.467.467h13.067a.467.467 0 00.466-.467A2.336 2.336 0 0027.5 33.2h-1.673l-1.594-1.593V14.534h3.92c.74 0 1.469.16 2.14.471l-4.617 10.067a.456.456 0 00-.043.195 3.27 3.27 0 003.267 3.266h4.667a3.27 3.27 0 003.266-3.266.453.453 0 00-.046-.193zM16.767 27.6H12.1a2.337 2.337 0 01-2.286-1.867h9.24a2.337 2.337 0 01-2.287 1.867zm2.073-2.8h-8.813l4.287-9.352c.078.02.16.02.239 0L18.84 24.8zm3.213-15.486a1.021 1.021 0 011.561 0 .98.98 0 01.18.85l-.392 1.57h-1.137l-.393-1.57a.985.985 0 01.18-.85zm.314 4.286v-.933h.933v.933h-.933zm.933.934v16.8h-.933v-16.8h.933zm4.2 19.6a1.4 1.4 0 011.32.933H16.847a1.403 1.403 0 011.32-.934H27.5zm-2.993-.934H21.16l.933-.933h1.48l.934.933zm6.606-17.75a.318.318 0 00.236-.01l4.29 9.36h-8.812l4.286-9.35zm2.454 12.15H28.9a2.337 2.337 0 01-2.287-1.867h9.24a2.337 2.337 0 01-2.286 1.867z" fill="gray"/></svg>