<svg width="39" height="28" viewBox="0 0 39 28" fill="none" xmlns="http://www.w3.org/2000/svg">
<path d="M26.8195 9.98827H20.5857L16.2036 0.75416C16.0464 0.423092 15.7808 0.178708 15.4555 0.0659785C15.1301 -0.0467505 14.7842 -0.0142371 14.4813 0.157467C14.3759 0.217154 14.2817 0.290962 14.1989 0.37539C14.1161 0.291021 14.0218 0.217154 13.9165 0.157467C13.6136 -0.0142371 13.2676 -0.0466912 12.9423 0.0659785C12.617 0.178648 12.3513 0.423092 12.1942 0.75416L7.57515 10.4875C7.41803 10.8186 7.38828 11.1967 7.49143 11.5522C7.52661 11.6736 7.57689 11.7867 7.63856 11.8907H1.57832C1.32289 11.8907 1.11512 11.6636 1.11512 11.3844C1.11512 11.1054 1.32295 10.8782 1.57832 10.8782H6.22035C6.44522 10.8782 6.62752 10.6791 6.62752 10.4333C6.62752 10.1875 6.44522 9.98827 6.22035 9.98827H1.57832C0.873916 9.98827 0.300781 10.6146 0.300781 11.3844C0.300781 12.0229 0.695032 12.5622 1.23136 12.7279L3.58964 26.4731C3.74138 27.3579 4.44937 28 5.27305 28H23.1248C23.9485 28 24.6564 27.3579 24.8082 26.4731L27.1665 12.7278C27.7028 12.5622 28.097 12.0229 28.097 11.3844C28.097 10.6146 27.5239 9.98827 26.8195 9.98827ZM14.8562 0.947579C14.966 0.885341 15.0915 0.873534 15.2094 0.914413C15.3273 0.955233 15.4237 1.04387 15.4806 1.1639L20.0997 10.8973C20.1566 11.0174 20.1674 11.1545 20.13 11.2833C20.0927 11.4123 20.0116 11.5175 19.9017 11.5798C19.7919 11.6421 19.6665 11.6538 19.5485 11.613C19.4305 11.5722 19.3342 11.4835 19.2773 11.3635L14.6583 1.63001C14.5407 1.38224 14.6295 1.07609 14.8562 0.947579ZM20.2782 12.7807L19.8929 17.1224H14.6061V12.7807H20.2782ZM14.1989 2.59508L18.5545 11.7731C18.5737 11.8137 18.5946 11.8529 18.617 11.8907H9.78077C9.80319 11.8529 9.82415 11.8137 9.84337 11.7732L10.2681 10.8783H16.4655C16.6904 10.8783 16.8727 10.6791 16.8727 10.4333C16.8727 10.1876 16.6904 9.98833 16.4655 9.98833H10.6904L14.1989 2.59508ZM8.29807 10.8973L12.9172 1.16384C12.9741 1.04381 13.0704 0.955173 13.1884 0.914353C13.2346 0.898334 13.2818 0.890443 13.3289 0.890443C13.4022 0.890443 13.4748 0.909666 13.5416 0.94752C13.7683 1.07609 13.8572 1.38218 13.7396 1.62995L9.12045 11.3634C9.0635 11.4834 8.96719 11.5721 8.84922 11.6129C8.73135 11.6537 8.60589 11.6419 8.49601 11.5796C8.38618 11.5174 8.30507 11.4122 8.26772 11.2832C8.23031 11.1544 8.24112 11.0174 8.29807 10.8973ZM2.06894 12.7807H7.30147L7.68677 17.1224H2.81385L2.06894 12.7807ZM2.96656 18.0123H7.76576L8.15105 22.354H3.71141L2.96656 18.0123ZM5.273 27.1101C4.84096 27.1101 4.46962 26.7733 4.39003 26.3092L3.86413 23.244H8.22999L8.5731 27.1101H5.273ZM13.7917 27.1101H9.39119L9.04813 23.244H13.7917V27.1101ZM13.7917 22.354H8.96914L8.58385 18.0123H13.7917V22.354ZM13.7917 17.1224H8.50491L8.11962 12.7807H13.7917V17.1224ZM19.0066 27.1101H14.6061V23.244H19.3497L19.0066 27.1101ZM19.4287 22.3541H14.6061V18.0124H19.814L19.4287 22.3541ZM24.0078 26.3092C23.9282 26.7733 23.5568 27.1101 23.1248 27.1101H19.8247L20.1678 23.244H24.5337L24.0078 26.3092ZM24.6864 22.3541H20.2468L20.6321 18.0124H25.4313L24.6864 22.3541ZM25.584 17.1224H20.7111L21.0964 12.7806H26.3289L25.584 17.1224ZM26.8195 11.8907H26.8129C26.8126 11.8907 26.8124 11.8907 26.8121 11.8907H20.7593C20.8209 11.7867 20.8711 11.6736 20.9064 11.5523C20.9706 11.3308 20.9833 11.1005 20.9457 10.8783H26.8195C27.0749 10.8783 27.2827 11.1054 27.2827 11.3845C27.2827 11.6636 27.0749 11.8907 26.8195 11.8907Z" fill="white"/>
<circle cx="29.6991" cy="9" r="9" fill="#609416"/>
<path d="M26.3837 8.69379C26.3837 7.50889 26.5045 6.55642 26.746 5.83636C26.9921 5.11176 27.3544 4.55349 27.8329 4.16156C28.316 3.76963 28.9221 3.57367 29.6513 3.57367C30.1891 3.57367 30.6607 3.68304 31.0663 3.90179C31.4719 4.11599 31.8069 4.42816 32.0712 4.83832C32.3355 5.24392 32.5429 5.74066 32.6933 6.32855C32.8437 6.91189 32.9189 7.7003 32.9189 8.69379C32.9189 9.86957 32.7981 10.8198 32.5566 11.5444C32.315 12.2644 31.9527 12.8227 31.4697 13.2192C30.9911 13.6111 30.385 13.8071 29.6513 13.8071C28.6851 13.8071 27.9264 13.4607 27.3749 12.768C26.7141 11.934 26.3837 10.5759 26.3837 8.69379ZM27.6484 8.69379C27.6484 10.339 27.8398 11.435 28.2226 11.9819C28.61 12.5242 29.0862 12.7953 29.6513 12.7953C30.2164 12.7953 30.6904 12.5219 31.0732 11.975C31.4605 11.4282 31.6542 10.3344 31.6542 8.69379C31.6542 7.04405 31.4605 5.94802 31.0732 5.4057C30.6904 4.86338 30.2118 4.59222 29.6376 4.59222C29.0725 4.59222 28.6213 4.83148 28.2841 5.31C27.8603 5.92067 27.6484 7.0486 27.6484 8.69379Z" fill="white"/>
</svg>
