<svg width="45" height="44" viewBox="0 0 45 44" fill="none" xmlns="http://www.w3.org/2000/svg">
<path d="M29.6528 17.9883H23.419L19.0369 8.75416C18.8797 8.42309 18.6141 8.17871 18.2888 8.06598C17.9635 7.95325 17.6175 7.98576 17.3146 8.15747C17.2093 8.21715 17.115 8.29096 17.0322 8.37539C16.9494 8.29102 16.8551 8.21715 16.7498 8.15747C16.4469 7.98576 16.1009 7.95331 15.7756 8.06598C15.4503 8.17865 15.1846 8.42309 15.0275 8.75416L10.4085 18.4875C10.2513 18.8186 10.2216 19.1967 10.3247 19.5522C10.3599 19.6736 10.4102 19.7867 10.4719 19.8907H4.41164C4.1562 19.8907 3.94844 19.6636 3.94844 19.3844C3.94844 19.1054 4.15626 18.8782 4.41164 18.8782H9.05367C9.27853 18.8782 9.46084 18.6791 9.46084 18.4333C9.46084 18.1875 9.27853 17.9883 9.05367 17.9883H4.41164C3.70723 17.9883 3.13409 18.6146 3.13409 19.3844C3.13409 20.0229 3.52835 20.5622 4.06467 20.7279L6.42296 34.4731C6.5747 35.3579 7.28269 36 8.10637 36H25.9581C26.7818 36 27.4897 35.3579 27.6415 34.4731L29.9998 20.7278C30.5361 20.5622 30.9303 20.0229 30.9303 19.3844C30.9303 18.6146 30.3572 17.9883 29.6528 17.9883ZM17.6895 8.94758C17.7993 8.88534 17.9248 8.87353 18.0427 8.91441C18.1606 8.95523 18.257 9.04387 18.3139 9.1639L22.933 18.8973C22.99 19.0174 23.0008 19.1545 22.9634 19.2833C22.926 19.4123 22.8449 19.5175 22.735 19.5798C22.6252 19.6421 22.4998 19.6538 22.3818 19.613C22.2638 19.5722 22.1675 19.4835 22.1106 19.3635L17.4916 9.63001C17.374 9.38224 17.4628 9.07609 17.6895 8.94758ZM23.1115 20.7807L22.7262 25.1224H17.4394V20.7807H23.1115ZM17.0322 10.5951L21.3878 19.7731C21.407 19.8137 21.4279 19.8529 21.4504 19.8907H12.6141C12.6365 19.8529 12.6575 19.8137 12.6767 19.7732L13.1014 18.8783H19.2988C19.5237 18.8783 19.706 18.6791 19.706 18.4333C19.706 18.1876 19.5237 17.9883 19.2988 17.9883H13.5237L17.0322 10.5951ZM11.1314 18.8973L15.7505 9.16384C15.8074 9.04381 15.9038 8.95517 16.0217 8.91435C16.0679 8.89833 16.1152 8.89044 16.1622 8.89044C16.2355 8.89044 16.3081 8.90967 16.3749 8.94752C16.6017 9.07609 16.6905 9.38218 16.5729 9.62995L11.9538 19.3634C11.8968 19.4834 11.8005 19.5721 11.6825 19.6129C11.5647 19.6537 11.4392 19.6419 11.3293 19.5796C11.2195 19.5174 11.1384 19.4122 11.101 19.2832C11.0636 19.1544 11.0744 19.0174 11.1314 18.8973ZM4.90225 20.7807H10.1348L10.5201 25.1224H5.64716L4.90225 20.7807ZM5.79987 26.0123H10.5991L10.9844 30.354H6.54473L5.79987 26.0123ZM8.10631 35.1101C7.67428 35.1101 7.30294 34.7733 7.22335 34.3092L6.69744 31.244H11.0633L11.4064 35.1101H8.10631ZM16.6251 35.1101H12.2245L11.8814 31.244H16.6251V35.1101ZM16.6251 30.354H11.8025L11.4172 26.0123H16.6251V30.354ZM16.6251 25.1224H11.3382L10.9529 20.7807H16.6251V25.1224ZM21.8399 35.1101H17.4394V31.244H22.183L21.8399 35.1101ZM22.262 30.3541H17.4394V26.0124H22.6473L22.262 30.3541ZM26.8411 34.3092C26.7615 34.7733 26.3901 35.1101 25.9581 35.1101H22.658L23.0011 31.244H27.367L26.8411 34.3092ZM27.5197 30.3541H23.0801L23.4654 26.0124H28.2646L27.5197 30.3541ZM28.4173 25.1224H23.5444L23.9297 20.7806H29.1622L28.4173 25.1224ZM29.6528 19.8907H29.6462C29.6459 19.8907 29.6457 19.8907 29.6454 19.8907H23.5926C23.6542 19.7867 23.7045 19.6736 23.7397 19.5523C23.8039 19.3308 23.8166 19.1005 23.779 18.8783H29.6528C29.9082 18.8783 30.116 19.1054 30.116 19.3845C30.116 19.6636 29.9082 19.8907 29.6528 19.8907Z" fill="black"/>
<circle cx="32.5324" cy="17" r="9" fill="#609416"/>
<path d="M29.217 16.6938C29.217 15.5089 29.3378 14.5564 29.5793 13.8364C29.8254 13.1118 30.1877 12.5535 30.6662 12.1616C31.1493 11.7696 31.7554 11.5737 32.4846 11.5737C33.0223 11.5737 33.494 11.683 33.8996 11.9018C34.3052 12.116 34.6402 12.4282 34.9045 12.8383C35.1688 13.2439 35.3762 13.7407 35.5266 14.3286C35.677 14.9119 35.7522 15.7003 35.7522 16.6938C35.7522 17.8696 35.6314 18.8198 35.3898 19.5444C35.1483 20.2644 34.786 20.8227 34.3029 21.2192C33.8244 21.6111 33.2183 21.8071 32.4846 21.8071C31.5184 21.8071 30.7596 21.4607 30.2082 20.768C29.5474 19.934 29.217 18.5759 29.217 16.6938ZM30.4816 16.6938C30.4816 18.339 30.6731 19.435 31.0559 19.9819C31.4432 20.5242 31.9195 20.7953 32.4846 20.7953C33.0497 20.7953 33.5236 20.5219 33.9065 19.975C34.2938 19.4282 34.4875 18.3344 34.4875 16.6938C34.4875 15.044 34.2938 13.948 33.9065 13.4057C33.5236 12.8634 33.0451 12.5922 32.4709 12.5922C31.9058 12.5922 31.4546 12.8315 31.1174 13.31C30.6936 13.9207 30.4816 15.0486 30.4816 16.6938Z" fill="white"/>
</svg>
