<svg width="18" height="18" viewBox="0 0 18 18" fill="none" xmlns="http://www.w3.org/2000/svg">
<path d="M10.4164 9L17.5941 0.444141C17.7144 0.301953 17.6133 0.0859375 17.4273 0.0859375H15.2453C15.1168 0.0859375 14.9937 0.143359 14.909 0.241797L8.98904 7.29922L3.06912 0.241797C2.98708 0.143359 2.86404 0.0859375 2.73279 0.0859375H0.550756C0.364819 0.0859375 0.263647 0.301953 0.383959 0.444141L7.56169 9L0.383959 17.5559C0.357008 17.5876 0.339718 17.6263 0.334141 17.6675C0.328564 17.7088 0.334934 17.7507 0.352496 17.7884C0.370058 17.8262 0.398073 17.858 0.433216 17.8803C0.46836 17.9026 0.509154 17.9143 0.550756 17.9141H2.73279C2.8613 17.9141 2.98435 17.8566 3.06912 17.7582L8.98904 10.7008L14.909 17.7582C14.991 17.8566 15.114 17.9141 15.2453 17.9141H17.4273C17.6133 17.9141 17.7144 17.698 17.5941 17.5559L10.4164 9Z" fill="#35510C"/>
</svg>
