<svg width="45" height="44" viewBox="0 0 45 44" fill="none" xmlns="http://www.w3.org/2000/svg">
<circle cx="22.5" cy="22" r="22" fill="#E8D749"/>
<path d="M27.865 18.1668C28.0409 18.0241 28.2991 18.051 28.4419 18.227C28.6076 18.4313 28.8273 18.5438 29.0606 18.5438C29.2939 18.5438 29.5135 18.4313 29.6792 18.227C29.8219 18.0511 30.0803 18.0242 30.2561 18.1668C30.4321 18.3095 30.459 18.5678 30.3164 18.7437C29.9966 19.138 29.5389 19.3642 29.0606 19.3642C28.5823 19.3642 28.1246 19.138 27.8048 18.7437C27.6621 18.5678 27.689 18.3095 27.865 18.1668Z" fill="#609416"/>
<path d="M30.9351 15.7319C31.1616 15.7319 31.3452 15.9156 31.3452 16.1421V16.6107C31.3452 16.8372 31.1616 17.0209 30.9351 17.0209C30.7085 17.0209 30.5249 16.8372 30.5249 16.6107V16.1421C30.5249 15.9156 30.7085 15.7319 30.9351 15.7319Z" fill="#609416"/>
<path d="M27.186 15.7319C27.4125 15.7319 27.5962 15.9156 27.5962 16.1421V16.6107C27.5962 16.8372 27.4126 17.0209 27.186 17.0209C26.9595 17.0209 26.7759 16.8372 26.7759 16.6107V16.1421C26.7759 15.9156 26.9595 15.7319 27.186 15.7319Z" fill="#609416"/>
<path d="M14.2749 20.5096C14.4509 20.3669 14.7091 20.3938 14.8518 20.5698C15.0175 20.7741 15.2373 20.8866 15.4705 20.8866C15.7038 20.8866 15.9235 20.7741 16.0892 20.5698C16.2318 20.3939 16.4902 20.3669 16.6661 20.5096C16.842 20.6523 16.8689 20.9106 16.7262 21.0865C16.4065 21.4808 15.9488 21.7069 15.4705 21.7069C14.9922 21.7069 14.5345 21.4808 14.2148 21.0865C14.0721 20.9106 14.099 20.6523 14.2749 20.5096Z" fill="#609416"/>
<path d="M17.3452 18.0752C17.5717 18.0752 17.7554 18.2588 17.7554 18.4854V18.954C17.7554 19.1805 17.5717 19.3641 17.3452 19.3641C17.1187 19.3641 16.9351 19.1805 16.9351 18.954V18.4854C16.9351 18.2588 17.1187 18.0752 17.3452 18.0752Z" fill="#609416"/>
<path d="M13.5962 18.0752C13.8227 18.0752 14.0063 18.2588 14.0063 18.4854V18.954C14.0063 19.1805 13.8228 19.3641 13.5962 19.3641C13.3697 19.3641 13.186 19.1805 13.186 18.954V18.4854C13.186 18.2588 13.3697 18.0752 13.5962 18.0752Z" fill="#609416"/>
<path d="M9.64139 26.1861L12.8547 24.9008C12.8721 24.8939 12.8881 24.885 12.9044 24.8765C10.6851 24.3715 9.63395 23.527 9.5873 23.4888C9.47634 23.3978 9.42094 23.2555 9.44123 23.1135C9.44588 23.081 9.90575 19.8248 9.90575 16.6109C9.90575 13.5424 12.4022 11.0459 15.4707 11.0459C18.5393 11.0459 21.0357 13.5423 21.0357 16.6109C21.0357 17.4517 21.0738 18.48 21.1359 19.4535L22.0314 19.9012L24.6596 18.5872C24.6672 18.5834 24.6751 18.5806 24.6828 18.5774C24.5578 18.213 24.4761 17.8287 24.446 17.43C23.8963 17.2602 23.4957 16.7471 23.4957 16.1423C23.4957 15.7349 23.6777 15.3695 23.9643 15.1222V12.3933C23.9643 11.6394 24.3452 10.934 24.9698 10.5102C25.1815 9.72379 25.888 9.17139 26.7176 9.17139H30.4665C32.5014 9.17139 34.157 10.827 34.157 12.8619V15.1221C34.4436 15.3694 34.6256 15.7349 34.6256 16.1422C34.6256 16.7471 34.225 17.2601 33.6753 17.43C33.5717 18.8069 32.8621 20.0168 31.8139 20.7954V21.9291L35.2059 22.9467C35.9799 23.179 36.5 23.8779 36.5 24.6861V29.2635C36.5 29.49 36.3164 29.6737 36.0898 29.6737H36.0314V34.4183C36.0314 34.6449 35.8477 34.8285 35.6212 34.8285C35.3947 34.8285 35.2111 34.6449 35.2111 34.4183V29.6737H33.6883V34.4183C33.6883 34.6449 33.5046 34.8285 33.2781 34.8285C33.0516 34.8285 32.868 34.6449 32.868 34.4183V27.3461C32.868 26.9864 32.9735 26.638 33.173 26.3388L33.8741 25.2871C33.9997 25.0986 34.2544 25.0478 34.4428 25.1733C34.6313 25.2989 34.6822 25.5536 34.5566 25.7421L33.8555 26.7938C33.7461 26.9579 33.6882 27.1489 33.6882 27.3461V28.8534H35.6212H35.6797V24.6861C35.6797 24.243 35.3945 23.8598 34.9701 23.7324L33.562 23.31C33.0717 25.3631 31.2095 26.862 29.0605 26.862C28.2885 26.862 27.5387 26.6716 26.8673 26.3093C26.622 26.6441 26.2262 26.862 25.7803 26.862H25.7218V26.9204C25.7218 28.2954 24.9654 29.4964 23.8473 30.1313V30.8003C23.8473 30.8254 23.8634 30.8477 23.8873 30.8557L25.4173 31.3657C26.16 31.6133 26.659 32.3056 26.659 33.0886V34.4183C26.659 34.6449 26.4754 34.8285 26.2489 34.8285C26.0224 34.8285 25.8387 34.6449 25.8387 34.4183V33.0886C25.8387 32.6593 25.5651 32.2797 25.1579 32.144L24.708 31.994C24.1128 32.8817 23.1117 33.4227 22.0314 33.4227C20.9498 33.4227 19.9497 32.882 19.3546 31.994L18.9048 32.144C18.4976 32.2797 18.224 32.6593 18.224 33.0886V34.4183C18.224 34.6449 18.0403 34.8285 17.8138 34.8285C17.5873 34.8285 17.4037 34.6449 17.4037 34.4183V33.0886C17.4037 32.3056 17.9027 31.6133 18.6454 31.3658L20.1754 30.8558C20.1993 30.8478 20.2154 30.8255 20.2154 30.8003V30.1313C19.3783 29.656 18.7447 28.8632 18.4789 27.9175C17.7038 28.7285 16.6213 29.2052 15.4708 29.2052C13.6545 29.2052 12.0608 28.0311 11.5119 26.3216L9.94622 26.9478C9.56598 27.0999 9.32032 27.4628 9.32032 27.8723V29.7907H9.37878H10.8431V29.2636C10.8431 29.0371 11.0267 28.8534 11.2533 28.8534C11.4798 28.8534 11.6634 29.0371 11.6634 29.2636V34.4184C11.6634 34.6449 11.4798 34.8286 11.2533 34.8286C11.0267 34.8286 10.8431 34.6449 10.8431 34.4184V30.611H9.78894V34.4184C9.78894 34.6449 9.6053 34.8286 9.37878 34.8286C9.15226 34.8286 8.96862 34.6449 8.96862 34.4184V30.611H8.91016C8.80138 30.611 8.6971 30.5678 8.62015 30.4909C8.5432 30.4139 8.5 30.3097 8.5 30.2008V27.8723C8.49984 27.1253 8.94789 26.4635 9.64139 26.1861ZM20.2153 16.6108C20.2153 13.9946 18.0868 11.8662 15.4706 11.8662C12.8544 11.8662 10.726 13.9946 10.726 16.6108C10.726 19.3651 10.3943 22.1493 10.2865 22.9808C10.6541 23.2213 11.5952 23.7509 13.186 24.0989V23.4462C12.9681 23.3227 12.7595 23.1818 12.5634 23.0233C11.7563 22.3709 11.186 21.4573 10.9576 20.4507C10.8815 20.1153 10.8429 19.7694 10.8429 19.4226C10.8429 17.1043 12.5194 16.7715 14.1408 16.4496C15.1725 16.2448 16.2393 16.033 17.0888 15.3534C17.2119 15.2549 17.3806 15.2357 17.5227 15.304C17.6649 15.3723 17.7552 15.516 17.7552 15.6737C17.7552 15.6846 17.7731 16.7638 19.319 17.1503C19.5388 17.2052 19.6724 17.4279 19.6174 17.6477C19.5625 17.8675 19.3398 18.001 19.12 17.9462C17.8261 17.6227 17.2983 16.8968 17.083 16.3515C16.1936 16.8785 15.1972 17.0763 14.3006 17.2543C12.5676 17.5983 11.6632 17.8511 11.6632 19.4227C11.6632 19.7085 11.695 19.9933 11.7576 20.2692C11.9454 21.0969 12.4147 21.8484 13.0791 22.3854C13.7627 22.938 14.5897 23.23 15.4706 23.23C16.2737 23.23 17.0379 22.9837 17.6865 22.5183C17.9241 21.8697 18.3058 21.2764 18.8094 20.7875V18.9541C18.8094 18.8119 18.883 18.6798 19.0039 18.6051C19.1249 18.5304 19.2758 18.5236 19.403 18.5872L20.2886 19.03C20.24 18.1758 20.2153 17.3637 20.2153 16.6108ZM19.6297 19.6176V21.102L21.1142 20.3598L19.6297 19.6176ZM24.4329 19.6176L22.9485 20.3598L24.4329 21.102V19.6176ZM26.659 24.1087V24.4983C26.9527 24.7518 27.1277 25.1229 27.1277 25.5145C27.7118 25.8596 28.3755 26.0417 29.0606 26.0417C30.8447 26.0417 32.3883 24.7861 32.7744 23.0737L31.7611 22.7697C31.5112 24.0324 30.3955 24.9875 29.0605 24.9875C28.0005 24.9875 27.0791 24.385 26.6192 23.5048C26.6455 23.704 26.659 23.9057 26.659 24.1087ZM30.9935 22.2336V21.2835C30.4049 21.5553 29.7502 21.7071 29.0605 21.7071C28.3709 21.7071 27.7162 21.5552 27.1276 21.2835V22.2342C27.1276 23.3 27.9947 24.1671 29.0605 24.1671C30.1246 24.1671 30.9905 23.3028 30.9934 22.2394C30.9934 22.2375 30.9935 22.2355 30.9935 22.2336ZM29.0605 20.8868C31.16 20.8868 32.868 19.1789 32.868 17.0795C32.868 16.8529 33.0516 16.6693 33.2781 16.6693C33.5687 16.6693 33.8052 16.4328 33.8052 16.1422C33.8052 15.8516 33.5688 15.6151 33.2781 15.6151H32.3409C32.1643 15.6151 32.0076 15.5022 31.9518 15.3347L31.5753 14.2053C30.6328 14.184 27.7108 14.0515 26.0655 13.2288C25.8628 13.1274 25.7807 12.8811 25.882 12.6785C25.9833 12.4759 26.2296 12.3938 26.4323 12.4951C28.1977 13.3778 31.8358 13.389 31.8724 13.389C32.0489 13.3891 32.2056 13.502 32.2614 13.6695L32.6365 14.7949H33.2781C33.2977 14.7949 33.3172 14.7955 33.3366 14.7964V12.8619C33.3366 11.2793 32.049 9.9917 30.4664 9.9917H26.7174C26.2277 9.9917 25.8162 10.3447 25.7389 10.831C25.7193 10.9546 25.6443 11.0624 25.5353 11.1239C25.0722 11.3851 24.7845 11.8714 24.7845 12.3932V14.7962C24.8039 14.7954 24.8233 14.7948 24.843 14.7948H25.3116C25.5381 14.7948 25.7217 14.9784 25.7217 15.2049C25.7217 15.4314 25.5381 15.6151 25.3116 15.6151H24.843C24.5524 15.6151 24.3159 15.8515 24.3159 16.1422C24.3159 16.4328 24.5523 16.6693 24.843 16.6693C25.0695 16.6693 25.2531 16.8529 25.2531 17.0794C25.2531 19.1788 26.9611 20.8868 29.0605 20.8868ZM26.3073 22.2343V20.7954C25.8993 20.4923 25.5427 20.1241 25.2532 19.7056V20.7874C25.7125 21.2333 26.0705 21.766 26.3102 22.3484C26.3087 22.3105 26.3073 22.2725 26.3073 22.2343ZM20.1731 31.7211C20.6246 32.2728 21.303 32.6023 22.0313 32.6023C22.7588 32.6023 23.4375 32.2726 23.8893 31.7211L23.6279 31.634C23.2684 31.5142 23.0269 31.1791 23.0269 30.8003V30.4734C22.71 30.5624 22.3763 30.611 22.0312 30.611C21.6862 30.611 21.3525 30.5624 21.0355 30.4734V30.8003C21.0356 31.1791 20.7941 31.5142 20.4347 31.6339L20.1731 31.7211ZM18.7509 26.0417C18.9774 26.0417 19.1611 26.2253 19.1611 26.4518V26.8596C19.1611 26.8632 19.1611 26.8667 19.1611 26.8703V26.9204C19.1611 28.503 20.4487 29.7906 22.0313 29.7906C23.6139 29.7906 24.9014 28.503 24.9014 26.9204V26.4518C24.9014 26.2253 25.0851 26.0417 25.3116 26.0417H25.7802C26.0708 26.0417 26.3073 25.8052 26.3073 25.5146C26.3073 25.3275 26.2083 25.1583 26.0425 25.0618C26.0055 25.0403 25.9733 25.013 25.9454 24.9821C24.9315 24.9528 21.6448 24.762 19.4847 23.5276C19.288 23.4152 19.2197 23.1647 19.3321 22.968C19.4445 22.7713 19.6951 22.703 19.8917 22.8153C21.784 23.8966 24.7575 24.1131 25.8387 24.1564V24.1087C25.8387 23.3459 25.6077 22.6071 25.1891 21.9843C25.1563 22.0362 25.1125 22.0812 25.0586 22.1145C24.9927 22.1552 24.9179 22.1758 24.843 22.1758C24.7803 22.1758 24.7175 22.1614 24.6595 22.1325L22.0312 20.8183L19.4029 22.1325C19.345 22.1614 19.2822 22.1758 19.2195 22.1758C19.1445 22.1758 19.0697 22.1552 19.0039 22.1145C18.95 22.0812 18.9062 22.0361 18.8735 21.9843C18.4549 22.6071 18.2239 23.3459 18.2239 24.1087V24.7073C18.2239 24.8533 18.1463 24.9884 18.02 25.0618C17.8542 25.1583 17.7552 25.3275 17.7552 25.5146C17.7552 25.8052 17.9917 26.0417 18.2823 26.0417H18.7509ZM15.4706 28.3847C16.6062 28.3847 17.6597 27.8066 18.2729 26.8617C17.5343 26.8567 16.9349 26.2544 16.9349 25.5146C16.9349 25.1231 17.1099 24.7519 17.4036 24.4983V24.1088C17.4036 23.9437 17.4125 23.7795 17.4299 23.6168C16.8217 23.902 16.1577 24.0502 15.4706 24.0502C14.9705 24.0502 14.4759 23.9674 14.0063 23.8108V24.4114C14.0063 24.9656 13.6739 25.4567 13.1593 25.6624L12.2749 26.0162C12.6988 27.4178 13.9932 28.3847 15.4706 28.3847Z" fill="#609416"/>
<path d="M20.8357 27.5389C21.0116 27.3962 21.2699 27.4231 21.4126 27.5991C21.5783 27.8034 21.798 27.9159 22.0313 27.9159C22.2645 27.9159 22.4842 27.8034 22.6499 27.5991C22.7926 27.4232 23.051 27.3962 23.2268 27.5389C23.4028 27.6816 23.4297 27.9399 23.2871 28.1158C22.9672 28.51 22.5096 28.7362 22.0313 28.7362C21.553 28.7362 21.0953 28.5101 20.7755 28.1158C20.6328 27.9399 20.6598 27.6816 20.8357 27.5389Z" fill="#609416"/>
<path d="M23.4297 26.395C23.2032 26.395 23.0195 26.2114 23.0195 25.9849C23.0195 25.7583 23.2032 25.5747 23.4297 25.5747C23.6562 25.5747 23.8398 25.7583 23.8398 25.9849C23.8398 26.2114 23.6562 26.395 23.4297 26.395Z" fill="#609416"/>
<path d="M20.6406 26.395C20.4141 26.395 20.2305 26.2114 20.2305 25.9849C20.2305 25.7583 20.4141 25.5747 20.6406 25.5747C20.8671 25.5747 21.0508 25.7583 21.0508 25.9849C21.0508 26.2114 20.8671 26.395 20.6406 26.395Z" fill="#609416"/>
</svg>
