<svg width="45" height="44" viewBox="0 0 45 44" fill="none" xmlns="http://www.w3.org/2000/svg">
<circle cx="22.8333" cy="22" r="22" fill="#D5D5D5"/>
<path d="M28.1983 18.1668C28.3742 18.0241 28.6325 18.051 28.7752 18.227C28.9409 18.4313 29.1606 18.5438 29.3939 18.5438C29.6272 18.5438 29.8469 18.4313 30.0126 18.227C30.1552 18.0511 30.4136 18.0242 30.5895 18.1668C30.7654 18.3095 30.7923 18.5678 30.6497 18.7437C30.3299 19.138 29.8722 19.3642 29.3939 19.3642C28.9156 19.3642 28.4579 19.138 28.1381 18.7437C27.9954 18.5678 28.0224 18.3095 28.1983 18.1668Z" fill="#808080"/>
<path d="M31.2684 15.7319C31.4949 15.7319 31.6785 15.9156 31.6785 16.1421V16.6107C31.6785 16.8372 31.4949 17.0209 31.2684 17.0209C31.0419 17.0209 30.8582 16.8372 30.8582 16.6107V16.1421C30.8582 15.9156 31.0419 15.7319 31.2684 15.7319Z" fill="#808080"/>
<path d="M27.5193 15.7319C27.7459 15.7319 27.9295 15.9156 27.9295 16.1421V16.6107C27.9295 16.8372 27.7459 17.0209 27.5193 17.0209C27.2928 17.0209 27.1092 16.8372 27.1092 16.6107V16.1421C27.1092 15.9156 27.2928 15.7319 27.5193 15.7319Z" fill="#808080"/>
<path d="M14.6084 20.5096C14.7843 20.3669 15.0426 20.3938 15.1853 20.5698C15.351 20.7741 15.5707 20.8866 15.8039 20.8866C16.0372 20.8866 16.2569 20.7741 16.4226 20.5698C16.5653 20.3939 16.8236 20.3669 16.9995 20.5096C17.1755 20.6523 17.2024 20.9106 17.0597 21.0865C16.74 21.4808 16.2822 21.7069 15.8039 21.7069C15.3256 21.7069 14.868 21.4808 14.5482 21.0865C14.4055 20.9106 14.4324 20.6523 14.6084 20.5096Z" fill="#808080"/>
<path d="M17.6784 18.0752C17.9049 18.0752 18.0886 18.2588 18.0886 18.4854V18.954C18.0886 19.1805 17.9049 19.3641 17.6784 19.3641C17.4519 19.3641 17.2682 19.1805 17.2682 18.954V18.4854C17.2682 18.2588 17.4519 18.0752 17.6784 18.0752Z" fill="#808080"/>
<path d="M13.9295 18.0752C14.156 18.0752 14.3397 18.2588 14.3397 18.4854V18.954C14.3397 19.1805 14.1561 19.3641 13.9295 19.3641C13.703 19.3641 13.5193 19.1805 13.5193 18.954V18.4854C13.5193 18.2588 13.703 18.0752 13.9295 18.0752Z" fill="#808080"/>
<path d="M9.9747 26.1861L13.188 24.9008C13.2054 24.8939 13.2215 24.885 13.2378 24.8765C11.0184 24.3715 9.96727 23.527 9.92062 23.4888C9.80966 23.3978 9.75426 23.2555 9.77454 23.1135C9.77919 23.081 10.2391 19.8248 10.2391 16.6109C10.2391 13.5424 12.7355 11.0459 15.804 11.0459C18.8726 11.0459 21.369 13.5423 21.369 16.6109C21.369 17.4517 21.4071 18.48 21.4693 19.4535L22.3647 19.9012L24.993 18.5872C25.0005 18.5834 25.0084 18.5806 25.0162 18.5774C24.8911 18.213 24.8094 17.8287 24.7794 17.43C24.2296 17.2602 23.829 16.7471 23.829 16.1423C23.829 15.7349 24.011 15.3695 24.2976 15.1222V12.3933C24.2976 11.6394 24.6785 10.934 25.3032 10.5102C25.5148 9.72379 26.2214 9.17139 27.0509 9.17139H30.7998C32.8348 9.17139 34.4903 10.827 34.4903 12.8619V15.1221C34.7769 15.3694 34.9589 15.7349 34.9589 16.1422C34.9589 16.7471 34.5584 17.2601 34.0086 17.43C33.905 18.8069 33.1954 20.0168 32.1472 20.7954V21.9291L35.5392 22.9467C36.3132 23.179 36.8333 23.8779 36.8333 24.6861V29.2635C36.8333 29.49 36.6497 29.6737 36.4232 29.6737H36.3647V34.4183C36.3647 34.6449 36.1811 34.8285 35.9545 34.8285C35.728 34.8285 35.5444 34.6449 35.5444 34.4183V29.6737H34.0216V34.4183C34.0216 34.6449 33.838 34.8285 33.6114 34.8285C33.3849 34.8285 33.2013 34.6449 33.2013 34.4183V27.3461C33.2013 26.9864 33.3068 26.638 33.5063 26.3388L34.2074 25.2871C34.333 25.0986 34.5877 25.0478 34.7761 25.1733C34.9646 25.2989 35.0155 25.5536 34.8899 25.7421L34.1888 26.7938C34.0794 26.9579 34.0215 27.1489 34.0215 27.3461V28.8534H35.9545H36.013V24.6861C36.013 24.243 35.7279 23.8598 35.3034 23.7324L33.8953 23.31C33.405 25.3631 31.5428 26.862 29.3939 26.862C28.6218 26.862 27.8721 26.6716 27.2007 26.3093C26.9553 26.6441 26.5595 26.862 26.1136 26.862H26.0551V26.9204C26.0551 28.2954 25.2987 29.4964 24.1806 30.1313V30.8003C24.1806 30.8254 24.1967 30.8477 24.2206 30.8557L25.7506 31.3657C26.4933 31.6133 26.9923 32.3056 26.9923 33.0886V34.4183C26.9923 34.6449 26.8087 34.8285 26.5822 34.8285C26.3557 34.8285 26.172 34.6449 26.172 34.4183V33.0886C26.172 32.6593 25.8984 32.2797 25.4912 32.144L25.0413 31.994C24.4461 32.8817 23.445 33.4227 22.3647 33.4227C21.2832 33.4227 20.283 32.882 19.6879 31.994L19.2381 32.144C18.8309 32.2797 18.5573 32.6593 18.5573 33.0886V34.4183C18.5573 34.6449 18.3737 34.8285 18.1471 34.8285C17.9206 34.8285 17.737 34.6449 17.737 34.4183V33.0886C17.737 32.3056 18.236 31.6133 18.9787 31.3658L20.5087 30.8558C20.5326 30.8478 20.5487 30.8255 20.5487 30.8003V30.1313C19.7116 29.656 19.078 28.8632 18.8122 27.9175C18.0371 28.7285 16.9546 29.2052 15.8041 29.2052C13.9878 29.2052 12.3941 28.0311 11.8452 26.3216L10.2795 26.9478C9.89929 27.0999 9.65363 27.4628 9.65363 27.8723V29.7907H9.71209H11.1764V29.2636C11.1764 29.0371 11.3601 28.8534 11.5866 28.8534C11.8131 28.8534 11.9967 29.0371 11.9967 29.2636V34.4184C11.9967 34.6449 11.8131 34.8286 11.5866 34.8286C11.3601 34.8286 11.1764 34.6449 11.1764 34.4184V30.611H10.1222V34.4184C10.1222 34.6449 9.93861 34.8286 9.71209 34.8286C9.48557 34.8286 9.30193 34.6449 9.30193 34.4184V30.611H9.24347C9.1347 30.611 9.03041 30.5678 8.95346 30.4909C8.87652 30.4139 8.83331 30.3097 8.83331 30.2008V27.8723C8.83315 27.1253 9.28121 26.4635 9.9747 26.1861ZM20.5486 16.6108C20.5486 13.9946 18.4201 11.8662 15.8039 11.8662C13.1877 11.8662 11.0593 13.9946 11.0593 16.6108C11.0593 19.3651 10.7276 22.1493 10.6199 22.9808C10.9874 23.2213 11.9285 23.7509 13.5193 24.0989V23.4462C13.3014 23.3227 13.0928 23.1818 12.8967 23.0233C12.0896 22.3709 11.5193 21.4573 11.2909 20.4507C11.2148 20.1153 11.1762 19.7694 11.1762 19.4226C11.1762 17.1043 12.8528 16.7715 14.4741 16.4496C15.5058 16.2448 16.5726 16.033 17.4221 15.3534C17.5452 15.2549 17.7139 15.2357 17.856 15.304C17.9982 15.3723 18.0885 15.516 18.0885 15.6737C18.0885 15.6846 18.1064 16.7638 19.6523 17.1503C19.8721 17.2052 20.0057 17.4279 19.9507 17.6477C19.8958 17.8675 19.6731 18.001 19.4534 17.9462C18.1594 17.6227 17.6316 16.8968 17.4163 16.3515C16.5269 16.8785 15.5305 17.0763 14.6339 17.2543C12.9009 17.5983 11.9965 17.8511 11.9965 19.4227C11.9965 19.7085 12.0283 19.9933 12.0909 20.2692C12.2788 21.0969 12.748 21.8484 13.4124 22.3854C14.096 22.938 14.923 23.23 15.8039 23.23C16.607 23.23 17.3712 22.9837 18.0198 22.5183C18.2574 21.8697 18.6391 21.2764 19.1427 20.7875V18.9541C19.1427 18.8119 19.2163 18.6798 19.3373 18.6051C19.4582 18.5304 19.6091 18.5236 19.7363 18.5872L20.6219 19.03C20.5733 18.1758 20.5486 17.3637 20.5486 16.6108ZM19.9631 19.6176V21.102L21.4475 20.3598L19.9631 19.6176ZM24.7662 19.6176L23.2818 20.3598L24.7662 21.102V19.6176ZM26.9923 24.1087V24.4983C27.286 24.7518 27.461 25.1229 27.461 25.5145C28.0451 25.8596 28.7088 26.0417 29.3939 26.0417C31.178 26.0417 32.7216 24.7861 33.1078 23.0737L32.0944 22.7697C31.8445 24.0324 30.7288 24.9875 29.3939 24.9875C28.3338 24.9875 27.4125 24.385 26.9525 23.5048C26.9788 23.704 26.9923 23.9057 26.9923 24.1087ZM31.3268 22.2336V21.2835C30.7382 21.5553 30.0835 21.7071 29.3939 21.7071C28.7042 21.7071 28.0495 21.5552 27.4609 21.2835V22.2342C27.4609 23.3 28.328 24.1671 29.3939 24.1671C30.4579 24.1671 31.3238 23.3028 31.3267 22.2394C31.3267 22.2375 31.3268 22.2355 31.3268 22.2336ZM29.3939 20.8868C31.4933 20.8868 33.2013 19.1789 33.2013 17.0795C33.2013 16.8529 33.3849 16.6693 33.6114 16.6693C33.902 16.6693 34.1385 16.4328 34.1385 16.1422C34.1385 15.8516 33.9021 15.6151 33.6114 15.6151H32.6742C32.4977 15.6151 32.3409 15.5022 32.2851 15.3347L31.9086 14.2053C30.9661 14.184 28.0442 14.0515 26.3988 13.2288C26.1961 13.1274 26.114 12.8811 26.2153 12.6785C26.3166 12.4759 26.5629 12.3938 26.7656 12.4951C28.531 13.3778 32.1692 13.389 32.2057 13.389C32.3822 13.3891 32.539 13.502 32.5947 13.6695L32.9698 14.7949H33.6114C33.631 14.7949 33.6505 14.7955 33.6699 14.7964V12.8619C33.6699 11.2793 32.3823 9.9917 30.7997 9.9917H27.0508C26.561 9.9917 26.1495 10.3447 26.0722 10.831C26.0526 10.9546 25.9776 11.0624 25.8686 11.1239C25.4055 11.3851 25.1178 11.8714 25.1178 12.3932V14.7962C25.1372 14.7954 25.1566 14.7948 25.1763 14.7948H25.6449C25.8714 14.7948 26.0551 14.9784 26.0551 15.2049C26.0551 15.4314 25.8714 15.6151 25.6449 15.6151H25.1763C24.8857 15.6151 24.6492 15.8515 24.6492 16.1422C24.6492 16.4328 24.8856 16.6693 25.1763 16.6693C25.4028 16.6693 25.5864 16.8529 25.5864 17.0794C25.5864 19.1788 27.2944 20.8868 29.3939 20.8868ZM26.6407 22.2343V20.7954C26.2326 20.4923 25.876 20.1241 25.5865 19.7056V20.7874C26.0458 21.2333 26.4039 21.766 26.6435 22.3484C26.642 22.3105 26.6407 22.2725 26.6407 22.2343ZM20.5064 31.7211C20.9579 32.2728 21.6363 32.6023 22.3646 32.6023C23.0921 32.6023 23.7709 32.2726 24.2226 31.7211L23.9612 31.634C23.6018 31.5142 23.3603 31.1791 23.3603 30.8003V30.4734C23.0433 30.5624 22.7096 30.611 22.3646 30.611C22.0195 30.611 21.6858 30.5624 21.3689 30.4734V30.8003C21.3689 31.1791 21.1275 31.5142 20.768 31.6339L20.5064 31.7211ZM19.0842 26.0417C19.3107 26.0417 19.4944 26.2253 19.4944 26.4518V26.8596C19.4944 26.8632 19.4944 26.8667 19.4944 26.8703V26.9204C19.4944 28.503 20.782 29.7906 22.3646 29.7906C23.9472 29.7906 25.2347 28.503 25.2347 26.9204V26.4518C25.2347 26.2253 25.4184 26.0417 25.6449 26.0417H26.1135C26.4041 26.0417 26.6406 25.8052 26.6406 25.5146C26.6406 25.3275 26.5416 25.1583 26.3759 25.0618C26.3388 25.0403 26.3066 25.013 26.2787 24.9821C25.2648 24.9528 21.9781 24.762 19.818 23.5276C19.6214 23.4152 19.553 23.1647 19.6654 22.968C19.7778 22.7713 20.0284 22.703 20.225 22.8153C22.1173 23.8966 25.0908 24.1131 26.172 24.1564V24.1087C26.172 23.3459 25.941 22.6071 25.5224 21.9843C25.4896 22.0362 25.4458 22.0812 25.3919 22.1145C25.326 22.1552 25.2513 22.1758 25.1763 22.1758C25.1136 22.1758 25.0508 22.1614 24.9929 22.1325L22.3646 20.8183L19.7363 22.1325C19.6783 22.1614 19.6155 22.1758 19.5528 22.1758C19.4778 22.1758 19.403 22.1552 19.3372 22.1145C19.2833 22.0812 19.2395 22.0361 19.2068 21.9843C18.7882 22.6071 18.5572 23.3459 18.5572 24.1087V24.7073C18.5572 24.8533 18.4796 24.9884 18.3533 25.0618C18.1875 25.1583 18.0885 25.3275 18.0885 25.5146C18.0885 25.8052 18.325 26.0417 18.6156 26.0417H19.0842ZM15.8039 28.3847C16.9395 28.3847 17.993 27.8066 18.6062 26.8617C17.8676 26.8567 17.2683 26.2544 17.2683 25.5146C17.2683 25.1231 17.4432 24.7519 17.7369 24.4983V24.1088C17.7369 23.9437 17.7458 23.7795 17.7632 23.6168C17.155 23.902 16.491 24.0502 15.8039 24.0502C15.3038 24.0502 14.8092 23.9674 14.3396 23.8108V24.4114C14.3396 24.9656 14.0072 25.4567 13.4927 25.6624L12.6082 26.0162C13.0321 27.4178 14.3265 28.3847 15.8039 28.3847Z" fill="#808080"/>
<path d="M21.169 27.5389C21.3449 27.3962 21.6032 27.4231 21.7459 27.5991C21.9117 27.8034 22.1313 27.9159 22.3646 27.9159C22.5978 27.9159 22.8176 27.8034 22.9833 27.5991C23.1259 27.4232 23.3843 27.3962 23.5602 27.5389C23.7361 27.6816 23.7631 27.9399 23.6204 28.1158C23.3006 28.51 22.8429 28.7362 22.3646 28.7362C21.8863 28.7362 21.4286 28.5101 21.1088 28.1158C20.9662 27.9399 20.9931 27.6816 21.169 27.5389Z" fill="#808080"/>
<path d="M23.763 26.395C23.5365 26.395 23.3528 26.2114 23.3528 25.9849C23.3528 25.7583 23.5365 25.5747 23.763 25.5747C23.9895 25.5747 24.1732 25.7583 24.1732 25.9849C24.1732 26.2114 23.9895 26.395 23.763 26.395Z" fill="#808080"/>
<path d="M20.9738 26.395C20.7473 26.395 20.5637 26.2114 20.5637 25.9849C20.5637 25.7583 20.7473 25.5747 20.9738 25.5747C21.2003 25.5747 21.384 25.7583 21.384 25.9849C21.384 26.2114 21.2003 26.395 20.9738 26.395Z" fill="#808080"/>
</svg>
