<svg width="45" height="44" viewBox="0 0 45 44" fill="none" xmlns="http://www.w3.org/2000/svg">
<circle cx="22.8333" cy="22" r="22" fill="#D5D5D5"/>
<path d="M13.2493 33.7221V35.5333C13.2493 35.791 13.4405 36 13.6763 36C13.9121 36 14.1033 35.791 14.1033 35.5333V33.6667C14.1033 33.5514 14.1033 33.3372 10.7788 24.4937C10.7182 24.3285 10.6871 24.1519 10.6873 23.9739V12.2009C10.6873 11.9429 10.8785 11.7342 11.1143 11.7342H11.9683C12.2041 11.7342 12.3953 11.9429 12.3953 12.2009V18.353C11.8853 18.5501 11.5436 19.076 11.5413 19.6672C11.5413 19.6985 11.5442 19.7297 11.5499 19.7604L12.4039 24.4269C12.4126 24.4761 12.4287 24.5235 12.4518 24.5671L14.1598 27.8336C14.2334 27.9824 14.3752 28.076 14.5301 28.0783C14.685 28.0804 14.8289 27.9906 14.9058 27.8436C14.9829 27.6967 14.9811 27.5155 14.901 27.3706L13.2276 24.1681L12.3953 19.629C12.4137 19.3863 12.5996 19.1997 12.8223 19.2006H13.6571C13.8616 19.369 14.0249 19.5902 14.1325 19.8445L15.4022 24.47C15.426 24.5566 15.4723 24.6336 15.5354 24.6919C17.7776 26.7634 20.9352 30.1958 20.9352 31.3335V35.5333C20.9352 35.791 21.1264 36 21.3622 36C21.5981 36 21.7892 35.791 21.7892 35.5333V31.3335C21.7892 29.4108 17.3229 25.1269 16.1841 24.0671L14.9394 19.5333C14.9323 19.5075 14.9233 19.4827 14.9125 19.4585C14.7865 19.1789 14.3168 18.2673 13.6763 18.2673H13.2493V12.2009C13.2493 11.4275 12.6759 10.8009 11.9683 10.8009H11.1143C10.4069 10.8009 9.83332 11.4275 9.83332 12.2009V23.9739C9.83269 24.2731 9.88503 24.5696 9.9876 24.8469C11.2215 28.1271 13.0785 33.1215 13.2493 33.7221Z" fill="#808080"/>
<path d="M34.1722 10.8009H33.3182C32.6108 10.8009 32.0372 11.4275 32.0372 12.2009V18.2673H31.6102C30.9697 18.2673 30.5023 19.1789 30.372 19.4585C30.3613 19.4827 30.3524 19.5075 30.3451 19.5333L29.1004 24.0671C27.9637 25.1269 23.4973 29.4108 23.4973 31.3335V35.5333C23.4973 35.791 23.6885 36 23.9243 36C24.1601 36 24.3513 35.791 24.3513 35.5333V31.3335C24.3513 30.1958 27.5112 26.7634 29.7511 24.6896C29.8143 24.6313 29.8605 24.5541 29.8843 24.4675L31.1543 19.8422C31.262 19.5948 31.4176 19.3758 31.6102 19.2006H32.4642C32.6871 19.1997 32.8731 19.3863 32.8912 19.629L32.0604 24.1681L30.3857 27.367C30.3057 27.5119 30.3038 27.6928 30.3807 27.8398C30.4579 27.9867 30.6015 28.0765 30.7567 28.0744C30.9116 28.0724 31.0533 27.9787 31.1269 27.8297L32.8349 24.5632C32.8579 24.5199 32.8741 24.4725 32.8827 24.4233L33.7367 19.7568C33.7423 19.7272 33.745 19.6973 33.7452 19.6672C33.7431 19.076 33.4012 18.5501 32.8912 18.353V12.2009C32.8912 11.9429 33.0824 11.7342 33.3182 11.7342H34.1722C34.408 11.7342 34.5992 11.9429 34.5992 12.2009V23.9739C34.5996 24.1505 34.569 24.3258 34.5091 24.49C31.1832 33.3372 31.1832 33.5514 31.1832 33.6667V35.5333C31.1832 35.791 31.3744 36 31.6102 36C31.846 36 32.0372 35.791 32.0372 35.5333V33.7221C32.2082 33.1215 34.0651 28.1271 35.3004 24.8409C35.4019 24.5652 35.4538 24.2708 35.4532 23.9739V12.2009C35.4532 11.4275 34.8798 10.8009 34.1722 10.8009Z" fill="#808080"/>
<path d="M27.7672 20.134C28.003 20.134 28.1942 19.9251 28.1942 19.6674V11.2677C28.1942 11.0097 28.003 10.801 27.7672 10.801H27.2208L26.4641 8.32013C26.4251 8.19139 26.3367 8.08726 26.2219 8.03531C26.107 7.98359 25.9773 7.98883 25.8664 8.05012L23.5302 9.32816C23.0365 8.80318 22.25 8.80318 21.7565 9.32816L19.4183 8.05012C19.3076 7.98974 19.1783 7.98473 19.064 8.03668C18.9498 8.0884 18.8616 8.19185 18.8226 8.32013L18.066 10.801H17.5193C17.2835 10.801 17.0923 11.0097 17.0923 11.2677V19.6674C17.0923 19.9251 17.2835 20.134 17.5193 20.134H27.7672ZM26.9132 11.7343H27.3402V19.2007H24.3513V11.7343H26.9132ZM23.9243 10.3344V10.156L25.8099 9.1256L26.3207 10.801H23.9243V10.3344ZM20.9353 19.2007H17.9463V11.7343H20.9353V19.2007ZM21.3623 10.3344V10.801H18.9661L19.4785 9.1256L21.3623 10.156V10.3344ZM22.2163 10.3344C22.2163 10.0764 22.4075 9.86773 22.6433 9.86773C22.8791 9.86773 23.0703 10.0764 23.0703 10.3344V10.801H22.2163V10.3344ZM23.4973 19.2007H21.7893V11.7343H23.4973V19.2007Z" fill="#808080"/>
</svg>
