<svg width="44" height="44" viewBox="0 0 44 44" fill="none" xmlns="http://www.w3.org/2000/svg">
<circle cx="22" cy="22" r="22" fill="#E8D749"/>
<path d="M12.416 33.7221V35.5333C12.416 35.791 12.6072 36 12.843 36C13.0788 36 13.27 35.791 13.27 35.5333V33.6667C13.27 33.5514 13.27 33.3372 9.94553 24.4937C9.88486 24.3285 9.85379 24.1519 9.854 23.9739V12.2009C9.854 11.9429 10.0452 11.7342 10.281 11.7342H11.135C11.3708 11.7342 11.562 11.9429 11.562 12.2009V18.353C11.052 18.5501 10.7103 19.076 10.708 19.6672C10.708 19.6985 10.7109 19.7297 10.7165 19.7604L11.5705 24.4269C11.5793 24.4761 11.5953 24.5235 11.6185 24.5671L13.3265 27.8336C13.4001 27.9824 13.5419 28.076 13.6968 28.0783C13.8517 28.0804 13.9955 27.9906 14.0725 27.8436C14.1496 27.6967 14.1477 27.5155 14.0677 27.3706L12.3943 24.1681L11.562 19.629C11.5803 19.3863 11.7663 19.1997 11.989 19.2006H12.8238C13.0283 19.369 13.1916 19.5902 13.2992 19.8445L14.5689 24.47C14.5927 24.5566 14.639 24.6336 14.7021 24.6919C16.9443 26.7634 20.1019 30.1958 20.1019 31.3335V35.5333C20.1019 35.791 20.2931 36 20.5289 36C20.7647 36 20.9559 35.791 20.9559 35.5333V31.3335C20.9559 29.4108 16.4896 25.1269 15.3508 24.0671L14.106 19.5333C14.099 19.5075 14.09 19.4827 14.0791 19.4585C13.9532 19.1789 13.4835 18.2673 12.843 18.2673H12.416V12.2009C12.416 11.4275 11.8426 10.8009 11.135 10.8009H10.281C9.57357 10.8009 9.00001 11.4275 9.00001 12.2009V23.9739C8.99938 24.2731 9.05171 24.5696 9.15429 24.8469C10.3882 28.1271 12.2452 33.1215 12.416 33.7221Z" fill="#609416"/>
<path d="M33.339 10.8009H32.485C31.7776 10.8009 31.204 11.4275 31.204 12.2009V18.2673H30.777C30.1365 18.2673 29.6691 19.1789 29.5388 19.4585C29.5281 19.4827 29.5192 19.5075 29.5119 19.5333L28.2672 24.0671C27.1304 25.1269 22.6641 29.4108 22.6641 31.3335V35.5333C22.6641 35.791 22.8553 36 23.0911 36C23.3269 36 23.5181 35.791 23.5181 35.5333V31.3335C23.5181 30.1958 26.678 26.7634 28.9179 24.6896C28.981 24.6313 29.0273 24.5541 29.0511 24.4675L30.321 19.8422C30.4288 19.5948 30.5844 19.3758 30.777 19.2006H31.631C31.8539 19.1997 32.0399 19.3863 32.058 19.629L31.2272 24.1681L29.5525 27.367C29.4725 27.5119 29.4706 27.6928 29.5475 27.8398C29.6247 27.9867 29.7683 28.0765 29.9234 28.0744C30.0783 28.0724 30.2201 27.9787 30.2937 27.8297L32.0017 24.5632C32.0246 24.5199 32.0409 24.4725 32.0495 24.4233L32.9035 19.7568C32.9091 19.7272 32.9118 19.6973 32.912 19.6672C32.9099 19.076 32.568 18.5501 32.058 18.353V12.2009C32.058 11.9429 32.2492 11.7342 32.485 11.7342H33.339C33.5748 11.7342 33.766 11.9429 33.766 12.2009V23.9739C33.7664 24.1505 33.7358 24.3258 33.6759 24.49C30.35 33.3372 30.35 33.5514 30.35 33.6667V35.5333C30.35 35.791 30.5412 36 30.777 36C31.0128 36 31.204 35.791 31.204 35.5333V33.7221C31.375 33.1215 33.2318 28.1271 34.4672 24.8409C34.5687 24.5652 34.6206 24.2708 34.62 23.9739V12.2009C34.62 11.4275 34.0466 10.8009 33.339 10.8009Z" fill="#609416"/>
<path d="M26.9337 20.134C27.1695 20.134 27.3607 19.9251 27.3607 19.6674V11.2677C27.3607 11.0097 27.1695 10.801 26.9337 10.801H26.3872L25.6306 8.32013C25.5916 8.19139 25.5032 8.08726 25.3883 8.03531C25.2735 7.98359 25.1438 7.98883 25.0329 8.05012L22.6967 9.32816C22.203 8.80318 21.4165 8.80318 20.923 9.32816L18.5848 8.05012C18.474 7.98974 18.3448 7.98473 18.2305 8.03668C18.1163 8.0884 18.0281 8.19185 17.9891 8.32013L17.2325 10.801H16.6858C16.45 10.801 16.2588 11.0097 16.2588 11.2677V19.6674C16.2588 19.9251 16.45 20.134 16.6858 20.134H26.9337ZM26.0797 11.7343H26.5067V19.2007H23.5177V11.7343H26.0797ZM23.0907 10.3344V10.156L24.9764 9.1256L25.4872 10.801H23.0907V10.3344ZM20.1018 19.2007H17.1128V11.7343H20.1018V19.2007ZM20.5288 10.3344V10.801H18.1325L18.645 9.1256L20.5288 10.156V10.3344ZM21.3827 10.3344C21.3827 10.0764 21.5739 9.86773 21.8097 9.86773C22.0456 9.86773 22.2367 10.0764 22.2367 10.3344V10.801H21.3827V10.3344ZM22.6637 19.2007H20.9558V11.7343H22.6637V19.2007Z" fill="#609416"/>
</svg>
