<svg width="65" height="66" viewBox="0 0 65 66" fill="none" xmlns="http://www.w3.org/2000/svg">
<circle cx="32.5" cy="32.5015" r="32" fill="#609416" stroke="#8BB155"/>
<path d="M29.8173 45.8348C29.6465 42.5012 27.8073 39.4782 24.9253 37.7942L20.32 32.6775C19.7006 31.9757 18.7399 31.6805 17.8333 31.9135V23.1682C17.8333 21.6954 16.6394 20.5015 15.1667 20.5015C13.6939 20.5015 12.5 21.6954 12.5 23.1682V35.7862C12.5007 36.8062 12.7606 37.8094 13.2553 38.7015L19.1667 49.3408V51.8348C19.1667 52.2029 19.4651 52.5014 19.8333 52.5014H29.1666C29.5348 52.5014 29.8333 52.2029 29.8333 51.8348V45.8348H29.8173ZM28.5 51.1681H20.5V49.1681C20.5 49.0547 20.4711 48.9432 20.416 48.8441L14.4207 38.0528C14.0362 37.3592 13.8341 36.5792 13.8333 35.7862V23.1682C13.8333 22.4318 14.4302 21.8349 15.1667 21.8349C15.9031 21.8349 16.5 22.4318 16.5 23.1682V32.7368C15.6658 33.7062 15.685 35.1453 16.5447 36.0922L22.0066 42.1015L22.9933 41.2041L17.5313 35.1955C17.096 34.7167 17.1136 33.9802 17.5713 33.5228C18.0442 33.0496 18.8112 33.0492 19.2844 33.5222C19.2998 33.5376 19.3147 33.5533 19.3293 33.5695L24.0046 38.7642C24.0641 38.824 24.1314 38.8756 24.2046 38.9175C26.8579 40.4377 28.496 43.2602 28.5 46.3181V51.1681Z" fill="white"/>
<path d="M49.8331 20.5015C48.3604 20.5015 47.1665 21.6954 47.1665 23.1682V31.9135C46.9504 31.8588 46.7281 31.8324 46.5051 31.8348C45.8063 31.8504 45.1453 32.1553 44.6798 32.6768L40.0758 37.7922C37.1899 39.4734 35.3491 42.4991 35.1825 45.8348H35.1665V51.8348C35.1665 52.2029 35.465 52.5014 35.8332 52.5014H45.1665C45.5346 52.5014 45.8331 52.2029 45.8331 51.8348V49.3395L51.6711 38.7581C52.2134 37.8361 52.4995 36.7859 52.4998 35.7162V23.1682C52.4998 21.6954 51.3059 20.5015 49.8331 20.5015ZM51.1665 35.7162C51.1655 36.5542 50.9399 37.3768 50.5131 38.0982L44.5798 48.8461C44.5264 48.945 44.4989 49.0558 44.4998 49.1681V51.1681H36.4998V46.3181C36.508 43.2483 38.1601 40.4181 40.8292 38.9015C40.8912 38.8662 40.9473 38.8212 40.9952 38.7682L45.6705 33.5682C46.1195 33.0711 46.8864 33.0322 47.3835 33.4812C47.8806 33.9302 47.9195 34.6971 47.4705 35.1942L42.0065 41.2028L42.9932 42.1015L48.4551 36.0935C49.3156 35.1464 49.3347 33.7064 48.4998 32.7368V23.1682C48.4998 22.4318 49.0967 21.8349 49.8331 21.8349C50.5695 21.8349 51.1665 22.4318 51.1665 23.1682V35.7162Z" fill="white"/>
<path d="M40.4999 29.1681H39.1665C36.7751 29.1707 34.5353 30.3403 33.1666 32.3014V27.8348H33.8332C37.8813 27.83 41.1618 24.5495 41.1665 20.5014C41.1665 20.1333 40.868 19.8348 40.4999 19.8348H39.1665C36.7751 19.8374 34.5353 21.007 33.1666 22.9681V18.5015H33.8332C36.7774 18.4981 39.1632 16.1123 39.1665 13.1681C39.1665 12.8 38.868 12.5015 38.4999 12.5015H37.1666C35.2251 12.5026 33.4376 13.5588 32.4999 15.2588C31.5621 13.5588 29.7747 12.5026 27.8332 12.5015H26.4999C26.1317 12.5015 25.8332 12.8 25.8332 13.1681C25.8366 16.1123 28.2224 18.4981 31.1666 18.5015H31.8332V22.9681C30.4645 21.007 28.2247 19.8374 25.8332 19.8348H24.4999C24.1318 19.8348 23.8333 20.1333 23.8333 20.5014C23.838 24.5495 27.1185 27.83 31.1666 27.8348H31.8332V32.3014C30.4645 30.3403 28.2247 29.1707 25.8332 29.1681H24.4999C24.1318 29.1681 23.8333 29.4666 23.8333 29.8348C23.838 33.8828 27.1185 37.1633 31.1666 37.1681H31.8332V42.5014H33.1666V37.1681H33.8332C37.8813 37.1633 41.1618 33.8828 41.1665 29.8348C41.1665 29.4666 40.868 29.1681 40.4999 29.1681ZM39.1665 21.1681H39.7965C39.4532 24.2032 36.8876 26.4978 33.8332 26.5014H33.2032C33.5466 23.4664 36.1121 21.1718 39.1665 21.1681ZM37.1666 13.8348H37.7779C37.45 15.7581 35.7843 17.1657 33.8332 17.1681H33.2219C33.5498 15.2448 35.2155 13.8372 37.1666 13.8348ZM31.1666 17.1681C29.2155 17.1657 27.5498 15.7581 27.2219 13.8348H27.8332C29.7843 13.8372 31.45 15.2448 31.7779 17.1681H31.1666ZM31.1666 26.5014C28.1122 26.4978 25.5466 24.2032 25.2032 21.1681H25.8332C28.8877 21.1718 31.4532 23.4664 31.7966 26.5014H31.1666ZM31.1666 35.8347C28.1122 35.8311 25.5466 33.5365 25.2032 30.5014H25.8332C28.8877 30.5051 31.4532 32.7997 31.7966 35.8347H31.1666ZM33.8332 35.8347H33.2032C33.5466 32.7997 36.1121 30.5051 39.1665 30.5014H39.7965C39.4532 33.5365 36.8876 35.8311 33.8332 35.8347Z" fill="white"/>
</svg>
