<svg width="65" height="66" viewBox="0 0 65 66" fill="none" xmlns="http://www.w3.org/2000/svg">
<circle cx="32.5" cy="32.5015" r="32" fill="#609416" stroke="#8BB155"/>
<path d="M36.2666 30.9874C36.0825 30.9874 35.906 31.0606 35.7758 31.1907C35.6456 31.3209 35.5725 31.4975 35.5725 31.6816C35.5725 31.8657 35.6456 32.0422 35.7758 32.1724C35.906 32.3026 36.0825 32.3757 36.2666 32.3757C36.3113 32.3772 36.3548 32.3904 36.3927 32.4141C36.4306 32.4377 36.4615 32.4709 36.4825 32.5104C36.4548 32.6923 36.5006 32.8778 36.6096 33.0261C36.7187 33.1744 36.8822 33.2732 37.0642 33.301C37.0991 33.3065 37.1344 33.3093 37.1697 33.3093C37.3356 33.309 37.4958 33.2494 37.6215 33.1411C37.7472 33.0329 37.8299 32.8833 37.8548 32.7193C37.8854 32.5123 37.8701 32.3012 37.8102 32.1008C37.7502 31.9004 37.647 31.7155 37.5077 31.5594C37.3541 31.3805 37.1637 31.2368 36.9495 31.1381C36.7354 31.0394 36.5025 30.988 36.2666 30.9874Z" fill="white"/>
<path d="M35.2761 25.4346C34.7455 25.4362 34.2265 25.5897 33.7804 25.8771C33.3343 26.1644 32.98 26.5736 32.7592 27.0561C32.237 25.7789 31.2682 24.7351 30.0334 24.1193C29.9518 24.0785 29.863 24.0542 29.772 24.0478C29.681 24.0414 29.5897 24.0529 29.5032 24.0818C29.4167 24.1107 29.3367 24.1563 29.2679 24.2161C29.199 24.2759 29.1426 24.3486 29.1018 24.4302C29.0611 24.5118 29.0368 24.6006 29.0304 24.6916C29.024 24.7826 29.0355 24.8739 29.0644 24.9604C29.0933 25.0469 29.1389 25.1269 29.1987 25.1957C29.2585 25.2646 29.3312 25.321 29.4128 25.3618C30.073 25.6905 30.6374 26.1838 31.0518 26.7939C31.4661 27.4041 31.7163 28.1107 31.7784 28.8456C31.0985 28.4356 30.3206 28.2165 29.5266 28.2112C28.7565 28.2113 27.9955 28.3778 27.2957 28.6994C26.5959 29.0209 25.9739 29.4899 25.4722 30.0742C24.9901 30.6306 24.6341 31.2847 24.4287 31.9916C24.2232 32.6985 24.1731 33.4415 24.2818 34.1696C24.38 34.8146 24.5789 35.4402 24.8711 36.0236L27.8489 41.9814C28.0433 42.3913 28.3403 42.7439 28.7112 43.0051C29.082 43.2663 29.5141 43.4272 29.9655 43.4721C30.4169 43.517 30.8723 43.4445 31.2873 43.2615C31.7024 43.0785 32.0631 42.7913 32.3344 42.4277L32.4996 42.2097L32.6141 42.3625C32.8581 42.7092 33.1821 42.992 33.5586 43.1869C33.9352 43.3818 34.3531 43.483 34.7771 43.4821C35.2658 43.4827 35.745 43.3465 36.1604 43.0889C36.5758 42.8313 36.9107 42.4625 37.1274 42.0244L39.6999 36.8802C39.7414 36.7986 39.7665 36.7095 39.7735 36.6182C39.7805 36.5268 39.7693 36.435 39.7407 36.348C39.712 36.261 39.6664 36.1805 39.6065 36.1112C39.5466 36.0419 39.4736 35.9851 39.3917 35.9442C39.3097 35.9032 39.2205 35.8789 39.1291 35.8726C39.0377 35.8663 38.9459 35.8781 38.8592 35.9075C38.7724 35.9368 38.6922 35.983 38.6234 36.0435C38.5546 36.1039 38.4984 36.1774 38.4581 36.2596L35.8856 41.4039C35.7577 41.6584 35.5467 41.8615 35.2875 41.9797C35.0283 42.0979 34.7366 42.1239 34.4605 42.0536C34.1628 41.9674 33.9034 41.782 33.7255 41.5281L33.0549 40.6362C32.9874 40.5543 32.9026 40.4883 32.8066 40.4431C32.7106 40.3978 32.6058 40.3743 32.4996 40.3743C32.3935 40.3743 32.2887 40.3978 32.1926 40.4431C32.0966 40.4883 32.0118 40.5543 31.9443 40.6362L31.2252 41.5947C31.0568 41.8197 30.8175 41.9812 30.546 42.0534C30.2744 42.1256 29.9865 42.1041 29.7286 41.9925C29.4477 41.8649 29.2218 41.6408 29.0921 41.3608L26.1136 35.4024C25.8862 34.9485 25.7314 34.4618 25.6548 33.96C25.5731 33.4295 25.6088 32.8876 25.7594 32.3725C25.9101 31.8573 26.172 31.3815 26.5266 30.9787C26.8978 30.5463 27.3581 30.1992 27.8759 29.9611C28.3937 29.7231 28.9568 29.5997 29.5266 29.5994C30.1906 29.602 30.8355 29.8213 31.3633 30.2242C31.6936 30.4715 32.0955 30.6044 32.5082 30.6027C32.9208 30.6009 33.3216 30.4646 33.6498 30.2144C34.1744 29.8168 34.8143 29.6009 35.4726 29.5994C36.0426 29.5996 36.6058 29.7229 37.1237 29.961C37.6417 30.199 38.102 30.5462 38.4733 30.9787C38.828 31.3815 39.0898 31.8573 39.2405 32.3725C39.3911 32.8876 39.4269 33.4295 39.3452 33.96C39.3213 34.1402 39.3692 34.3226 39.4784 34.4679C39.5876 34.6132 39.7494 34.7099 39.9292 34.7372C40.1089 34.7645 40.2922 34.7202 40.4396 34.6138C40.587 34.5074 40.6867 34.3474 40.7175 34.1682C40.8262 33.4401 40.7761 32.6971 40.5706 31.9902C40.3651 31.2833 40.0091 30.6292 39.527 30.0728C38.8873 29.3303 38.0557 28.778 37.1232 28.4763C37.7188 27.8395 38.0509 27.0007 38.0527 26.1288C38.0527 25.9447 37.9795 25.7681 37.8494 25.6379C37.7192 25.5078 37.5426 25.4346 37.3585 25.4346H35.2761ZM35.2761 26.8229H36.5457C36.4016 27.2286 36.1356 27.5798 35.784 27.8284C35.4324 28.0769 35.0126 28.2106 34.582 28.2112H33.8879C33.8879 27.843 34.0341 27.4899 34.2945 27.2295C34.5548 26.9692 34.908 26.8229 35.2761 26.8229Z" fill="white"/>
<path d="M29.5495 18.7244L29.092 21.376C29.07 21.5035 29.084 21.6347 29.1325 21.7547C29.1811 21.8746 29.2622 21.9786 29.3667 22.0549C29.4713 22.1313 29.5951 22.1768 29.7241 22.1865C29.8532 22.1962 29.9824 22.1696 30.0971 22.1097L32.4995 20.8533L34.9019 22.109C35.0167 22.1689 35.1459 22.1955 35.2749 22.1858C35.404 22.1761 35.5278 22.1306 35.6323 22.0543C35.7369 21.9779 35.818 21.8739 35.8665 21.754C35.9151 21.634 35.9291 21.5028 35.907 21.3753L35.4496 18.7237L37.3932 16.8447C37.4864 16.7544 37.5524 16.6398 37.5838 16.5139C37.6151 16.388 37.6106 16.2558 37.5706 16.1323C37.5306 16.0089 37.4568 15.8991 37.3576 15.8154C37.2584 15.7318 37.1378 15.6776 37.0093 15.6591L34.3244 15.2704L33.1243 12.8562C33.0603 12.7481 32.9694 12.6586 32.8603 12.5964C32.7512 12.5342 32.6279 12.5015 32.5023 12.5015C32.3768 12.5015 32.2534 12.5342 32.1443 12.5964C32.0353 12.6586 31.9443 12.7481 31.8804 12.8562L30.6781 15.2711L27.9932 15.6598C27.8648 15.6783 27.7441 15.7325 27.6449 15.8161C27.5457 15.8998 27.4719 16.0095 27.4319 16.133C27.392 16.2565 27.3874 16.3886 27.4188 16.5146C27.4501 16.6405 27.5162 16.7551 27.6094 16.8454L29.5495 18.7244ZM31.2369 16.5934C31.3481 16.5774 31.4537 16.5347 31.5448 16.469C31.6358 16.4032 31.7095 16.3163 31.7596 16.2158L32.4995 14.7248L33.2395 16.2158C33.2896 16.3163 33.3633 16.4032 33.4543 16.469C33.5454 16.5347 33.651 16.5774 33.7622 16.5934L35.4086 16.8308L34.2203 17.9824C34.1391 18.061 34.0783 18.1582 34.0432 18.2656C34.0082 18.373 33.9998 18.4874 34.019 18.5988L34.3043 20.2286L32.8244 19.4553C32.7252 19.4035 32.6149 19.3764 32.503 19.3764C32.3911 19.3764 32.2808 19.4035 32.1816 19.4553L30.6983 20.2286L30.9801 18.5981C30.9992 18.4867 30.9909 18.3723 30.9558 18.2649C30.9207 18.1575 30.86 18.0603 30.7788 17.9817L29.5904 16.8301L31.2369 16.5934Z" fill="white"/>
<path d="M40.3287 22.4724L39.9574 24.6242C39.9353 24.7517 39.9493 24.8829 39.9979 25.0028C40.0464 25.1228 40.1275 25.2268 40.2321 25.3031C40.3366 25.3794 40.4604 25.425 40.5895 25.4347C40.7185 25.4444 40.8477 25.4177 40.9625 25.3579L42.9116 24.3382L44.8607 25.3565C44.9755 25.4164 45.1047 25.443 45.2337 25.4333C45.3628 25.4236 45.4866 25.3781 45.5911 25.3017C45.6956 25.2254 45.7768 25.1214 45.8253 25.0014C45.8738 24.8815 45.8879 24.7503 45.8658 24.6228L45.4945 22.471L47.0667 20.948C47.1601 20.8578 47.2263 20.7432 47.2578 20.6173C47.2893 20.4913 47.2849 20.359 47.2449 20.2354C47.205 20.1119 47.1313 20.002 47.032 19.9183C46.9328 19.8345 46.812 19.7803 46.6835 19.7618L44.5081 19.4494L43.5363 17.4913C43.4724 17.3832 43.3814 17.2937 43.2724 17.2315C43.1633 17.1692 43.0399 17.1365 42.9144 17.1365C42.7888 17.1365 42.6654 17.1692 42.5564 17.2315C42.4473 17.2937 42.3563 17.3832 42.2924 17.4913L41.3206 19.4494L39.1431 19.7632C39.0146 19.7817 38.8939 19.8359 38.7946 19.9196C38.6954 20.0034 38.6216 20.1133 38.5817 20.2368C38.5418 20.3604 38.5373 20.4927 38.5688 20.6186C38.6004 20.7446 38.6666 20.8592 38.76 20.9494L40.3287 22.4724ZM41.8759 20.7717C41.9872 20.7556 42.093 20.7127 42.184 20.6467C42.2751 20.5807 42.3487 20.4935 42.3986 20.3927L42.9116 19.3599L43.4245 20.3927C43.4745 20.4935 43.5481 20.5807 43.6391 20.6467C43.7302 20.7127 43.8359 20.7556 43.9472 20.7717L45.0856 20.9362L44.2651 21.7303C44.1838 21.809 44.123 21.9063 44.0879 22.0139C44.0528 22.1214 44.0446 22.2359 44.0638 22.3474L44.2582 23.4761L43.233 22.9395C43.1337 22.888 43.0235 22.8611 42.9116 22.8611C42.7997 22.8611 42.6895 22.888 42.5902 22.9395L41.565 23.4761L41.7593 22.3474C41.7786 22.2359 41.7703 22.1214 41.7352 22.0139C41.7002 21.9063 41.6393 21.809 41.558 21.7303L40.7376 20.9362L41.8759 20.7717Z" fill="white"/>
<path d="M19.5047 22.4724L19.1334 24.6242C19.1113 24.7517 19.1254 24.8829 19.1739 25.0028C19.2224 25.1228 19.3036 25.2268 19.4081 25.3031C19.5126 25.3794 19.6364 25.425 19.7655 25.4347C19.8945 25.4444 20.0237 25.4177 20.1385 25.3579L22.0876 24.3382L24.0367 25.3565C24.1515 25.4164 24.2807 25.443 24.4097 25.4333C24.5388 25.4236 24.6626 25.3781 24.7671 25.3017C24.8717 25.2254 24.9528 25.1214 25.0013 25.0014C25.0499 24.8815 25.0639 24.7503 25.0418 24.6228L24.6705 22.471L26.2427 20.948C26.3361 20.8578 26.4023 20.7432 26.4338 20.6173C26.4653 20.4913 26.4609 20.359 26.421 20.2354C26.3811 20.1119 26.3073 20.002 26.208 19.9183C26.1088 19.8345 25.988 19.7803 25.8595 19.7618L23.6841 19.4494L22.7123 17.4913C22.6484 17.3832 22.5574 17.2937 22.4484 17.2315C22.3393 17.1692 22.2159 17.1365 22.0904 17.1365C21.9648 17.1365 21.8414 17.1692 21.7324 17.2315C21.6233 17.2937 21.5324 17.3832 21.4684 17.4913L20.4967 19.4494L18.3192 19.7632C18.1906 19.7817 18.0699 19.8359 17.9706 19.9196C17.8714 20.0034 17.7976 20.1133 17.7577 20.2368C17.7178 20.3604 17.7134 20.4927 17.7449 20.6186C17.7764 20.7446 17.8426 20.8592 17.936 20.9494L19.5047 22.4724ZM21.052 20.7717C21.1633 20.7556 21.269 20.7127 21.36 20.6467C21.4511 20.5807 21.5247 20.4935 21.5746 20.3927L22.0876 19.3599L22.6006 20.3927C22.6505 20.4935 22.7241 20.5807 22.8152 20.6467C22.9062 20.7127 23.0119 20.7556 23.1233 20.7717L24.2616 20.9362L23.4412 21.7303C23.3599 21.809 23.299 21.9063 23.2639 22.0139C23.2289 22.1214 23.2206 22.2359 23.2399 22.3474L23.4342 23.4761L22.409 22.9395C22.3097 22.888 22.1995 22.8611 22.0876 22.8611C21.9757 22.8611 21.8655 22.888 21.7662 22.9395L20.741 23.4761L20.9353 22.3474C20.9546 22.2359 20.9464 22.1214 20.9113 22.0139C20.8762 21.9063 20.8153 21.809 20.734 21.7303L19.9136 20.9362L21.052 20.7717Z" fill="white"/>
<path d="M46.0927 28.0357C46.0528 28.1592 46.0483 28.2913 46.0797 28.4172C46.1111 28.5431 46.1772 28.6576 46.2704 28.7479L47.4754 29.9154L47.1908 31.5633C47.1688 31.6908 47.1828 31.822 47.2314 31.942C47.2799 32.0619 47.361 32.1659 47.4656 32.2423C47.5701 32.3186 47.6939 32.3641 47.8229 32.3738C47.952 32.3835 48.0812 32.3569 48.1959 32.297L49.6911 31.5161L51.1856 32.297C51.3003 32.3569 51.4295 32.3835 51.5586 32.3738C51.6876 32.3641 51.8114 32.3186 51.916 32.2423C52.0205 32.1659 52.1016 32.0619 52.1502 31.942C52.1987 31.822 52.2127 31.6908 52.1907 31.5633L51.9068 29.9154L53.1153 28.7479C53.2087 28.6577 53.2749 28.5431 53.3064 28.4171C53.3379 28.2911 53.3334 28.1589 53.2935 28.0353C53.2536 27.9117 53.1799 27.8018 53.0806 27.7181C52.9814 27.6344 52.8606 27.5802 52.7321 27.5616L51.062 27.3214L50.3158 25.8193C50.252 25.7113 50.1611 25.6217 50.0521 25.5595C49.9431 25.4973 49.8197 25.4645 49.6942 25.4645C49.5687 25.4645 49.4454 25.4973 49.3364 25.5595C49.2274 25.6217 49.1365 25.7113 49.0726 25.8193L48.3257 27.3214L46.6598 27.5616C46.5302 27.5792 46.4082 27.633 46.3079 27.7169C46.2076 27.8008 46.133 27.9113 46.0927 28.0357ZM48.8824 28.6438C48.9936 28.6276 49.0992 28.5846 49.1901 28.5186C49.2811 28.4526 49.3546 28.3655 49.4044 28.2648L49.6911 27.6886L49.9778 28.2655C50.0278 28.3661 50.1014 28.4531 50.1925 28.519C50.2835 28.5849 50.3892 28.6277 50.5005 28.6438L51.1307 28.7347L50.6775 29.1734C50.5963 29.252 50.5355 29.3492 50.5004 29.4566C50.4653 29.5641 50.457 29.6784 50.4762 29.7898L50.5845 30.4145L50.0118 30.1153C49.9127 30.0636 49.8025 30.0366 49.6908 30.0366C49.579 30.0366 49.4688 30.0636 49.3697 30.1153L48.7978 30.4145L48.906 29.7898C48.9252 29.6784 48.9169 29.5641 48.8818 29.4566C48.8467 29.3492 48.7859 29.252 48.7047 29.1734L48.2515 28.7347L48.8824 28.6438Z" fill="white"/>
<path d="M13.0923 29.9157L12.8084 31.5636C12.7863 31.6911 12.8004 31.8223 12.8489 31.9422C12.8975 32.0622 12.9786 32.1662 13.0831 32.2425C13.1877 32.3188 13.3114 32.3644 13.4405 32.3741C13.5696 32.3837 13.6988 32.3571 13.8135 32.2973L15.308 31.5164L16.8031 32.2973C16.9179 32.3571 17.0471 32.3837 17.1761 32.3741C17.3052 32.3644 17.429 32.3188 17.5335 32.2425C17.6381 32.1662 17.7192 32.0622 17.7677 31.9422C17.8163 31.8223 17.8303 31.6911 17.8082 31.5636L17.5237 29.9157L18.7287 28.7482C18.8221 28.6579 18.8883 28.5433 18.9198 28.4172C18.9512 28.2912 18.9467 28.1589 18.9067 28.0353C18.8668 27.9117 18.7929 27.8018 18.6936 27.7182C18.5942 27.6345 18.4734 27.5803 18.3448 27.5619L16.6733 27.3217L15.9299 25.8203C15.8724 25.7046 15.7838 25.6073 15.674 25.5392C15.5641 25.4712 15.4375 25.4351 15.3083 25.4351C15.1791 25.4351 15.0525 25.4712 14.9427 25.5392C14.8329 25.6073 14.7442 25.7046 14.6867 25.8203L13.9405 27.3217L12.2705 27.5619C12.1419 27.5804 12.0212 27.6347 11.9219 27.7184C11.8227 27.8021 11.7489 27.912 11.709 28.0356C11.6691 28.1591 11.6647 28.2914 11.6962 28.4174C11.7277 28.5434 11.7939 28.658 11.8873 28.7482L13.0923 29.9157ZM14.4986 28.6441C14.6099 28.628 14.7155 28.5852 14.8066 28.5193C14.8976 28.4534 14.9713 28.3664 15.0213 28.2657L15.308 27.6889L15.5947 28.2651C15.6445 28.3658 15.718 28.4529 15.809 28.5189C15.8999 28.5849 16.0055 28.6278 16.1166 28.6441L16.7476 28.735L16.2943 29.1737C16.2132 29.2523 16.1524 29.3495 16.1173 29.4569C16.0822 29.5643 16.0739 29.6787 16.093 29.7901L16.2013 30.4148L15.6321 30.1177C15.5329 30.0664 15.4228 30.0396 15.3111 30.0396C15.1994 30.0396 15.0893 30.0664 14.9901 30.1177L14.4174 30.4169L14.5257 29.7921C14.5448 29.6808 14.5365 29.5664 14.5014 29.459C14.4664 29.3516 14.4056 29.2544 14.3244 29.1758L13.8711 28.7371L14.4986 28.6441Z" fill="white"/>
<path d="M39.3812 47.3649C39.3442 47.2816 39.2911 47.2063 39.225 47.1435C39.159 47.0807 39.0812 47.0315 38.9961 46.9988C38.911 46.966 38.8203 46.9504 38.7291 46.9527C38.638 46.955 38.5482 46.9752 38.4649 47.0123C36.5866 47.8457 34.5544 48.2763 32.4995 48.2763C30.4446 48.2763 28.4125 47.8457 26.5341 47.0123C26.3663 46.9404 26.177 46.9376 26.0072 47.0044C25.8373 47.0711 25.7005 47.2021 25.6265 47.3689C25.5525 47.5357 25.5472 47.725 25.6117 47.8957C25.6762 48.0665 25.8054 48.2049 25.9712 48.2811C28.027 49.1929 30.251 49.6639 32.4999 49.6639C34.7488 49.6639 36.9727 49.1929 39.0285 48.2811C39.1119 48.2441 39.1871 48.1911 39.2499 48.125C39.3127 48.0589 39.3619 47.9811 39.3946 47.896C39.4274 47.811 39.443 47.7203 39.4407 47.6291C39.4384 47.538 39.4182 47.4482 39.3812 47.3649Z" fill="white"/>
<path d="M50.8663 41.6687L52.9397 40.6358C53.0607 40.5753 53.1614 40.4807 53.2293 40.3636C53.2973 40.2466 53.3296 40.1123 53.3222 39.9772C53.3148 39.8421 53.2681 39.7121 53.1878 39.6032C53.1075 39.4942 52.9972 39.4112 52.8703 39.3642L49.2698 38.0099C47.8557 37.4803 46.2977 37.4803 44.8836 38.0099C43.8601 38.393 42.9564 39.0405 42.2645 39.8864C41.5727 40.7324 41.1174 41.7466 40.9451 42.8258C38.2923 44.0297 35.4128 44.6526 32.4996 44.6526C29.5864 44.6526 26.7068 44.0297 24.054 42.8258C23.8817 41.7467 23.4265 40.7326 22.7348 39.8866C22.0431 39.0407 21.1396 38.3931 20.1162 38.0099C18.7021 37.4803 17.1441 37.4803 15.73 38.0099L12.126 39.3607C11.9992 39.4077 11.8888 39.4908 11.8085 39.5997C11.7282 39.7086 11.6815 39.8386 11.6741 39.9737C11.6668 40.1088 11.699 40.2432 11.767 40.3602C11.8349 40.4772 11.9356 40.5718 12.0566 40.6323L14.1328 41.6687L11.7922 45.1789C11.7224 45.2834 11.6824 45.4049 11.6763 45.5305C11.6702 45.656 11.6983 45.7808 11.7575 45.8916C11.8168 46.0024 11.9051 46.095 12.0129 46.1596C12.1207 46.2242 12.244 46.2583 12.3697 46.2583C12.4528 46.2581 12.5353 46.2433 12.6133 46.2145L16.2173 44.8631C16.9552 44.5881 17.749 44.4966 18.5301 44.5965C18.711 44.6161 18.8924 44.5638 19.0352 44.451C19.1779 44.3381 19.2707 44.1737 19.2934 43.9932C19.3162 43.8126 19.2671 43.6304 19.1568 43.4857C19.0465 43.3409 18.8838 43.2453 18.7037 43.2194C17.6992 43.0916 16.6788 43.2095 15.73 43.563L14.1411 44.1592L15.7237 41.7846C15.7784 41.7027 15.8151 41.6101 15.8312 41.5129C15.8474 41.4157 15.8426 41.3162 15.8173 41.221C15.7921 41.1258 15.7468 41.0371 15.6846 40.9607C15.6224 40.8843 15.5446 40.8221 15.4565 40.7781L14.105 40.102L16.2173 39.31C17.317 38.897 18.5292 38.897 19.6289 39.31C20.2439 39.5396 20.8051 39.8929 21.2779 40.3482C21.7508 40.8034 22.1251 41.3509 22.3777 41.9567C22.1695 41.8387 21.9612 41.7284 21.7613 41.602C21.6562 41.5364 21.5355 41.5 21.4116 41.4968C21.2878 41.4935 21.1653 41.5235 21.0569 41.5835C20.9486 41.6436 20.8582 41.7316 20.7953 41.8383C20.7325 41.9451 20.6993 42.0668 20.6993 42.1907V44.6652C20.6959 45.7255 20.964 46.769 21.478 47.6965C21.9919 48.6239 22.7346 49.4043 23.6355 49.9636C25.5973 51.1864 27.7909 51.9903 30.0783 52.3247C32.3657 52.6592 34.6976 52.517 36.9274 51.9071C37.1004 51.8545 37.2461 51.7365 37.3334 51.5782C37.4207 51.4199 37.4428 51.2337 37.395 51.0593C37.3471 50.885 37.2331 50.7361 37.0772 50.6445C36.9213 50.5529 36.7358 50.5258 36.5602 50.5688C34.5155 51.1278 32.3774 51.2583 30.2799 50.952C28.1824 50.6457 26.1708 49.9094 24.3713 48.7891C23.6701 48.354 23.0921 47.7465 22.6923 47.0246C22.2925 46.3027 22.0843 45.4904 22.0876 44.6652V43.4012C25.2836 45.1367 28.8627 46.0458 32.4996 46.0458C36.1364 46.0458 39.7155 45.1367 42.9116 43.4012V44.6652C42.9143 45.49 42.7059 46.3017 42.3061 47.023C41.9064 47.7444 41.3286 48.3514 40.6279 48.7863C40.1187 49.1007 39.5917 49.3851 39.0494 49.638C38.9669 49.677 38.893 49.7318 38.8317 49.7994C38.7705 49.8669 38.7231 49.9459 38.6924 50.0317C38.6616 50.1176 38.6481 50.2087 38.6525 50.2997C38.657 50.3908 38.6793 50.4801 38.7183 50.5626C38.7573 50.645 38.8121 50.719 38.8796 50.7803C38.9472 50.8415 39.0262 50.8889 39.112 50.9196C39.1979 50.9504 39.2889 50.9639 39.38 50.9595C39.4711 50.955 39.5604 50.9327 39.6429 50.8937C40.2343 50.6171 40.8091 50.3063 41.3643 49.9629C42.2651 49.4038 43.0077 48.6234 43.5216 47.6961C44.0354 46.7688 44.3033 45.7254 44.2998 44.6652V42.1907C44.2998 42.0668 44.2667 41.9451 44.2038 41.8383C44.1409 41.7316 44.0506 41.6436 43.9422 41.5835C43.8338 41.5235 43.7113 41.4935 43.5875 41.4968C43.4636 41.5 43.3429 41.5364 43.2378 41.602C43.0358 41.7284 42.8269 41.8387 42.6214 41.9567C42.8742 41.3509 43.2486 40.8034 43.7216 40.3481C44.1945 39.8929 44.7559 39.5395 45.3709 39.31C46.4706 38.897 47.6828 38.897 48.7825 39.31L50.8941 40.102L49.5419 40.7781C49.4538 40.8221 49.376 40.8843 49.3138 40.9607C49.2516 41.0371 49.2063 41.1258 49.1811 41.221C49.1558 41.3162 49.1511 41.4157 49.1672 41.5129C49.1833 41.6101 49.22 41.7027 49.2747 41.7846L50.8573 44.1592L49.2691 43.563C48.32 43.2097 47.2994 43.0918 46.2948 43.2194C46.1146 43.2453 45.9519 43.3409 45.8416 43.4857C45.7313 43.6304 45.6822 43.8126 45.705 43.9932C45.7277 44.1737 45.8205 44.3381 45.9632 44.451C46.106 44.5638 46.2874 44.6161 46.4683 44.5965C47.2497 44.4984 48.0432 44.5898 48.7818 44.8631L52.3851 46.2145C52.4633 46.2434 52.546 46.2582 52.6294 46.2583C52.7551 46.2583 52.8784 46.2242 52.9862 46.1596C53.094 46.095 53.1823 46.0024 53.2416 45.8916C53.3008 45.7808 53.3289 45.656 53.3228 45.5305C53.3167 45.4049 53.2767 45.2834 53.2069 45.1789L50.8663 41.6687Z" fill="white"/>
</svg>
