<svg width="65" height="66" viewBox="0 0 65 66" fill="none" xmlns="http://www.w3.org/2000/svg">
<circle cx="32.5" cy="32.5015" r="32.5" fill="#609416"/>
<path d="M49.5706 19.9258L48.6648 19.042C49.3188 18.4033 49.3188 17.3684 48.6648 16.7297C48.0019 16.1108 46.9575 16.1108 46.2946 16.7297L45.3906 15.8465C46.5496 14.746 48.3998 14.7586 49.5431 15.8746C50.6867 16.9903 50.6989 18.7954 49.5706 19.9258Z" fill="white"/>
<path d="M15.8438 40.0015H17.125V43.7515H15.8438V40.0015Z" fill="white"/>
<path d="M41.4688 45.0015V43.6721C42.5995 43.3862 43.3894 42.391 43.3906 41.2515V39.9221C44.5214 39.6362 45.3112 38.641 45.3125 37.5015V36.1727C46.5631 35.859 47.3792 34.6862 47.2165 33.4365C47.0539 32.1865 45.9631 31.2502 44.6719 31.2515H36.6641V26.564C36.6606 23.6315 34.2245 21.2548 31.2188 21.2515H30.5781V27.5015C30.5772 27.7719 30.4874 28.0346 30.3219 28.2516L27.9196 31.3766C27.6769 31.6903 27.2974 31.8755 26.8945 31.8765H24.1719V30.0015H12V31.2515H22.8906V41.2515H17.125V42.5015H22.8906V46.2515H12V47.5015H24.1719V45.6265H27.7044L31.5481 47.5015H38.9062C40.3214 47.5015 41.4688 46.3821 41.4688 45.0015ZM28.0066 44.3765H24.1719V33.1265H26.8945C27.7006 33.1243 28.4592 32.7542 28.9447 32.1264L31.3476 29.0014C31.6789 28.5681 31.8581 28.0422 31.8594 27.5015V22.5497C33.886 22.86 35.3803 24.5626 35.3828 26.564V32.5015H44.6719C45.3794 32.5015 45.9531 33.0612 45.9531 33.7515C45.9531 34.4418 45.3794 35.0015 44.6719 35.0015H39.8672V36.2515H44.0312V37.5015C44.0312 38.1918 43.4576 38.7515 42.75 38.7515H37.9453V40.0015H42.1094V41.2515C42.1094 41.9418 41.5357 42.5015 40.8281 42.5015H37.9453V43.7515H40.1875V45.0015C40.1875 45.6918 39.6138 46.2515 38.9062 46.2515H31.8503L28.0066 44.3765Z" fill="white"/>
<path d="M12 18.7515H20.9688V20.0015H12V18.7515Z" fill="white"/>
<path d="M12 15.6265H23.5312V16.8765H12V15.6265Z" fill="white"/>
<path d="M12 12.5015H26.0938V13.7515H12V12.5015Z" fill="white"/>
<path d="M44.0312 45.0015H53V46.2515H44.0312V45.0015Z" fill="white"/>
<path d="M41.4688 48.1265H53V49.3765H41.4688V48.1265Z" fill="white"/>
<path d="M38.9062 51.2515H53V52.5015H38.9062V51.2515Z" fill="white"/>
<path d="M44.0313 28.8665L51.3838 21.6933C53.4539 19.6716 53.5446 16.4245 51.5908 14.2956C49.6371 12.1664 46.3188 11.8972 44.0313 13.6822C41.7437 11.8972 38.4255 12.1664 36.4717 14.2956C34.5179 16.4245 34.6086 19.6716 36.6788 21.6933L44.0313 28.8665ZM37.5847 14.9627C39.2397 13.3477 41.9233 13.3477 43.5783 14.9627L44.0313 15.4046L44.4842 14.9627C45.554 13.9144 47.1162 13.5037 48.581 13.8854C50.0459 14.2672 51.1901 15.3835 51.5815 16.8127C51.9728 18.2418 51.5517 19.7659 50.4773 20.8096L44.0313 27.0983L37.5847 20.8096C35.9324 19.194 35.9324 16.5783 37.5847 14.9627Z" fill="white"/>
</svg>
