<svg width="65" height="66" viewBox="0 0 65 66" fill="none" xmlns="http://www.w3.org/2000/svg">
<circle cx="32.5" cy="32.5015" r="32.5" fill="#609416"/>
<path d="M51.8331 23.1681H47.5958C50.1757 21.0926 50.5846 17.3187 48.5091 14.7388C47.37 13.3229 45.6503 12.5001 43.8331 12.5015H37.9878C35.6109 12.5023 33.4587 13.906 32.4998 16.0808C31.5408 13.906 29.3886 12.5023 27.0118 12.5015H21.1664C17.8553 12.4989 15.169 15.181 15.1664 18.4921C15.165 20.3093 15.9878 22.029 17.4038 23.1681H13.1664C12.7983 23.1681 12.4998 23.4666 12.4998 23.8348V30.5015C12.4998 30.8696 12.7983 31.1681 13.1664 31.1681H14.4998V51.8348C14.4998 52.203 14.7983 52.5015 15.1664 52.5015H49.8331C50.2013 52.5015 50.4998 52.203 50.4998 51.8348V31.1681H51.8331C52.2013 31.1681 52.4998 30.8696 52.4998 30.5015V23.8348C52.4998 23.4666 52.2013 23.1681 51.8331 23.1681ZM42.6511 13.8901C42.7051 13.8821 42.7584 13.8715 42.8124 13.8648C42.9813 13.8455 43.1511 13.8355 43.3211 13.8348H43.8331C46.4092 13.8377 48.4969 15.9254 48.4998 18.5015C48.4969 21.0775 46.4092 23.1652 43.8331 23.1681H42.2671C44.8444 21.0912 45.2501 17.3182 43.1732 14.7409C42.9382 14.4492 42.6764 14.1803 42.3911 13.9375C42.4771 13.9195 42.5638 13.9035 42.6511 13.8901ZM40.9211 14.5301C43.1207 15.8614 43.8246 18.7237 42.4933 20.9233C41.6479 22.3201 40.1325 23.172 38.4998 23.1681H36.1858L39.0458 16.6308C39.4389 15.7537 40.0941 15.0199 40.9211 14.5301ZM36.2018 24.5015H40.7544L43.9031 30.7995L46.0878 35.1681H43.8331C43.6233 35.1681 43.4257 35.267 43.2998 35.4348L41.9744 37.2015L38.8044 30.2281L36.2018 24.5015ZM37.1618 29.8348H35.8331V26.9121L37.1618 29.8348ZM24.0784 14.5301C24.9054 15.0199 25.5606 15.7537 25.9538 16.6308L28.8138 23.1681H26.4998C23.9287 23.1741 21.8396 21.0947 21.8336 18.5236C21.8298 16.891 22.6816 15.3756 24.0784 14.5301ZM28.7978 24.5015L26.1978 30.2255L23.0251 37.2015L21.6998 35.4348C21.5738 35.267 21.3763 35.1681 21.1664 35.1681H18.9118L21.0998 30.7995L24.2451 24.5015H28.7978ZM16.4998 18.5015C16.5027 15.9254 18.5903 13.8377 21.1664 13.8348H21.6784C21.8484 13.8355 22.0183 13.8455 22.1871 13.8648C22.2411 13.8715 22.2944 13.8821 22.3484 13.8901C22.4358 13.9035 22.5224 13.9195 22.6084 13.9375C20.0878 16.0829 19.7837 19.8655 21.929 22.386C22.1718 22.6713 22.4408 22.9331 22.7324 23.1681H21.1664C18.5903 23.1652 16.5027 21.0775 16.4998 18.5015ZM13.8331 29.8348V24.5015H22.7544L20.0878 29.8348H13.8331ZM29.1664 51.1681H15.8331V31.1681H19.4211L17.2364 35.5368C17.0718 35.8661 17.2054 36.2666 17.5348 36.4311C17.6274 36.4774 17.7295 36.5015 17.8331 36.5015H20.8331L22.6331 38.9015C22.759 39.0693 22.9566 39.1681 23.1664 39.1681C23.1905 39.1681 23.2145 39.1668 23.2384 39.1641C23.4719 39.1382 23.6745 38.9913 23.7718 38.7775L27.2331 31.1681H29.1664V51.1681ZM29.1664 29.8348H27.8378L29.1664 26.9121V29.8348ZM27.1751 16.0968C26.7869 15.2134 26.1903 14.4372 25.4364 13.8348H27.0118C28.8658 13.8348 30.5439 14.9323 31.2871 16.6308L31.7718 17.7395L29.8331 22.1715L27.1751 16.0968ZM34.4998 51.1681H30.4998V24.5015H34.4998V51.1681ZM30.8524 23.1681L33.7124 16.6308C34.4556 14.9323 36.1338 13.8348 37.9878 13.8348H39.5664C38.8126 14.4372 38.2159 15.2134 37.8278 16.0968L34.7304 23.1681H30.8524ZM49.1664 51.1681H35.8331V31.1681H37.7664L41.2264 38.7775C41.3237 38.9913 41.5263 39.1382 41.7598 39.1641C41.7841 39.1669 41.8086 39.1682 41.8331 39.1681C42.0429 39.1681 42.2405 39.0693 42.3664 38.9015L44.1664 36.5015H47.1664C47.5346 36.5035 47.8348 36.2066 47.8368 35.8385C47.8374 35.7338 47.8133 35.6305 47.7664 35.5368L45.5784 31.1681H49.1664V51.1681ZM51.1664 29.8348H44.9118L42.2451 24.5015H51.1664V29.8348Z" fill="white"/>
</svg>
