<svg width="28" height="29" viewBox="0 0 28 29" fill="none" xmlns="http://www.w3.org/2000/svg">
<path d="M18.725 14.8123C18.725 12.2145 16.625 10.1363 14 10.1363C11.375 10.1363 9.275 12.2145 9.275 14.8123C9.275 17.4101 11.375 19.4883 14 19.4883C16.625 19.4883 18.725 17.4101 18.725 14.8123ZM21.175 14.8123C21.175 18.7955 18.025 21.9129 14 21.9129C9.975 21.9129 6.825 18.7955 6.825 14.8123C6.825 10.829 9.975 7.71172 14 7.71172C18.025 7.71172 21.175 10.829 21.175 14.8123ZM23.1 7.36535C23.1 8.40446 22.4 9.0972 21.35 9.0972C20.3 9.0972 19.6 8.40446 19.6 7.36535C19.6 6.32624 20.3 5.63351 21.35 5.63351C22.4 5.63351 23.1 6.49943 23.1 7.36535ZM14 3.38211C11.9 3.38211 7.525 3.20892 5.775 3.90166C4.55 4.42121 3.5 5.46032 3.15 6.67262C2.45 8.40446 2.625 12.7341 2.625 14.8123C2.625 16.8905 2.45 21.2201 3.15 22.952C3.5 24.1643 4.55 25.2034 5.775 25.5497C7.525 26.2425 12.075 26.0693 14 26.0693C15.925 26.0693 20.475 26.2425 22.225 25.5497C23.45 25.0302 24.325 24.1643 24.85 22.952C25.55 21.0469 25.375 16.7173 25.375 14.8123C25.375 12.9073 25.55 8.40446 24.85 6.67262C24.5 5.46032 23.45 4.42121 22.225 4.07484C20.475 3.20892 16.1 3.38211 14 3.38211ZM28 14.8123V20.5274C28 22.6056 27.3 24.6838 25.725 26.4157C24.15 27.9743 22.05 28.6671 19.775 28.6671H8.225C6.125 28.6671 4.025 27.9743 2.275 26.4157C0.875 24.857 0 22.7788 0 20.5274V14.8123V9.0972C0 6.8458 0.875 4.76758 2.275 3.20892C4.025 1.82344 6.125 0.95752 8.225 0.95752H19.775C21.875 0.95752 23.975 1.65026 25.725 3.20892C27.125 4.76758 28 6.8458 28 9.0972V14.8123Z" fill="white"/>
</svg>
