<svg width="193" height="38" viewBox="0 0 193 38" fill="none" xmlns="http://www.w3.org/2000/svg">
<path d="M17.4219 25.9368L16.2278 26.1756C16.0835 25.4442 16.0138 24.8372 16.0138 24.3596C16.0138 21.6678 16.8199 18.3739 18.427 14.4731C18.7603 13.677 19.1932 12.7068 19.7157 11.5574C18.1533 11.2091 16.8398 11.03 15.775 11.03C14.342 11.03 13.118 11.3435 12.108 11.9754C11.098 12.6023 10.5905 13.4382 10.5905 14.4731V14.5676C10.5905 15.0751 10.68 15.5379 10.8542 15.9508L8.08276 16.2394C8.22706 14.2343 9.28685 12.7068 11.2572 11.652C12.9937 10.7265 15.1978 10.2687 17.8747 10.2687C18.4817 10.2687 19.2529 10.3185 20.1933 10.413C21.4372 10.5424 22.2084 10.6121 22.5119 10.627C23.0045 10.6568 23.4822 10.6767 23.9449 10.6767C24.8504 10.6767 25.6316 10.627 26.2834 10.5324C26.8904 10.4528 27.5074 10.3185 28.1443 10.1245L26.0446 12.4431C25.5818 12.4132 25.0992 12.3635 24.5867 12.2988L22.8652 12.0848C22.4174 12.0201 21.9596 11.9505 21.482 11.8709L20.2878 11.6569C19.7007 12.8361 18.9444 14.7766 18.019 17.4833H22.4373L21.268 18.8466C20.8401 18.6775 20.258 18.4884 19.5266 18.2695C19.2231 18.2396 18.8897 18.2247 18.5215 18.2247H17.8299C17.3672 19.2098 17.0637 20.8418 16.9244 23.1306C16.9094 23.3843 16.8995 23.6232 16.8995 23.8471C16.8945 24.4591 17.0686 25.1606 17.4219 25.9368ZM14.6008 27.6086L11.4462 28.5639C11.5109 26.2105 12.0831 23.3396 13.1678 19.9562C13.6753 18.3839 14.4714 16.2593 15.5561 13.5874C15.8098 12.9356 16.0636 12.3137 16.3223 11.7266H18.616C18.3275 12.4431 18.0588 13.1645 17.805 13.8959L17.0388 16.115C16.2726 18.3242 15.6705 20.3741 15.2227 22.2698C15.0486 22.9515 14.8346 23.9864 14.5759 25.3696C14.5261 25.7826 14.5062 26.1309 14.5062 26.4194C14.5062 27.0215 14.5361 27.4195 14.6008 27.6086Z" fill="white"/>
<path d="M26.8756 25.9369L23.4375 26.32C23.5022 26.1757 23.5818 25.9767 23.6763 25.7229L23.9649 24.887C24.1391 24.3447 24.4028 23.5337 24.7511 22.449L25.5869 19.9662C26.0646 18.5482 26.3034 17.4286 26.3034 16.5977C26.3034 16.0703 25.8755 15.8116 25.0148 15.8116L25.159 15.2842L29.7913 15.0453C29.5525 15.523 29.3485 16.0255 29.1743 16.5529L28.5325 18.4884L26.1591 25.698H26.4477C26.796 24.5686 27.3234 23.2003 28.025 21.5882C28.836 19.7274 29.7067 18.2446 30.6272 17.145C31.8064 15.7419 33.0055 15.0453 34.2345 15.0453C34.4882 15.0453 34.7121 15.0752 34.9012 15.1399L33.9459 18.0556C33.324 17.4834 32.7667 17.1948 32.2741 17.1948C31.6372 17.1948 30.9755 17.6078 30.2938 18.4387C29.3385 19.603 28.3434 21.6629 27.3085 24.6233C27.1144 25.1806 26.9751 25.6184 26.8756 25.9369Z" fill="white"/>
<path d="M41.8421 22.7326L44.2304 15.5429L43.9418 15.5479C41.4142 22.7277 38.7274 26.32 35.8764 26.32C34.8564 26.32 34.3489 25.8274 34.3489 24.8373C34.3489 24.4243 34.518 23.7228 34.8514 22.7376L35.7818 19.9662C36.2595 18.5482 36.4983 17.4287 36.4983 16.5978C36.4983 16.0703 36.0704 15.8116 35.2097 15.8116L35.3539 15.2842L39.9862 15.0454C39.7474 15.523 39.5384 16.0256 39.3643 16.548L37.2646 22.8073C37.0904 23.3347 37.0009 23.7526 37.0009 24.0711C37.0009 24.2601 37.0655 24.4343 37.1899 24.5836C37.3193 24.7328 37.4686 24.8124 37.6427 24.8124C38.3293 24.8124 39.0359 24.3447 39.7673 23.4043C40.2599 22.7824 40.7773 21.9017 41.3197 20.7524C42.1157 19.0656 42.6879 17.6974 43.0412 16.6425C43.1357 16.339 43.295 15.8863 43.5189 15.2792L46.9321 15.0404C46.8226 15.4235 46.6236 16.0057 46.335 16.7819L45.9768 17.7372C45.9469 17.8168 45.8574 18.0656 45.7131 18.4785L44.2304 22.8023C44.0711 23.265 43.9915 23.6879 43.9915 24.0661C43.9915 24.5587 44.2005 24.8075 44.6135 24.8075C45.5041 24.8075 46.6037 24.0362 47.9073 22.4888C48.4496 21.7425 49.2756 20.628 50.3901 19.1453L50.007 20.2449C49.9125 20.4986 49.7184 20.817 49.4348 21.2002C49.196 21.5037 48.9572 21.8072 48.7183 22.1057C47.5739 23.6481 46.345 24.8274 45.0414 25.6384C44.31 26.0862 43.5835 26.3051 42.8671 26.3051C41.862 26.3051 41.3644 25.8125 41.3644 24.8224C41.3744 24.3895 41.5286 23.6879 41.8421 22.7326Z" fill="white"/>
<path d="M57.2811 19.2497L56.9477 20.3493L55.5148 22.235C54.4003 23.7028 53.2061 24.8372 51.9324 25.6482C51.2308 26.0961 50.4745 26.315 49.6635 26.315C48.6584 26.315 48.1609 25.902 48.1609 25.0711C48.1609 24.7825 48.3997 23.9068 48.8774 22.444L49.6884 19.9612C50.166 18.4984 50.4049 17.3739 50.4049 16.5927C50.4049 16.0653 49.977 15.8066 49.1162 15.8066L49.2605 15.2792L53.8927 15.0403C53.7186 15.4085 53.4051 16.2096 52.9623 17.4535C52.9325 17.548 52.818 17.8913 52.629 18.4785L51.1263 23.1605C50.9174 23.7973 50.8178 24.2103 50.8178 24.4044C50.8178 24.7526 51.0318 24.9318 51.4647 24.9318C52.3901 24.9318 53.5047 24.1755 54.8083 22.6629C55.4153 21.9514 56.2462 20.812 57.2811 19.2497ZM54.1764 11.3186C53.7485 11.3186 53.3952 11.1892 53.1265 10.9255C52.8578 10.6618 52.7185 10.3185 52.7185 9.88564C52.7185 9.45276 52.8529 9.10447 53.1265 8.83579C53.3952 8.56711 53.7485 8.4278 54.1764 8.4278C54.5893 8.4278 54.9326 8.56711 55.2013 8.84574C55.47 9.12438 55.6093 9.47267 55.6093 9.88564C55.6093 10.2986 55.475 10.6419 55.2013 10.9106C54.9326 11.1843 54.5893 11.3186 54.1764 11.3186Z" fill="white"/>
<path d="M65.1377 19.1552L64.7546 20.2548L63.2719 22.3097C61.3314 24.9866 59.2268 26.32 56.9678 26.32C56.4106 26.32 55.9777 26.1309 55.6642 25.7478C55.3558 25.3647 55.1965 24.892 55.1965 24.3198C55.1965 23.6531 55.3558 22.857 55.6742 21.9365L57.6545 16.1699H57.346C56.8036 16.1699 56.3807 16.2146 56.0822 16.2992C55.9727 16.3291 55.8334 16.3739 55.6742 16.4286L56.2464 15.4235H57.8933L58.9183 12.4631L61.4011 11.7963L60.3015 15.4285H62.5007L61.8787 16.2893C61.3712 16.2097 60.8587 16.1699 60.3512 16.1699H60.0179L58.157 22.1256C57.9331 22.8421 57.8236 23.3347 57.8236 23.6034C57.8236 24.3348 58.1918 24.698 58.9232 24.698C60.0079 24.698 61.207 23.9964 62.5305 22.5983C63.1724 21.9117 64.0381 20.7623 65.1377 19.1552Z" fill="white"/>
<path d="M82.4976 19.1999L82.1393 20.2995C81.6119 20.8866 81.0895 21.4787 80.5621 22.0658C79.9401 22.7325 79.3779 23.2898 78.8654 23.7376C77.8802 24.5834 76.905 25.1705 75.9497 25.5039C75.5666 25.6482 75.1636 25.7676 74.7307 25.8621C74.1237 26.1657 73.5365 26.3149 72.9644 26.3149C71.8349 26.3149 70.9094 26.0064 70.193 25.3845C69.4267 24.7327 69.0486 23.862 69.0486 22.7823C69.0486 21.9713 69.2874 21.2299 69.7651 20.5632C70.2427 19.8964 70.8647 19.4238 71.6259 19.1551L73.9197 20.2547L73.9694 20.2049C73.9197 20.2049 73.7754 19.8566 73.5266 19.165C73.2778 18.4734 73.1584 17.9908 73.1584 17.7221C73.1584 16.9111 73.4321 16.2593 73.9843 15.7767C74.5317 15.2891 75.2133 15.0502 76.0243 15.0502C77.4075 15.0502 78.3181 15.6622 78.746 16.8912L76.7657 18.0157C76.91 17.6326 76.9796 17.2892 76.9796 16.9907C76.9796 16.6424 76.9 16.329 76.7408 16.0603C76.5667 15.7269 76.3129 15.5577 75.9746 15.5577C75.7208 15.5577 75.5069 15.6672 75.3278 15.8812C75.1536 16.0951 75.064 16.3389 75.064 16.6076C75.064 17.2146 75.4123 18.1898 76.1139 19.5432C76.8453 20.9612 77.2135 21.9663 77.2135 22.5534C77.2135 23.3196 76.9995 23.9366 76.5667 24.4143L76.6164 24.464C76.6463 24.4939 76.696 24.5138 76.7607 24.5138C76.9995 24.5138 77.5021 24.2202 78.2633 23.6281C79.6963 22.5136 80.9203 21.2796 81.9403 19.9263C82.1393 19.6626 82.3234 19.4238 82.4976 19.1999ZM70.9144 23.3594C70.9144 24.0262 71.0985 24.5934 71.4617 25.0561C71.8598 25.5636 72.3772 25.8223 73.0141 25.8223C73.6211 25.8223 74.1187 25.5885 74.5167 25.1158C74.9148 24.6481 75.1138 24.1107 75.1138 23.5037C75.1138 23.041 74.9795 22.4688 74.7058 21.7822C74.4968 21.2896 74.2829 20.8567 74.059 20.4935C73.1534 20.4935 72.4121 20.7423 71.8399 21.2349C71.2279 21.7573 70.9144 22.4688 70.9144 23.3594Z" fill="white"/>
<path d="M83.1193 25.9369L79.7061 26.32C79.9747 25.7478 80.4325 24.4591 81.0694 22.449L81.8555 19.9662C82.3481 18.4039 82.5969 17.2844 82.5969 16.5977C82.5969 16.0703 82.169 15.8116 81.3082 15.8116L81.4525 15.2842L86.0847 15.0453C85.8111 15.5877 85.3782 16.7321 84.7811 18.4785L82.3929 25.6931L82.7014 25.698C82.8456 25.2851 83.0596 24.6582 83.3482 23.8123C83.9204 22.1753 84.6219 20.6677 85.4528 19.2995C86.5027 17.5331 87.5973 16.2992 88.7268 15.5976C89.3189 15.2294 89.9707 15.0503 90.6871 15.0503C91.7221 15.0503 92.2395 15.4334 92.2395 16.1947C92.2395 16.6226 92.1599 17.0853 92.0007 17.5779L90.1846 23.1655C90.0403 23.6133 89.9707 23.9964 89.9707 24.3099C89.9707 24.7228 90.1199 24.9318 90.4234 24.9318C91.2842 24.9318 92.3888 24.1606 93.7421 22.6132C94.2845 21.9912 94.782 21.3643 95.2448 20.7275L96.2946 19.2447L95.9115 20.3443C94.3342 22.8421 92.6226 24.6283 90.7767 25.6931C90.0602 26.106 89.3288 26.315 88.5775 26.315C88.2441 26.315 87.9555 26.2105 87.7167 26.0065C87.4779 25.7976 87.3585 25.5388 87.3585 25.2204C87.3585 24.8074 87.4381 24.3447 87.5973 23.8372L89.2691 18.4387C89.493 17.7222 89.6025 17.2595 89.6025 17.0555C89.6025 16.6425 89.4034 16.4335 89.0054 16.4335C88.3536 16.4335 87.652 16.9112 86.9057 17.8665C86.3186 18.6327 85.632 19.8717 84.8508 21.5932L84.3483 22.6679C84.0298 23.3695 83.7761 24.0064 83.582 24.5785L83.1193 25.9369Z" fill="white"/>
<path d="M109.296 19.2496L108.938 20.3492C107.714 22.0857 106.684 23.3495 105.858 24.1456C104.345 25.5935 102.927 26.3199 101.609 26.3199C101.21 26.3199 100.877 26.2154 100.603 26.0114C100.285 25.7726 100.126 25.4641 100.126 25.081C100.126 24.7327 100.195 24.3595 100.33 23.9615L101.937 18.9411H101.673C100.927 20.9811 100.136 22.5484 99.3098 23.648C97.9714 25.4293 96.5434 26.3249 95.0159 26.3249C93.8715 26.3249 93.2993 25.5935 93.2993 24.1257C93.2993 22.2001 94.1899 20.2099 95.9762 18.155C96.8021 17.1997 97.638 16.4434 98.4739 15.8861C99.3098 15.3289 100.096 15.0502 100.827 15.0502C101.862 15.0502 102.38 15.5428 102.38 16.533C102.38 16.7867 102.365 16.9608 102.33 17.0604H102.544L103.151 15.2443L105.768 15.0552L103.141 23.2699C102.982 23.7625 102.902 24.066 102.902 24.1754C102.902 24.3844 102.967 24.5585 103.091 24.7028C103.221 24.9267 103.395 25.0362 103.619 25.0362C104.047 25.0362 104.683 24.6382 105.529 23.8421C106.31 23.1405 107.216 22.1006 108.251 20.7124C108.47 20.3741 108.818 19.8865 109.296 19.2496ZM96.7573 24.8123H96.8519C97.235 24.8123 97.7027 24.5187 98.26 23.9267C98.6431 23.5286 99.066 22.9713 99.5238 22.2549C100.683 20.4885 101.265 19.1352 101.265 18.1948C101.265 16.7618 100.758 16.0453 99.7377 16.0453C98.7028 16.0453 97.7375 17.0803 96.8469 19.1501C96.1453 20.792 95.7971 22.2051 95.7971 23.3992C95.802 24.3446 96.1205 24.8123 96.7573 24.8123Z" fill="white"/>
<path d="M119.113 19.2497L118.73 20.3493C117.122 22.2948 115.744 23.678 114.6 24.5039C112.913 25.713 111.107 26.32 109.176 26.32C107.231 26.32 106.261 25.509 106.261 23.882C106.261 23.1008 106.539 22.1455 107.097 21.016C107.559 20.1105 108.102 19.2646 108.719 18.4835C110.55 16.1897 112.47 15.0453 114.475 15.0453C114.953 15.0453 115.64 15.1548 116.53 15.3787L115.48 17.5779C115.371 16.3042 114.739 15.6673 113.595 15.6673C112.704 15.6673 111.833 16.2345 110.993 17.364C110.42 18.1103 109.933 18.996 109.535 20.0159C109.107 21.1305 108.888 22.1156 108.888 22.9764C108.888 24.28 109.604 24.9368 111.037 24.9368C112.152 24.9368 113.331 24.5288 114.57 23.7178C115.769 22.9515 117.282 21.4638 119.113 19.2497Z" fill="white"/>
<path d="M115.814 26.32C115.844 26.1907 115.893 26.0265 115.958 25.8175L116.197 25.0761C116.371 24.5835 116.625 23.8322 116.963 22.8321L119.948 13.6373C120.665 11.4232 121.023 10.0001 121.023 9.36327C121.023 8.96523 120.854 8.69654 120.521 8.55225C120.376 8.5025 120.033 8.45772 119.496 8.40796L119.685 7.88055L124.302 7.64172L118.436 25.6931H118.844C119.705 22.6679 120.909 20.001 122.451 17.6924C123.63 15.926 124.849 15.0404 126.108 15.0404C126.571 15.0404 126.969 15.2096 127.302 15.5429C127.636 15.8763 127.805 16.2743 127.805 16.7371C127.805 17.6924 127.407 18.4785 126.611 19.1005C126.068 19.5284 125.232 19.9264 124.103 20.2946C124.088 20.3245 124.038 20.3444 123.959 20.3444C123.814 20.3444 123.77 20.5732 123.814 21.036C123.894 21.7375 124.103 22.4839 124.436 23.2799C124.884 24.2999 125.382 24.8074 125.939 24.8074C126.894 24.8074 128.039 24.0661 129.377 22.5883C129.999 21.9216 130.701 21.0459 131.477 19.9612C131.651 19.7075 131.81 19.4836 131.954 19.2945L131.571 20.3941L130.233 22.1604C129.103 23.6581 127.894 24.8174 126.601 25.6483C125.899 26.0961 125.232 26.315 124.596 26.315C123.61 26.315 122.844 25.5588 122.302 24.0462C122.078 23.4242 121.919 22.7973 121.824 22.1604L121.585 20.5832H121.536C121.327 20.5832 121.028 21.0907 120.63 22.1107C120.565 22.2401 120.297 23.0013 119.819 24.4044L119.292 25.9319L115.814 26.32ZM121.834 20.0608H122.551C123.521 20.0608 124.397 19.6727 125.178 18.8915C125.591 18.4636 125.8 17.9909 125.8 17.4834V17.3889C125.8 17.165 125.73 16.9709 125.586 16.8018C125.441 16.6326 125.257 16.553 125.038 16.553C124.481 16.553 123.854 17.0157 123.153 17.9362C122.735 18.4934 122.297 19.2 121.834 20.0608Z" fill="white"/>
<path d="M149.349 19.1999L148.991 20.2995C148.468 20.8866 147.941 21.4787 147.414 22.0658C146.792 22.7325 146.229 23.2898 145.717 23.7376C144.732 24.5834 143.757 25.1705 142.801 25.5039C142.418 25.6482 142.015 25.7676 141.582 25.8621C140.975 26.1657 140.388 26.3149 139.816 26.3149C138.686 26.3149 137.761 26.0064 137.045 25.3845C136.278 24.7327 135.9 23.862 135.9 22.7823C135.9 21.9713 136.139 21.2299 136.617 20.5632C137.094 19.8964 137.716 19.4238 138.477 19.1551L140.771 20.2547L140.821 20.2049C140.771 20.2049 140.627 19.8566 140.378 19.165C140.129 18.4734 140.005 17.9908 140.005 17.7221C140.005 16.9111 140.279 16.2593 140.831 15.7767C141.383 15.2891 142.06 15.0502 142.876 15.0502C144.259 15.0502 145.17 15.6622 145.598 16.8912L143.617 18.0157C143.762 17.6326 143.831 17.2892 143.831 16.9907C143.831 16.6424 143.752 16.329 143.592 16.0603C143.418 15.7269 143.164 15.5577 142.826 15.5577C142.572 15.5577 142.353 15.6672 142.179 15.8812C142.005 16.0951 141.916 16.3389 141.916 16.6076C141.916 17.2146 142.264 18.1898 142.965 19.5432C143.697 20.9612 144.065 21.9663 144.065 22.5534C144.065 23.3196 143.851 23.9366 143.418 24.4143L143.468 24.464C143.498 24.4939 143.548 24.5138 143.612 24.5138C143.851 24.5138 144.354 24.2202 145.115 23.6281C146.548 22.5136 147.772 21.2796 148.792 19.9263C148.986 19.6626 149.17 19.4238 149.349 19.1999ZM137.766 23.3594C137.766 24.0262 137.95 24.5934 138.313 25.0561C138.711 25.5636 139.229 25.8223 139.866 25.8223C140.473 25.8223 140.97 25.5885 141.368 25.1158C141.766 24.6481 141.965 24.1107 141.965 23.5037C141.965 23.041 141.831 22.4688 141.557 21.7822C141.348 21.2896 141.134 20.8567 140.911 20.4935C140.005 20.4935 139.264 20.7423 138.691 21.2349C138.074 21.7573 137.766 22.4688 137.766 23.3594Z" fill="white"/>
<path d="M150.016 25.9369L146.603 26.32L150.21 15.1897C149.175 14.8215 148.459 14.2592 148.061 13.493L149.782 12.274C149.782 12.8959 150.046 13.483 150.568 14.0403C151.14 12.2242 151.897 10.7913 152.837 9.74141C154.061 8.3383 155.494 7.64172 157.136 7.64172C158.773 7.64172 159.594 8.30845 159.594 9.64688C159.594 10.9356 158.773 12.1944 157.136 13.4184C156.514 13.8811 155.768 14.2891 154.892 14.6374C154.146 14.926 153.409 15.1051 152.693 15.1847L149.255 25.6931H149.563C150.504 22.9715 151.434 20.7971 152.36 19.1751C153.952 16.4186 155.713 15.0454 157.639 15.0454C158.022 15.0454 158.36 15.1747 158.654 15.4285C158.947 15.6822 159.096 16.0007 159.096 16.3838C159.096 16.9709 158.952 17.6078 158.669 18.2944L157.047 23.3596C156.937 23.7078 156.877 24.0462 156.877 24.3646C156.877 24.7477 157.066 24.9368 157.45 24.9368H157.499C157.912 24.9368 158.445 24.6582 159.101 24.1009C160.042 23.2899 161.092 22.1356 162.256 20.6379C162.48 20.3195 162.828 19.8568 163.306 19.2547L162.923 20.3543C161.201 22.9317 159.47 24.7179 157.718 25.703C156.987 26.116 156.245 26.325 155.499 26.325C155.196 26.325 154.917 26.2155 154.663 25.9916C154.409 25.7677 154.28 25.514 154.28 25.2254C154.28 25.1955 154.36 24.703 154.519 23.7477L156.28 18.2546C156.41 17.8566 156.474 17.5083 156.474 17.2048C156.474 16.7769 156.265 16.5579 155.852 16.5579C155.086 16.5579 154.245 17.2247 153.32 18.5631C152.175 20.22 151.22 22.2251 150.454 24.5835C150.255 25.1657 150.111 25.6185 150.016 25.9369ZM153.479 12.468L152.787 14.5677H153.121C154.265 14.5677 155.27 14.0403 156.131 12.9905C156.927 12.0202 157.325 10.9853 157.325 9.88571C157.325 8.80103 156.927 8.26367 156.131 8.26367C155.285 8.26367 154.399 9.66678 153.479 12.468Z" fill="white"/>
<path d="M175.043 19.1552L174.66 20.2548C173.351 21.9565 172.237 23.2004 171.316 23.9815C169.754 25.2851 168.261 25.9419 166.828 25.9419C166.321 25.9419 165.848 25.8125 165.42 25.5588L164.176 26.0613C163.699 26.2355 163.196 26.325 162.674 26.325C161.052 26.325 160.236 25.5041 160.236 23.8671C160.236 22.1008 161.126 20.23 162.913 18.2547C164.838 16.1201 166.764 15.0554 168.694 15.0554C170.351 15.0554 171.177 15.8514 171.177 17.4436C171.177 18.6875 170.555 20.1752 169.316 21.9117C168.535 22.9964 167.804 23.7925 167.117 24.3C166.764 24.5687 166.59 24.7627 166.59 24.8722C166.59 25.0015 166.838 25.0612 167.331 25.0612C168.192 25.0612 169.028 24.8224 169.839 24.3448C171.222 23.5337 172.466 22.4192 173.565 21.0012L174.352 19.9961C174.59 19.6876 174.819 19.409 175.043 19.1552ZM166.878 15.8564L166.973 15.6425C166.48 15.8017 165.968 16.1102 165.445 16.5729C164.38 17.5282 163.599 18.787 163.107 20.3444C162.853 21.1554 162.724 21.9515 162.724 22.7327C162.724 23.3695 162.833 23.9268 163.057 24.4045C163.346 25.0115 163.773 25.31 164.346 25.31C164.475 25.31 164.52 25.1906 164.49 24.9518C164.44 24.7279 164.371 24.4492 164.276 24.1159L163.943 23.1108C163.833 22.7625 163.773 22.459 163.773 22.2053C163.773 21.2798 163.958 20.3245 164.321 19.3294C164.689 18.3343 165.172 17.4934 165.779 16.8117C166.162 16.3988 166.525 16.0803 166.878 15.8564ZM164.415 21.8072C164.415 23.2252 164.938 24.1855 165.978 24.698C166.49 24.1905 166.948 23.5288 167.346 22.7177C168.177 20.9962 168.595 19.3592 168.595 17.7969C168.595 16.6376 168.251 16.0554 167.56 16.0554C166.998 16.0554 166.415 16.4933 165.808 17.369C165.296 18.1153 164.918 18.9363 164.679 19.8269C164.505 20.4638 164.415 21.0758 164.415 21.6679V21.8072Z" fill="white"/>
<path d="M173.874 31.7633L170.172 32.0718C170.331 31.6588 170.475 31.2508 170.6 30.8528L171.008 29.7084L171.366 28.7033C171.446 28.4794 171.55 28.1709 171.674 27.7729L174.207 19.9612C174.67 18.5432 174.899 17.4237 174.899 16.5928C174.899 16.0654 174.476 15.8066 173.635 15.8066L173.779 15.2792L178.387 15.0404C178.292 15.2295 178.163 15.528 178.003 15.9261C177.735 16.5779 177.536 17.1351 177.406 17.5978C177.406 17.6277 177.312 17.9262 177.118 18.4835L172.869 31.5245H173.396C174.401 27.7182 175.386 24.5189 176.357 21.9216C177.138 19.8369 177.988 18.2297 178.914 17.0953C179.262 16.6674 179.606 16.2992 179.939 15.9957C180.626 15.3588 181.387 15.0404 182.233 15.0404C183.601 15.0404 184.288 15.8912 184.288 17.5978C184.288 18.8716 183.865 20.3046 183.024 21.8967C182.277 23.28 181.302 24.4542 180.108 25.4095C179.342 26.0165 178.571 26.315 177.789 26.315C177.008 26.315 176.421 26.0464 176.023 25.504L177.645 24.1656V24.499C177.645 25.1358 177.979 25.4543 178.65 25.4543C179.193 25.4543 179.685 25.106 180.133 24.4044C180.501 23.8322 180.785 23.1605 180.994 22.3993C181.262 21.429 181.471 20.3394 181.616 19.1253C181.646 18.792 181.665 18.4984 181.665 18.2397C181.665 17.364 181.427 16.9261 180.949 16.9261C180.282 16.9261 179.516 17.6277 178.655 19.0258C178.018 20.0757 177.367 21.5037 176.695 23.2999L175.859 25.5936C174.963 28.0864 174.302 30.1413 173.874 31.7633Z" fill="white"/>
<path d="M192.308 15.3588C192.388 17.6028 192.139 19.8916 191.288 22.0062C190.447 24.1208 188.99 25.9667 187.218 27.3897C185.447 28.8227 183.417 29.9024 181.312 30.7433C179.213 31.5991 177.028 32.226 174.829 32.7634C170.421 33.7883 165.938 34.3854 161.45 34.8432C156.962 35.2959 152.464 35.5895 147.966 35.8283C138.97 36.3109 129.969 36.4751 120.979 36.7239C111.983 36.9528 102.997 37.2115 94.0109 37.5598C85.0151 37.8484 76.0093 38.0225 67.0035 37.9977C62.5006 37.9877 57.9977 37.9181 53.4899 37.7738C48.987 37.6394 44.4841 37.3956 39.9911 37.0175C35.4982 36.6443 31.0102 36.1418 26.5521 35.4054C22.104 34.6591 17.6658 33.6938 13.3967 32.1414C11.2771 31.3453 9.19236 30.4049 7.27676 29.171C5.37112 27.942 3.60479 26.4096 2.36587 24.4741C1.11701 22.5535 0.500035 20.2647 0.500035 18.0008C0.49506 15.727 1.01749 13.5029 1.74393 11.3784C1.08715 13.5228 0.644326 15.7618 0.728911 17.9959C0.788618 20.2249 1.44539 22.4341 2.69924 24.2601C3.93815 26.1011 5.68458 27.544 7.5753 28.6983C9.47597 29.8527 11.5408 30.7284 13.6455 31.4548C17.8698 32.9077 22.2731 33.8082 26.7014 34.4799C31.1346 35.1417 35.6027 35.5696 40.0757 35.8781C57.9928 37.0374 75.9994 36.704 93.9612 36.0721C111.948 35.4303 129.954 35.3059 147.916 34.6889C152.404 34.5197 156.892 34.2909 161.365 33.9127C165.833 33.5246 170.296 32.9922 174.67 32.0568C176.854 31.5792 179.024 31.0169 181.108 30.2258C183.198 29.4496 185.208 28.4396 186.975 27.0862C188.741 25.7379 190.204 23.9765 191.084 21.9216C191.985 19.8717 192.313 17.6028 192.308 15.3588Z" fill="white"/>
<path d="M6.22202 23.3197C5.60007 22.3843 5.01793 21.4141 4.52038 20.404C4.03775 19.3841 3.63472 18.3193 3.40585 17.2048C3.17697 16.0952 3.14214 14.9259 3.37599 13.8015C3.61482 12.672 4.14721 11.6172 4.85374 10.7116C6.2867 8.89555 8.29683 7.67156 10.3418 6.70133C12.4067 5.75099 14.571 5.03949 16.7553 4.45734C21.1388 3.30799 25.6118 2.63131 30.0898 2.08897C34.5728 1.56156 39.0658 1.20332 43.5637 0.924688C52.5595 0.357473 61.5703 0.213181 70.5711 0.0937672C79.5769 -0.00574423 88.5777 -0.00574391 97.5785 0.00420724C106.579 0.0589385 115.58 0.153474 124.586 0.357473C133.587 0.581374 142.592 0.845078 151.583 1.54166C156.076 1.88 160.569 2.3079 165.042 2.89501C169.51 3.49706 173.978 4.23842 178.342 5.45743C180.516 6.07938 182.671 6.83069 184.701 7.86561C185.716 8.38307 186.691 8.99506 187.572 9.73145C188.447 10.4678 189.233 11.3585 189.711 12.4232C190.194 13.4781 190.363 14.6821 190.179 15.8166C190.005 16.956 189.577 18.0307 189.034 19.0258C187.93 21.0111 186.417 22.7127 184.835 24.3099C186.363 22.663 187.81 20.9116 188.835 18.9213C189.338 17.9262 189.731 16.8714 189.87 15.7768C190.02 14.6871 189.831 13.5676 189.353 12.5924C188.885 11.6072 188.124 10.7863 187.263 10.0996C186.402 9.41301 185.447 8.8458 184.442 8.36317C182.437 7.40288 180.302 6.71625 178.143 6.15401C173.814 5.02456 169.371 4.34788 164.918 3.82047C160.46 3.30301 155.982 2.94477 151.499 2.67609C133.557 1.63122 115.56 1.52673 97.5685 1.48693C79.5769 1.39239 61.5752 1.27298 43.6234 2.05912C39.1354 2.26809 34.6524 2.55667 30.1893 3.01443C25.7312 3.48213 21.2781 4.0991 16.9294 5.15392C14.7551 5.67138 12.6107 6.32318 10.5657 7.20386C8.54561 8.09946 6.56534 9.24384 5.15725 10.9455C4.46067 11.7913 3.92828 12.7815 3.67453 13.8562C3.42077 14.9309 3.43073 16.0554 3.6198 17.15C3.80887 18.2496 4.16711 19.3144 4.61491 20.3443C5.08262 21.3793 5.62993 22.3594 6.22202 23.3197Z" fill="white"/>
</svg>
