<svg width="193" height="38" viewBox="0 0 193 38" fill="none" xmlns="http://www.w3.org/2000/svg">
<path d="M17.2553 25.9368L16.0612 26.1756C15.9169 25.4442 15.8473 24.8372 15.8473 24.3596C15.8473 21.6678 16.6533 18.3739 18.2604 14.4731C18.5938 13.677 19.0267 12.7068 19.5491 11.5574C17.9868 11.2091 16.6732 11.03 15.6084 11.03C14.1755 11.03 12.9515 11.3435 11.9414 11.9754C10.9314 12.6023 10.4239 13.4382 10.4239 14.4731V14.5676C10.4239 15.0751 10.5134 15.5379 10.6876 15.9508L7.9162 16.2394C8.06049 14.2343 9.12029 12.7068 11.0906 11.652C12.8271 10.7265 15.0313 10.2687 17.7081 10.2687C18.3151 10.2687 19.0864 10.3185 20.0267 10.413C21.2706 10.5424 22.0418 10.6121 22.3454 10.627C22.8379 10.6568 23.3156 10.6767 23.7783 10.6767C24.6839 10.6767 25.465 10.627 26.1168 10.5324C26.7239 10.4528 27.3408 10.3185 27.9777 10.1245L25.878 12.4431C25.4153 12.4132 24.9327 12.3635 24.4202 12.2988L22.6986 12.0848C22.2508 12.0201 21.7931 11.9505 21.3154 11.8709L20.1213 11.6569C19.5342 12.8361 18.7779 14.7766 17.8524 17.4833H22.2707L21.1015 18.8466C20.6736 18.6775 20.0914 18.4884 19.36 18.2695C19.0565 18.2396 18.7231 18.2247 18.3549 18.2247H17.6633C17.2006 19.2098 16.8971 20.8418 16.7578 23.1306C16.7429 23.3843 16.7329 23.6232 16.7329 23.8471C16.7279 24.4591 16.9021 25.1606 17.2553 25.9368ZM14.4342 27.6086L11.2797 28.5639C11.3444 26.2105 11.9166 23.3396 13.0012 19.9562C13.5087 18.3839 14.3048 16.2593 15.3895 13.5874C15.6433 12.9356 15.897 12.3137 16.1557 11.7266H18.4495C18.1609 12.4431 17.8922 13.1645 17.6385 13.8959L16.8722 16.115C16.106 18.3242 15.5039 20.3741 15.0561 22.2698C14.882 22.9515 14.668 23.9864 14.4093 25.3696C14.3596 25.7826 14.3397 26.1309 14.3397 26.4194C14.3397 27.0215 14.3695 27.4195 14.4342 27.6086Z" fill="black"/>
<path d="M26.709 25.9369L23.2709 26.32C23.3356 26.1757 23.4152 25.9767 23.5097 25.7229L23.7983 24.887C23.9724 24.3447 24.2361 23.5337 24.5844 22.449L25.4203 19.9662C25.898 18.5482 26.1368 17.4286 26.1368 16.5977C26.1368 16.0703 25.7089 15.8116 24.8481 15.8116L24.9924 15.2842L29.6247 15.0453C29.3859 15.523 29.1819 16.0255 29.0077 16.5529L28.3659 18.4884L25.9925 25.698H26.2811C26.6294 24.5686 27.1568 23.2003 27.8584 21.5882C28.6694 19.7274 29.5401 18.2446 30.4606 17.145C31.6398 15.7419 32.8389 15.0453 34.0679 15.0453C34.3216 15.0453 34.5455 15.0752 34.7346 15.1399L33.7793 18.0556C33.1573 17.4834 32.6001 17.1948 32.1075 17.1948C31.4706 17.1948 30.8089 17.6078 30.1272 18.4387C29.1719 19.603 28.1768 21.6629 27.1419 24.6233C26.9478 25.1806 26.8085 25.6184 26.709 25.9369Z" fill="black"/>
<path d="M41.6755 22.7326L44.0637 15.5429L43.7752 15.5479C41.2476 22.7277 38.5608 26.32 35.7098 26.32C34.6898 26.32 34.1823 25.8274 34.1823 24.8373C34.1823 24.4243 34.3514 23.7228 34.6848 22.7376L35.6152 19.9662C36.0929 18.5482 36.3317 17.4287 36.3317 16.5978C36.3317 16.0703 35.9038 15.8116 35.043 15.8116L35.1873 15.2842L39.8196 15.0454C39.5807 15.523 39.3718 16.0256 39.1976 16.548L37.0979 22.8073C36.9238 23.3347 36.8342 23.7526 36.8342 24.0711C36.8342 24.2601 36.8989 24.4343 37.0233 24.5836C37.1527 24.7328 37.3019 24.8124 37.4761 24.8124C38.1627 24.8124 38.8692 24.3447 39.6006 23.4043C40.0932 22.7824 40.6107 21.9017 41.153 20.7524C41.9491 19.0656 42.5213 17.6974 42.8746 16.6425C42.9691 16.339 43.1283 15.8863 43.3522 15.2792L46.7655 15.0404C46.656 15.4235 46.457 16.0057 46.1684 16.7819L45.8102 17.7372C45.7803 17.8168 45.6907 18.0656 45.5465 18.4785L44.0637 22.8023C43.9045 23.265 43.8249 23.6879 43.8249 24.0661C43.8249 24.5587 44.0339 24.8075 44.4469 24.8075C45.3375 24.8075 46.4371 24.0362 47.7407 22.4888C48.283 21.7425 49.109 20.628 50.2235 19.1453L49.8404 20.2449C49.7458 20.4986 49.5518 20.817 49.2682 21.2002C49.0294 21.5037 48.7905 21.8072 48.5517 22.1057C47.4073 23.6481 46.1784 24.8274 44.8748 25.6384C44.1433 26.0862 43.4169 26.3051 42.7004 26.3051C41.6954 26.3051 41.1978 25.8125 41.1978 24.8224C41.2078 24.3895 41.362 23.6879 41.6755 22.7326Z" fill="black"/>
<path d="M57.1146 19.2497L56.7812 20.3493L55.3483 22.235C54.2338 23.7028 53.0396 24.8372 51.7659 25.6482C51.0643 26.0961 50.308 26.315 49.497 26.315C48.4919 26.315 47.9944 25.902 47.9944 25.0711C47.9944 24.7825 48.2332 23.9068 48.7109 22.444L49.5219 19.9612C49.9995 18.4984 50.2384 17.3739 50.2384 16.5927C50.2384 16.0653 49.8105 15.8066 48.9497 15.8066L49.094 15.2792L53.7262 15.0403C53.5521 15.4085 53.2386 16.2096 52.7958 17.4535C52.766 17.548 52.6515 17.8913 52.4625 18.4785L50.9598 23.1605C50.7509 23.7973 50.6513 24.2103 50.6513 24.4044C50.6513 24.7526 50.8653 24.9318 51.2982 24.9318C52.2236 24.9318 53.3381 24.1755 54.6417 22.6629C55.2488 21.9514 56.0797 20.812 57.1146 19.2497ZM54.0099 11.3186C53.582 11.3186 53.2287 11.1892 52.96 10.9255C52.6913 10.6618 52.552 10.3185 52.552 9.88564C52.552 9.45276 52.6864 9.10447 52.96 8.83579C53.2287 8.56711 53.582 8.4278 54.0099 8.4278C54.4228 8.4278 54.7661 8.56711 55.0348 8.84574C55.3035 9.12438 55.4428 9.47267 55.4428 9.88564C55.4428 10.2986 55.3085 10.6419 55.0348 10.9106C54.7661 11.1843 54.4228 11.3186 54.0099 11.3186Z" fill="black"/>
<path d="M64.971 19.1552L64.5879 20.2548L63.1051 22.3097C61.1647 24.9866 59.06 26.32 56.8011 26.32C56.2438 26.32 55.811 26.1309 55.4975 25.7478C55.189 25.3647 55.0298 24.892 55.0298 24.3198C55.0298 23.6531 55.189 22.857 55.5074 21.9365L57.4877 16.1699H57.1792C56.6369 16.1699 56.214 16.2146 55.9154 16.2992C55.806 16.3291 55.6667 16.3739 55.5074 16.4286L56.0796 15.4235H57.7266L58.7515 12.4631L61.2343 11.7963L60.1347 15.4285H62.3339L61.712 16.2893C61.2045 16.2097 60.692 16.1699 60.1845 16.1699H59.8511L57.9903 22.1256C57.7664 22.8421 57.6569 23.3347 57.6569 23.6034C57.6569 24.3348 58.0251 24.698 58.7565 24.698C59.8412 24.698 61.0403 23.9964 62.3638 22.5983C63.0056 21.9117 63.8714 20.7623 64.971 19.1552Z" fill="black"/>
<path d="M82.3309 19.1999L81.9727 20.2995C81.4453 20.8866 80.9228 21.4787 80.3954 22.0658C79.7735 22.7325 79.2112 23.2898 78.6988 23.7376C77.7136 24.5834 76.7384 25.1705 75.7831 25.5039C75.4 25.6482 74.9969 25.7676 74.5641 25.8621C73.957 26.1657 73.3699 26.3149 72.7977 26.3149C71.6683 26.3149 70.7428 26.0064 70.0263 25.3845C69.2601 24.7327 68.882 23.862 68.882 22.7823C68.882 21.9713 69.1208 21.2299 69.5984 20.5632C70.0761 19.8964 70.698 19.4238 71.4593 19.1551L73.753 20.2547L73.8028 20.2049C73.753 20.2049 73.6088 19.8566 73.36 19.165C73.1112 18.4734 72.9918 17.9908 72.9918 17.7221C72.9918 16.9111 73.2654 16.2593 73.8177 15.7767C74.365 15.2891 75.0467 15.0502 75.8577 15.0502C77.2409 15.0502 78.1514 15.6622 78.5793 16.8912L76.5991 18.0157C76.7434 17.6326 76.813 17.2892 76.813 16.9907C76.813 16.6424 76.7334 16.329 76.5742 16.0603C76.4 15.7269 76.1463 15.5577 75.808 15.5577C75.5542 15.5577 75.3402 15.6672 75.1611 15.8812C74.987 16.0951 74.8974 16.3389 74.8974 16.6076C74.8974 17.2146 75.2457 18.1898 75.9473 19.5432C76.6787 20.9612 77.0469 21.9663 77.0469 22.5534C77.0469 23.3196 76.8329 23.9366 76.4 24.4143L76.4498 24.464C76.4797 24.4939 76.5294 24.5138 76.5941 24.5138C76.8329 24.5138 77.3354 24.2202 78.0967 23.6281C79.5297 22.5136 80.7537 21.2796 81.7737 19.9263C81.9727 19.6626 82.1568 19.4238 82.3309 19.1999ZM70.7478 23.3594C70.7478 24.0262 70.9319 24.5934 71.2951 25.0561C71.6932 25.5636 72.2106 25.8223 72.8475 25.8223C73.4545 25.8223 73.9521 25.5885 74.3501 25.1158C74.7482 24.6481 74.9472 24.1107 74.9472 23.5037C74.9472 23.041 74.8128 22.4688 74.5392 21.7822C74.3302 21.2896 74.1163 20.8567 73.8924 20.4935C72.9868 20.4935 72.2454 20.7423 71.6733 21.2349C71.0613 21.7573 70.7478 22.4688 70.7478 23.3594Z" fill="black"/>
<path d="M82.9528 25.9369L79.5396 26.32C79.8082 25.7478 80.266 24.4591 80.9029 22.449L81.689 19.9662C82.1816 18.4039 82.4304 17.2844 82.4304 16.5977C82.4304 16.0703 82.0025 15.8116 81.1417 15.8116L81.286 15.2842L85.9182 15.0453C85.6446 15.5877 85.2117 16.7321 84.6146 18.4785L82.2264 25.6931L82.5348 25.698C82.6791 25.2851 82.8931 24.6582 83.1817 23.8123C83.7539 22.1753 84.4554 20.6677 85.2863 19.2995C86.3362 17.5331 87.4308 16.2992 88.5603 15.5976C89.1524 15.2294 89.8041 15.0503 90.5206 15.0503C91.5556 15.0503 92.073 15.4334 92.073 16.1947C92.073 16.6226 91.9934 17.0853 91.8342 17.5779L90.0181 23.1655C89.8738 23.6133 89.8042 23.9964 89.8042 24.3099C89.8042 24.7228 89.9534 24.9318 90.2569 24.9318C91.1177 24.9318 92.2223 24.1606 93.5756 22.6132C94.118 21.9912 94.6155 21.3643 95.0783 20.7275L96.1281 19.2447L95.745 20.3443C94.1677 22.8421 92.4561 24.6283 90.6102 25.6931C89.8937 26.106 89.1623 26.315 88.411 26.315C88.0776 26.315 87.789 26.2105 87.5502 26.0065C87.3114 25.7976 87.192 25.5388 87.192 25.2204C87.192 24.8074 87.2716 24.3447 87.4308 23.8372L89.1026 18.4387C89.3265 17.7222 89.436 17.2595 89.436 17.0555C89.436 16.6425 89.2369 16.4335 88.8389 16.4335C88.1871 16.4335 87.4855 16.9112 86.7392 17.8665C86.1521 18.6327 85.4655 19.8717 84.6843 21.5932L84.1818 22.6679C83.8633 23.3695 83.6096 24.0064 83.4155 24.5785L82.9528 25.9369Z" fill="black"/>
<path d="M109.129 19.2496L108.771 20.3492C107.547 22.0857 106.517 23.3495 105.691 24.1456C104.179 25.5935 102.76 26.3199 101.442 26.3199C101.044 26.3199 100.711 26.2154 100.437 26.0114C100.118 25.7726 99.9592 25.4641 99.9592 25.081C99.9592 24.7327 100.029 24.3595 100.163 23.9615L101.77 18.9411H101.507C100.76 20.9811 99.9692 22.5484 99.1432 23.648C97.8048 25.4293 96.3768 26.3249 94.8493 26.3249C93.7049 26.3249 93.1328 25.5935 93.1328 24.1257C93.1328 22.2001 94.0234 20.2099 95.8096 18.155C96.6356 17.1997 97.4715 16.4434 98.3073 15.8861C99.1432 15.3289 99.9294 15.0502 100.661 15.0502C101.696 15.0502 102.213 15.5428 102.213 16.533C102.213 16.7867 102.198 16.9608 102.163 17.0604H102.377L102.984 15.2443L105.602 15.0552L102.974 23.2699C102.815 23.7625 102.736 24.066 102.736 24.1754C102.736 24.3844 102.8 24.5585 102.925 24.7028C103.054 24.9267 103.228 25.0362 103.452 25.0362C103.88 25.0362 104.517 24.6382 105.363 23.8421C106.144 23.1405 107.049 22.1006 108.084 20.7124C108.303 20.3741 108.652 19.8865 109.129 19.2496ZM96.5908 24.8123H96.6853C97.0684 24.8123 97.5361 24.5187 98.0934 23.9267C98.4765 23.5286 98.8994 22.9713 99.3572 22.2549C100.517 20.4885 101.099 19.1352 101.099 18.1948C101.099 16.7618 100.591 16.0453 99.5711 16.0453C98.5362 16.0453 97.571 17.0803 96.6803 19.1501C95.9788 20.792 95.6305 22.2051 95.6305 23.3992C95.6355 24.3446 95.9539 24.8123 96.5908 24.8123Z" fill="black"/>
<path d="M118.946 19.2497L118.563 20.3493C116.956 22.2948 115.577 23.678 114.433 24.5039C112.746 25.713 110.94 26.32 109.01 26.32C107.064 26.32 106.094 25.509 106.094 23.882C106.094 23.1008 106.373 22.1455 106.93 21.016C107.393 20.1105 107.935 19.2646 108.552 18.4835C110.383 16.1897 112.304 15.0453 114.309 15.0453C114.786 15.0453 115.473 15.1548 116.364 15.3787L115.314 17.5779C115.204 16.3042 114.572 15.6673 113.428 15.6673C112.537 15.6673 111.667 16.2345 110.826 17.364C110.254 18.1103 109.766 18.996 109.368 20.0159C108.94 21.1305 108.721 22.1156 108.721 22.9764C108.721 24.28 109.438 24.9368 110.871 24.9368C111.985 24.9368 113.164 24.5288 114.403 23.7178C115.602 22.9515 117.115 21.4638 118.946 19.2497Z" fill="black"/>
<path d="M115.647 26.32C115.677 26.1907 115.727 26.0265 115.791 25.8175L116.03 25.0761C116.204 24.5835 116.458 23.8322 116.797 22.8321L119.782 13.6373C120.498 11.4232 120.857 10.0001 120.857 9.36327C120.857 8.96523 120.687 8.69654 120.354 8.55225C120.21 8.5025 119.866 8.45772 119.329 8.40796L119.518 7.88055L124.136 7.64172L118.269 25.6931H118.677C119.538 22.6679 120.742 20.001 122.285 17.6924C123.464 15.926 124.683 15.0404 125.942 15.0404C126.404 15.0404 126.802 15.2096 127.136 15.5429C127.469 15.8763 127.638 16.2743 127.638 16.7371C127.638 17.6924 127.24 18.4785 126.444 19.1005C125.902 19.5284 125.066 19.9264 123.937 20.2946C123.922 20.3245 123.872 20.3444 123.792 20.3444C123.648 20.3444 123.603 20.5732 123.648 21.036C123.728 21.7375 123.937 22.4839 124.27 23.2799C124.718 24.2999 125.215 24.8074 125.772 24.8074C126.728 24.8074 127.872 24.0661 129.211 22.5883C129.833 21.9216 130.534 21.0459 131.31 19.9612C131.484 19.7075 131.644 19.4836 131.788 19.2945L131.405 20.3941L130.066 22.1604C128.937 23.6581 127.728 24.8174 126.434 25.6483C125.733 26.0961 125.066 26.315 124.429 26.315C123.444 26.315 122.678 25.5588 122.135 24.0462C121.911 23.4242 121.752 22.7973 121.658 22.1604L121.419 20.5832H121.369C121.16 20.5832 120.862 21.0907 120.464 22.1107C120.399 22.2401 120.13 23.0013 119.653 24.4044L119.125 25.9319L115.647 26.32ZM121.668 20.0608H122.384C123.354 20.0608 124.23 19.6727 125.011 18.8915C125.424 18.4636 125.633 17.9909 125.633 17.4834V17.3889C125.633 17.165 125.564 16.9709 125.419 16.8018C125.275 16.6326 125.091 16.553 124.872 16.553C124.315 16.553 123.688 17.0157 122.986 17.9362C122.568 18.4934 122.13 19.2 121.668 20.0608Z" fill="black"/>
<path d="M149.182 19.1999L148.824 20.2995C148.302 20.8866 147.774 21.4787 147.247 22.0658C146.625 22.7325 146.063 23.2898 145.55 23.7376C144.565 24.5834 143.59 25.1705 142.635 25.5039C142.252 25.6482 141.848 25.7676 141.416 25.8621C140.809 26.1657 140.221 26.3149 139.649 26.3149C138.52 26.3149 137.594 26.0064 136.878 25.3845C136.112 24.7327 135.734 23.862 135.734 22.7823C135.734 21.9713 135.972 21.2299 136.45 20.5632C136.928 19.8964 137.55 19.4238 138.311 19.1551L140.605 20.2547L140.654 20.2049C140.605 20.2049 140.46 19.8566 140.212 19.165C139.963 18.4734 139.838 17.9908 139.838 17.7221C139.838 16.9111 140.112 16.2593 140.664 15.7767C141.217 15.2891 141.893 15.0502 142.709 15.0502C144.092 15.0502 145.003 15.6622 145.431 16.8912L143.451 18.0157C143.595 17.6326 143.665 17.2892 143.665 16.9907C143.665 16.6424 143.585 16.329 143.426 16.0603C143.252 15.7269 142.998 15.5577 142.66 15.5577C142.406 15.5577 142.187 15.6672 142.013 15.8812C141.839 16.0951 141.749 16.3389 141.749 16.6076C141.749 17.2146 142.097 18.1898 142.799 19.5432C143.53 20.9612 143.898 21.9663 143.898 22.5534C143.898 23.3196 143.684 23.9366 143.252 24.4143L143.301 24.464C143.331 24.4939 143.381 24.5138 143.446 24.5138C143.684 24.5138 144.187 24.2202 144.948 23.6281C146.381 22.5136 147.605 21.2796 148.625 19.9263C148.819 19.6626 149.003 19.4238 149.182 19.1999ZM137.599 23.3594C137.599 24.0262 137.783 24.5934 138.147 25.0561C138.545 25.5636 139.062 25.8223 139.699 25.8223C140.306 25.8223 140.804 25.5885 141.202 25.1158C141.6 24.6481 141.799 24.1107 141.799 23.5037C141.799 23.041 141.664 22.4688 141.391 21.7822C141.182 21.2896 140.968 20.8567 140.744 20.4935C139.838 20.4935 139.097 20.7423 138.525 21.2349C137.908 21.7573 137.599 22.4688 137.599 23.3594Z" fill="black"/>
<path d="M149.849 25.9369L146.436 26.32L150.043 15.1897C149.008 14.8215 148.292 14.2592 147.894 13.493L149.615 12.274C149.615 12.8959 149.879 13.483 150.402 14.0403C150.974 12.2242 151.73 10.7913 152.67 9.74141C153.894 8.3383 155.327 7.64172 156.969 7.64172C158.606 7.64172 159.427 8.30845 159.427 9.64688C159.427 10.9356 158.606 12.1944 156.969 13.4184C156.347 13.8811 155.601 14.2891 154.725 14.6374C153.979 14.926 153.243 15.1051 152.526 15.1847L149.088 25.6931H149.397C150.337 22.9715 151.267 20.7971 152.193 19.1751C153.785 16.4186 155.546 15.0454 157.472 15.0454C157.855 15.0454 158.193 15.1747 158.487 15.4285C158.78 15.6822 158.93 16.0007 158.93 16.3838C158.93 16.9709 158.785 17.6078 158.502 18.2944L156.88 23.3596C156.77 23.7078 156.711 24.0462 156.711 24.3646C156.711 24.7477 156.9 24.9368 157.283 24.9368H157.333C157.746 24.9368 158.278 24.6582 158.935 24.1009C159.875 23.2899 160.925 22.1356 162.089 20.6379C162.313 20.3195 162.661 19.8568 163.139 19.2547L162.756 20.3543C161.034 22.9317 159.303 24.7179 157.552 25.703C156.82 26.116 156.079 26.325 155.332 26.325C155.029 26.325 154.75 26.2155 154.497 25.9916C154.243 25.7677 154.113 25.514 154.113 25.2254C154.113 25.1955 154.193 24.703 154.352 23.7477L156.114 18.2546C156.243 17.8566 156.308 17.5083 156.308 17.2048C156.308 16.7769 156.099 16.5579 155.686 16.5579C154.919 16.5579 154.079 17.2247 153.153 18.5631C152.009 20.22 151.053 22.2251 150.287 24.5835C150.088 25.1657 149.944 25.6185 149.849 25.9369ZM153.312 12.468L152.621 14.5677H152.954C154.098 14.5677 155.104 14.0403 155.964 12.9905C156.76 12.0202 157.158 10.9853 157.158 9.88571C157.158 8.80103 156.76 8.26367 155.964 8.26367C155.118 8.26367 154.233 9.66678 153.312 12.468Z" fill="black"/>
<path d="M174.877 19.1552L174.493 20.2548C173.185 21.9565 172.07 23.2004 171.15 23.9815C169.587 25.2851 168.095 25.9419 166.662 25.9419C166.154 25.9419 165.682 25.8125 165.254 25.5588L164.01 26.0613C163.532 26.2355 163.03 26.325 162.507 26.325C160.885 26.325 160.069 25.5041 160.069 23.8671C160.069 22.1008 160.96 20.23 162.746 18.2547C164.672 16.1201 166.597 15.0554 168.528 15.0554C170.185 15.0554 171.01 15.8514 171.01 17.4436C171.01 18.6875 170.389 20.1752 169.15 21.9117C168.368 22.9964 167.637 23.7925 166.95 24.3C166.597 24.5687 166.423 24.7627 166.423 24.8722C166.423 25.0015 166.672 25.0612 167.164 25.0612C168.025 25.0612 168.861 24.8224 169.672 24.3448C171.055 23.5337 172.299 22.4192 173.399 21.0012L174.185 19.9961C174.424 19.6876 174.653 19.409 174.877 19.1552ZM166.712 15.8564L166.806 15.6425C166.314 15.8017 165.801 16.1102 165.279 16.5729C164.214 17.5282 163.433 18.787 162.94 20.3444C162.686 21.1554 162.557 21.9515 162.557 22.7327C162.557 23.3695 162.666 23.9268 162.89 24.4045C163.179 25.0115 163.607 25.31 164.179 25.31C164.308 25.31 164.353 25.1906 164.323 24.9518C164.274 24.7279 164.204 24.4492 164.109 24.1159L163.776 23.1108C163.667 22.7625 163.607 22.459 163.607 22.2053C163.607 21.2798 163.791 20.3245 164.154 19.3294C164.522 18.3343 165.005 17.4934 165.612 16.8117C165.995 16.3988 166.358 16.0803 166.712 15.8564ZM164.249 21.8072C164.249 23.2252 164.771 24.1855 165.811 24.698C166.323 24.1905 166.781 23.5288 167.179 22.7177C168.01 20.9962 168.428 19.3592 168.428 17.7969C168.428 16.6376 168.085 16.0554 167.393 16.0554C166.831 16.0554 166.249 16.4933 165.642 17.369C165.129 18.1153 164.751 18.9363 164.512 19.8269C164.338 20.4638 164.249 21.0758 164.249 21.6679V21.8072Z" fill="black"/>
<path d="M173.707 31.7633L170.005 32.0718C170.165 31.6588 170.309 31.2508 170.433 30.8528L170.841 29.7084L171.199 28.7033C171.279 28.4794 171.384 28.1709 171.508 27.7729L174.04 19.9612C174.503 18.5432 174.732 17.4237 174.732 16.5928C174.732 16.0654 174.309 15.8066 173.468 15.8066L173.613 15.2792L178.22 15.0404C178.125 15.2295 177.996 15.528 177.837 15.9261C177.568 16.5779 177.369 17.1351 177.24 17.5978C177.24 17.6277 177.145 17.9262 176.951 18.4835L172.702 31.5245H173.229C174.235 27.7182 175.22 24.5189 176.19 21.9216C176.971 19.8369 177.822 18.2297 178.747 17.0953C179.096 16.6674 179.439 16.2992 179.772 15.9957C180.459 15.3588 181.22 15.0404 182.066 15.0404C183.434 15.0404 184.121 15.8912 184.121 17.5978C184.121 18.8716 183.698 20.3046 182.857 21.8967C182.111 23.28 181.136 24.4542 179.942 25.4095C179.175 26.0165 178.404 26.315 177.623 26.315C176.842 26.315 176.255 26.0464 175.857 25.504L177.479 24.1656V24.499C177.479 25.1358 177.812 25.4543 178.484 25.4543C179.026 25.4543 179.519 25.106 179.966 24.4044C180.335 23.8322 180.618 23.1605 180.827 22.3993C181.096 21.429 181.305 20.3394 181.449 19.1253C181.479 18.792 181.499 18.4984 181.499 18.2397C181.499 17.364 181.26 16.9261 180.782 16.9261C180.116 16.9261 179.349 17.6277 178.489 19.0258C177.852 20.0757 177.2 21.5037 176.528 23.2999L175.692 25.5936C174.797 28.0864 174.135 30.1413 173.707 31.7633Z" fill="black"/>
<path d="M192.142 15.3588C192.221 17.6028 191.972 19.8916 191.122 22.0062C190.281 24.1208 188.823 25.9667 187.052 27.3897C185.28 28.8227 183.25 29.9024 181.146 30.7433C179.046 31.5991 176.862 32.226 174.662 32.7634C170.254 33.7883 165.771 34.3854 161.283 34.8432C156.795 35.2959 152.297 35.5895 147.799 35.8283C138.803 36.3109 129.803 36.4751 120.812 36.7239C111.816 36.9528 102.83 37.2115 93.8442 37.5598C84.8484 37.8484 75.8426 38.0225 66.8368 37.9977C62.334 37.9877 57.8311 37.9181 53.3232 37.7738C48.8203 37.6394 44.3174 37.3956 39.8245 37.0175C35.3315 36.6443 30.8436 36.1418 26.3854 35.4054C21.9373 34.6591 17.4991 33.6938 13.23 32.1414C11.1104 31.3453 9.02567 30.4049 7.11008 29.171C5.20443 27.942 3.4381 26.4096 2.19919 24.4741C0.950319 22.5535 0.333348 20.2647 0.333348 18.0008C0.328373 15.727 0.850808 13.5029 1.57724 11.3784C0.920466 13.5228 0.477639 15.7618 0.562224 17.9959C0.621931 20.2249 1.27871 22.4341 2.53255 24.2601C3.77147 26.1011 5.51789 27.544 7.40861 28.6983C9.30928 29.8527 11.3741 30.7284 13.4788 31.4548C17.7031 32.9077 22.1065 33.8082 26.5347 34.4799C30.9679 35.1417 35.436 35.5696 39.909 35.8781C57.8261 37.0374 75.8327 36.704 93.7945 36.0721C111.781 35.4303 129.788 35.3059 147.75 34.6889C152.238 34.5197 156.726 34.2909 161.199 33.9127C165.667 33.5246 170.13 32.9922 174.503 32.0568C176.688 31.5792 178.857 31.0169 180.942 30.2258C183.031 29.4496 185.041 28.4396 186.808 27.0862C188.574 25.7379 190.037 23.9765 190.918 21.9216C191.818 19.8717 192.147 17.6028 192.142 15.3588Z" fill="black"/>
<path d="M6.05533 23.3197C5.43339 22.3843 4.85125 21.4141 4.35369 20.404C3.87106 19.3841 3.46804 18.3193 3.23916 17.2048C3.01028 16.0952 2.97545 14.9259 3.20931 13.8015C3.44813 12.672 3.98052 11.6172 4.68705 10.7116C6.12002 8.89555 8.13015 7.67156 10.1751 6.70133C12.24 5.75099 14.4043 5.03949 16.5886 4.45734C20.9721 3.30799 25.4451 2.63131 29.9231 2.08897C34.4061 1.56156 38.8991 1.20332 43.397 0.924688C52.3928 0.357473 61.4036 0.213181 70.4044 0.0937672C79.4102 -0.00574423 88.411 -0.00574391 97.4118 0.00420724C106.413 0.0589385 115.413 0.153474 124.419 0.357473C133.42 0.581374 142.426 0.845078 151.417 1.54166C155.91 1.88 160.403 2.3079 164.876 2.89501C169.344 3.49706 173.812 4.23842 178.175 5.45743C180.35 6.07938 182.504 6.83069 184.534 7.86561C185.549 8.38307 186.524 8.99506 187.405 9.73145C188.281 10.4678 189.067 11.3585 189.544 12.4232C190.027 13.4781 190.196 14.6821 190.012 15.8166C189.838 16.956 189.41 18.0307 188.868 19.0258C187.763 21.0111 186.251 22.7127 184.668 24.3099C186.196 22.663 187.644 20.9116 188.669 18.9213C189.171 17.9262 189.564 16.8714 189.704 15.7768C189.853 14.6871 189.664 13.5676 189.186 12.5924C188.718 11.6072 187.957 10.7863 187.096 10.0996C186.236 9.41301 185.28 8.8458 184.275 8.36317C182.27 7.40288 180.136 6.71625 177.976 6.15401C173.647 5.02456 169.204 4.34788 164.751 3.82047C160.293 3.30301 155.815 2.94477 151.332 2.67609C133.39 1.63122 115.394 1.52673 97.4018 1.48693C79.4102 1.39239 61.4086 1.27298 43.4567 2.05912C38.9687 2.26809 34.4857 2.55667 30.0227 3.01443C25.5645 3.48213 21.1114 4.0991 16.7628 5.15392C14.5884 5.67138 12.444 6.32318 10.399 7.20386C8.37893 8.09946 6.39865 9.24384 4.99056 10.9455C4.29398 11.7913 3.7616 12.7815 3.50784 13.8562C3.25409 14.9309 3.26404 16.0554 3.45311 17.15C3.64218 18.2496 4.00042 19.3144 4.44822 20.3443C4.91593 21.3793 5.46324 22.3594 6.05533 23.3197Z" fill="black"/>
</svg>
