<svg width="45" height="44" viewBox="0 0 45 44" fill="none" xmlns="http://www.w3.org/2000/svg">
<circle cx="22.8333" cy="22" r="22" fill="#D5D5D5"/>
<path d="M29.5667 29.0032H16.5919C16.3653 29.0032 16.1817 29.1868 16.1817 29.4133C16.1817 29.6398 16.3653 29.8235 16.5919 29.8235H29.5668C29.7932 29.8235 29.9769 29.6398 29.9769 29.4133C29.9769 29.1868 29.7933 29.0032 29.5667 29.0032Z" fill="#808080"/>
<path d="M25.7925 30.9612H16.5919C16.3653 30.9612 16.1817 31.1448 16.1817 31.3713C16.1817 31.5979 16.3653 31.7815 16.5919 31.7815H25.7925C26.019 31.7815 26.2026 31.5979 26.2026 31.3713C26.2026 31.1448 26.019 30.9612 25.7925 30.9612Z" fill="#808080"/>
<path d="M32.9149 17.3701C32.6884 17.3701 32.5048 17.5538 32.5048 17.7803V32.4354C32.5048 33.9486 31.2737 35.1797 29.7604 35.1797H16.3979C14.8846 35.1797 13.6536 33.9486 13.6536 32.4354V14.751C13.6536 13.2378 14.8847 12.0066 16.3979 12.0066H29.7604C31.2737 12.0066 32.5048 13.2378 32.5048 14.751V15.8972C32.5047 16.1237 32.6884 16.3074 32.9149 16.3074C33.1414 16.3074 33.325 16.1237 33.325 15.8972V14.751C33.325 12.7854 31.7259 11.1864 29.7604 11.1864H27.7291V10.275C27.7291 9.5317 27.3821 8.85757 26.7772 8.42565C26.1723 7.99372 25.422 7.8844 24.719 8.12574L15.2547 11.3748L15.2559 11.3751C13.849 11.8524 12.8333 13.1849 12.8333 14.751V32.4354C12.8333 34.4009 14.4324 36 16.3979 36H29.7604C31.726 36 33.325 34.4009 33.325 32.4354V17.7803C33.325 17.5538 33.1415 17.3701 32.9149 17.3701ZM24.9853 8.90159C25.4345 8.74737 25.9139 8.81721 26.3005 9.09322C26.6871 9.36928 26.9089 9.79994 26.9089 10.275V11.1863H18.3298L24.9853 8.90159Z" fill="#808080"/>
<path d="M27.9004 13.9919H18.2578C16.9408 13.9919 15.8694 15.0634 15.8694 16.3803V24.9373C15.8694 26.2542 16.9409 27.3257 18.2578 27.3257H27.9004C29.2173 27.3257 30.2887 26.2542 30.2887 24.9373V16.3803H30.2888C30.2888 15.0633 29.2173 13.9919 27.9004 13.9919ZM27.9004 26.5054H18.2578C17.3931 26.5054 16.6897 25.802 16.6897 24.9373V16.3803C16.6897 15.5156 17.3931 14.8122 18.2578 14.8122H27.9004C28.765 14.8122 29.4685 15.5156 29.4685 16.3803V24.9373H29.4685C29.4685 25.802 28.765 26.5054 27.9004 26.5054Z" fill="#808080"/>
<path d="M25.9942 17.9763H25.4818C25.6429 17.4777 25.5262 16.9082 25.131 16.5131C24.5739 15.9559 23.6612 15.9548 23.0966 16.5108C23.0898 16.5175 23.0835 16.5231 23.0779 16.5276C23.0773 16.527 23.0767 16.5263 23.0761 16.5257C22.8227 16.2498 22.4728 16.0934 22.0909 16.0853C21.695 16.0772 21.3075 16.2328 21.0273 16.5131C20.6321 16.9082 20.5154 17.4777 20.6765 17.9763H20.1641C19.1906 17.9763 18.3985 18.7683 18.3985 19.7418C18.3985 20.4644 18.835 21.0866 19.458 21.3596V23.424C19.458 24.4215 20.2695 25.2331 21.2671 25.2331H24.8381C25.8356 25.2331 26.6471 24.4216 26.6471 23.424V21.3817C27.2982 21.1214 27.7596 20.4848 27.7596 19.7418C27.7597 18.7683 26.9677 17.9763 25.9942 17.9763ZM21.6073 17.0931C21.7303 16.9701 21.9006 16.9014 22.0734 16.9054C22.2297 16.9087 22.3713 16.9709 22.4719 17.0805C22.6797 17.3068 22.902 17.3587 23.0518 17.3625C23.2739 17.3685 23.4889 17.2757 23.6721 17.0953C23.917 16.8543 24.3113 16.8533 24.5511 17.093C24.7928 17.3348 24.7928 17.7281 24.5511 17.9697L24.5575 17.9762H21.6009L21.6074 17.9697C21.3656 17.7281 21.3656 17.3348 21.6073 17.0931ZM19.2189 19.7418C19.2189 19.2205 19.643 18.7966 20.1641 18.7966H21.7738V20.6871H20.1641C19.643 20.6871 19.2189 20.2631 19.2189 19.7418ZM23.6756 24.4128H21.2672C20.722 24.4128 20.2785 23.9692 20.2785 23.424V21.5074H21.7739V22.9601C21.7739 23.1866 21.9576 23.3702 22.1841 23.3702C22.4106 23.3702 22.5942 23.1866 22.5942 22.9601V21.5074H23.6757V24.4128H23.6756ZM23.6756 20.6871H22.5941V18.7966H23.6756V20.6871ZM25.8269 23.424C25.8269 23.9693 25.3833 24.4128 24.8382 24.4128H24.4958V21.5074H25.8269V23.424ZM25.9942 20.6871H24.4959V18.7966H25.9942C26.5154 18.7966 26.9395 19.2206 26.9395 19.7418C26.9394 20.2631 26.5154 20.6871 25.9942 20.6871Z" fill="#808080"/>
</svg>
