<svg width="45" height="44" viewBox="0 0 45 44" fill="none" xmlns="http://www.w3.org/2000/svg">
<circle cx="22.167" cy="22" r="22" fill="#E8D749"/>
<path d="M28.9007 29.0032H15.9258C15.6993 29.0032 15.5156 29.1868 15.5156 29.4133C15.5156 29.6398 15.6993 29.8235 15.9258 29.8235H28.9007C29.1272 29.8235 29.3108 29.6398 29.3108 29.4133C29.3108 29.1868 29.1272 29.0032 28.9007 29.0032Z" fill="#609416"/>
<path d="M25.1264 30.9612H15.9258C15.6993 30.9612 15.5156 31.1448 15.5156 31.3713C15.5156 31.5979 15.6993 31.7815 15.9258 31.7815H25.1264C25.3529 31.7815 25.5366 31.5979 25.5366 31.3713C25.5366 31.1448 25.3529 30.9612 25.1264 30.9612Z" fill="#609416"/>
<path d="M32.2486 17.3701C32.0221 17.3701 31.8385 17.5538 31.8385 17.7803V32.4354C31.8385 33.9486 30.6073 35.1797 29.0941 35.1797H15.7316C14.2183 35.1797 12.9872 33.9486 12.9872 32.4354V14.751C12.9872 13.2378 14.2184 12.0066 15.7316 12.0066H29.0941C30.6073 12.0066 31.8385 13.2378 31.8385 14.751V15.8972C31.8384 16.1237 32.022 16.3074 32.2486 16.3074C32.4751 16.3074 32.6587 16.1237 32.6587 15.8972V14.751C32.6587 12.7854 31.0596 11.1864 29.0941 11.1864H27.0628V10.275C27.0628 9.5317 26.7158 8.85757 26.1109 8.42565C25.506 7.99372 24.7557 7.8844 24.0527 8.12574L14.5883 11.3748L14.5895 11.3751C13.1826 11.8524 12.167 13.1849 12.167 14.751V32.4354C12.167 34.4009 13.7661 36 15.7316 36H29.0941C31.0597 36 32.6587 34.4009 32.6587 32.4354V17.7803C32.6587 17.5538 32.4751 17.3701 32.2486 17.3701ZM24.3189 8.90159C24.7682 8.74737 25.2476 8.81721 25.6342 9.09322C26.0208 9.36928 26.2426 9.79994 26.2426 10.275V11.1863H17.6635L24.3189 8.90159Z" fill="#609416"/>
<path d="M27.2341 13.9919H17.5915C16.2745 13.9919 15.2031 15.0634 15.2031 16.3803V24.9373C15.2031 26.2542 16.2746 27.3257 17.5915 27.3257H27.234C28.551 27.3257 29.6224 26.2542 29.6224 24.9373V16.3803H29.6225C29.6225 15.0633 28.551 13.9919 27.2341 13.9919ZM27.2341 26.5054H17.5915C16.7268 26.5054 16.0234 25.802 16.0234 24.9373V16.3803C16.0234 15.5156 16.7268 14.8122 17.5915 14.8122H27.234C28.0986 14.8122 28.8022 15.5156 28.8022 16.3803V24.9373H28.8022C28.8021 25.802 28.0987 26.5054 27.2341 26.5054Z" fill="#609416"/>
<path d="M25.3281 17.9763H24.8158C24.9768 17.4777 24.8601 16.9082 24.4649 16.5131C23.9078 15.9559 22.9952 15.9548 22.4305 16.5108C22.4237 16.5175 22.4174 16.5231 22.4118 16.5276C22.4112 16.527 22.4106 16.5263 22.41 16.5257C22.1566 16.2498 21.8067 16.0934 21.4248 16.0853C21.0289 16.0772 20.6415 16.2328 20.3612 16.5131C19.966 16.9082 19.8493 17.4777 20.0104 17.9763H19.498C18.5245 17.9763 17.7324 18.7683 17.7324 19.7418C17.7324 20.4644 18.1689 21.0866 18.7919 21.3596V23.424C18.7919 24.4215 19.6034 25.2331 20.601 25.2331H24.172C25.1695 25.2331 25.981 24.4216 25.981 23.424V21.3817C26.6322 21.1214 27.0935 20.4848 27.0935 19.7418C27.0937 18.7683 26.3016 17.9763 25.3281 17.9763ZM20.9412 17.0931C21.0642 16.9701 21.2346 16.9014 21.4074 16.9054C21.5637 16.9087 21.7052 16.9709 21.8059 17.0805C22.0136 17.3068 22.2359 17.3587 22.3857 17.3625C22.6078 17.3685 22.8228 17.2757 23.006 17.0953C23.2509 16.8543 23.6452 16.8533 23.885 17.093C24.1267 17.3348 24.1267 17.7281 23.885 17.9697L23.8914 17.9762H20.9349L20.9413 17.9697C20.6995 17.7281 20.6995 17.3348 20.9412 17.0931ZM18.5528 19.7418C18.5528 19.2205 18.9769 18.7966 19.4981 18.7966H21.1077V20.6871H19.4981C18.9769 20.6871 18.5528 20.2631 18.5528 19.7418ZM23.0095 24.4128H20.6012C20.0559 24.4128 19.6124 23.9692 19.6124 23.424V21.5074H21.1078V22.9601C21.1078 23.1866 21.2915 23.3702 21.518 23.3702C21.7445 23.3702 21.9282 23.1866 21.9282 22.9601V21.5074H23.0096V24.4128H23.0095ZM23.0095 20.6871H21.928V18.7966H23.0095V20.6871ZM25.1608 23.424C25.1608 23.9693 24.7173 24.4128 24.1721 24.4128H23.8297V21.5074H25.1608V23.424ZM25.3281 20.6871H23.8298V18.7966H25.3281C25.8494 18.7966 26.2734 19.2206 26.2734 19.7418C26.2733 20.2631 25.8494 20.6871 25.3281 20.6871Z" fill="#609416"/>
</svg>
