<svg width="45" height="44" viewBox="0 0 45 44" fill="none" xmlns="http://www.w3.org/2000/svg">
<circle cx="22.3335" cy="22" r="22" fill="#E8D749"/>
<path d="M36.0146 14.1764H26.5771C27.1131 13.8917 27.5969 13.5604 27.9446 13.1805C29.0273 11.9946 29.0276 10.0745 27.9451 8.88836L27.9446 8.88782C26.8592 7.70406 25.1019 7.70406 24.0165 8.88782C23.3433 9.62354 22.8363 10.9168 22.4844 12.1041C22.1326 10.9171 21.6256 9.62354 20.9524 8.88782C19.867 7.70406 18.1096 7.70406 17.0242 8.88782L17.0238 8.88836C15.9413 10.0745 15.9416 11.9946 17.0242 13.1805C17.3719 13.5602 17.856 13.892 18.3918 14.1764H8.95425C8.61149 14.1764 8.3335 14.4802 8.3335 14.8548V20.3506C8.3335 20.7252 8.61149 21.0287 8.95425 21.0287H10.1635V35.3219C10.1635 35.6965 10.4412 36 10.784 36H34.1849C34.5276 36 34.8056 35.6965 34.8056 35.3219V21.0287H36.0146C36.3576 21.0287 36.6354 20.7252 36.6354 20.3506V14.8548C36.6354 14.4802 36.3576 14.1764 36.0146 14.1764ZM29.1827 21.6377L28.5223 21.0669C28.2967 20.8718 27.9779 20.8718 27.7523 21.0669L27.2109 21.5352C27.2123 20.9703 27.1956 20.2895 27.1367 19.5681C26.9979 17.8628 26.6746 16.5133 26.1723 15.5329H27.8518C28.9628 16.7393 29.1957 19.6827 29.1827 21.638V21.6377ZM17.1171 15.5332H18.7966C18.2943 16.5135 17.971 17.8631 17.8321 19.5683C17.7733 20.2898 17.7565 20.9706 17.758 21.5352L17.2166 21.0672C16.991 20.8721 16.6721 20.8721 16.4466 21.0672L15.7857 21.6385C15.7717 19.684 16.0036 16.7409 17.1171 15.5332ZM19.9992 15.9756V19.6722H19.068C19.1815 18.3103 19.4484 16.8905 19.9992 15.9756ZM21.2407 15.5332H23.7282V34.6435H21.2407V15.5332ZM24.9697 15.9764C25.5192 16.8908 25.7857 18.3103 25.8997 19.6722H24.9697V15.9764ZM24.8943 9.84716C25.4946 9.19244 26.4663 9.19244 27.0666 9.84716C27.6654 10.5032 27.6654 11.5651 27.0666 12.2211C26.5596 12.7752 25.5296 13.244 24.5314 13.59L25.5884 12.4431C25.7465 12.2725 25.8091 12.0228 25.7524 11.7879C25.696 11.5532 25.5291 11.3694 25.3146 11.3059C25.1004 11.2424 24.8712 11.3089 24.7141 11.4803L23.6299 12.6563C23.9475 11.554 24.3804 10.4088 24.8943 9.84716ZM17.9021 9.84716C18.5021 9.19244 19.474 9.19244 20.0743 9.84716C20.5872 10.4077 21.0199 11.5527 21.3375 12.6552L20.2548 11.4806C20.0113 11.2177 19.619 11.2198 19.378 11.4852C19.1369 11.7505 19.1379 12.1792 19.3802 12.4431L20.4383 13.5911C19.4405 13.2451 18.4103 12.7766 17.9021 12.2209C17.3035 11.5648 17.3035 10.5032 17.9021 9.84716ZM9.57475 15.5332H15.5863C15.0842 16.5135 14.7609 17.8631 14.622 19.5683C14.6191 19.603 14.6166 19.6375 14.6139 19.6722H9.57475V15.5332ZM11.4047 21.0287H14.5513C14.5316 22.167 14.5949 22.9899 14.5989 23.0373L14.6173 23.0354C14.6365 23.2843 14.7794 23.5017 14.9891 23.601C15.1987 23.7003 15.4415 23.6656 15.6207 23.5109L16.8317 22.4641L18.0424 23.5109C18.2364 23.6788 18.5034 23.7046 18.7215 23.5763C18.9394 23.4479 19.0667 23.1904 19.0451 22.9208H19.0458C19.0007 22.2913 18.9855 21.66 18.9995 21.0293H19.9992V34.644H11.4047V21.0287ZM33.5641 34.6435H24.9697V21.0287H25.9684C25.9829 21.6598 25.9676 22.2913 25.9231 22.9205H25.9238C25.9021 23.1901 26.0294 23.4479 26.2474 23.5763C26.4655 23.7046 26.7324 23.6788 26.9265 23.5106L28.1374 22.4641L29.3481 23.5106C29.5274 23.6656 29.7702 23.7003 29.98 23.601C30.1895 23.5017 30.3323 23.2843 30.3515 23.0354L30.37 23.037C30.374 22.9896 30.4372 22.167 30.4175 21.0287H33.5641V34.6435ZM35.3941 19.6722H30.355C30.3523 19.6375 30.3498 19.603 30.3469 19.5683C30.208 17.8631 29.8847 16.5135 29.3826 15.5332H35.3941V19.6722Z" fill="#609416"/>
</svg>
