<svg width="45" height="44" viewBox="0 0 45 44" fill="none" xmlns="http://www.w3.org/2000/svg">
<circle cx="22.8333" cy="22" r="22" fill="#D5D5D5"/>
<path d="M36.5144 14.1764H27.0769C27.6129 13.8917 28.0968 13.5604 28.4444 13.1805C29.5271 11.9946 29.5274 10.0745 28.4449 8.88836L28.4444 8.88782C27.3591 7.70406 25.6017 7.70406 24.5163 8.88782C23.8431 9.62354 23.3361 10.9168 22.9843 12.1041C22.6324 10.9171 22.1254 9.62354 21.4522 8.88782C20.3668 7.70406 18.6095 7.70406 17.5241 8.88782L17.5236 8.88836C16.4411 10.0745 16.4414 11.9946 17.5241 13.1805C17.8717 13.5602 18.3558 13.892 18.8916 14.1764H9.45406C9.11131 14.1764 8.83331 14.4802 8.83331 14.8548V20.3506C8.83331 20.7252 9.11131 21.0287 9.45406 21.0287H10.6633V35.3219C10.6633 35.6965 10.9411 36 11.2838 36H34.6847C35.0275 36 35.3054 35.6965 35.3054 35.3219V21.0287H36.5144C36.8574 21.0287 37.1352 20.7252 37.1352 20.3506V14.8548C37.1352 14.4802 36.8574 14.1764 36.5144 14.1764ZM29.6825 21.6377L29.0221 21.0669C28.7966 20.8718 28.4777 20.8718 28.2521 21.0669L27.7107 21.5352C27.7122 20.9703 27.6954 20.2895 27.6366 19.5681C27.4977 17.8628 27.1744 16.5133 26.6721 15.5329H28.3516C29.4626 16.7393 29.6955 19.6827 29.6825 21.638V21.6377ZM17.6169 15.5332H19.2964C18.7941 16.5135 18.4708 17.8631 18.332 19.5683C18.2731 20.2898 18.2564 20.9706 18.2578 21.5352L17.7164 21.0672C17.4908 20.8721 17.172 20.8721 16.9464 21.0672L16.2855 21.6385C16.2715 19.684 16.5034 16.7409 17.6169 15.5332ZM20.499 15.9756V19.6722H19.5678C19.6813 18.3103 19.9482 16.8905 20.499 15.9756ZM21.7405 15.5332H24.228V34.6435H21.7405V15.5332ZM25.4695 15.9764C26.0191 16.8908 26.2855 18.3103 26.3995 19.6722H25.4695V15.9764ZM25.3941 9.84716C25.9944 9.19244 26.9661 9.19244 27.5664 9.84716C28.1652 10.5032 28.1652 11.5651 27.5664 12.2211C27.0594 12.7752 26.0294 13.244 25.0312 13.59L26.0883 12.4431C26.2463 12.2725 26.3089 12.0228 26.2522 11.7879C26.1959 11.5532 26.0289 11.3694 25.8144 11.3059C25.6002 11.2424 25.371 11.3089 25.2139 11.4803L24.1297 12.6563C24.4474 11.554 24.8802 10.4088 25.3941 9.84716ZM18.4019 9.84716C19.0019 9.19244 19.9738 9.19244 20.5741 9.84716C21.087 10.4077 21.5197 11.5527 21.8373 12.6552L20.7546 11.4806C20.5111 11.2177 20.1189 11.2198 19.8778 11.4852C19.6367 11.7505 19.6377 12.1792 19.88 12.4431L20.9381 13.5911C19.9403 13.2451 18.9101 12.7766 18.4019 12.2209C17.8033 11.5648 17.8033 10.5032 18.4019 9.84716ZM10.0746 15.5332H16.0861C15.584 16.5135 15.2607 17.8631 15.1218 19.5683C15.1189 19.603 15.1164 19.6375 15.1137 19.6722H10.0746V15.5332ZM11.9046 21.0287H15.0512C15.0315 22.167 15.0947 22.9899 15.0987 23.0373L15.1171 23.0354C15.1364 23.2843 15.2792 23.5017 15.489 23.601C15.6985 23.7003 15.9413 23.6656 16.1205 23.5109L17.3315 22.4641L18.5422 23.5109C18.7363 23.6788 19.0032 23.7046 19.2213 23.5763C19.4393 23.4479 19.5666 23.1904 19.5449 22.9208H19.5456C19.5006 22.2913 19.4853 21.66 19.4993 21.0293H20.499V34.644H11.9046V21.0287ZM34.0639 34.6435H25.4695V21.0287H26.4682C26.4827 21.6598 26.4674 22.2913 26.4229 22.9205H26.4236C26.402 23.1901 26.5293 23.4479 26.7472 23.5763C26.9653 23.7046 27.2322 23.6788 27.4263 23.5106L28.6372 22.4641L29.848 23.5106C30.0272 23.6656 30.27 23.7003 30.4798 23.601C30.6893 23.5017 30.8322 23.2843 30.8514 23.0354L30.8698 23.037C30.8738 22.9896 30.937 22.167 30.9173 21.0287H34.0639V34.6435ZM35.8939 19.6722H30.8548C30.8521 19.6375 30.8496 19.603 30.8467 19.5683C30.7078 17.8631 30.3845 16.5135 29.8824 15.5332H35.8939V19.6722Z" fill="#808080"/>
</svg>
