<svg width="45" height="44" viewBox="0 0 45 44" fill="none" xmlns="http://www.w3.org/2000/svg">
<circle cx="22.8333" cy="22" r="22" fill="#E8D749"/>
<path d="M18.6546 26.697H19.723V27.7654H18.6546V26.697Z" fill="#609416"/>
<path d="M16.5174 22.9578H17.5858V24.0262H16.5174V22.9578Z" fill="#609416"/>
<path d="M12.244 19.7524H13.3124V20.8209H12.244V19.7524Z" fill="#609416"/>
<path d="M12.7779 24.5605H13.8463V25.629H12.7779V24.5605Z" fill="#609416"/>
<path d="M38.5567 16.8113C38.8165 16.0953 38.9542 15.3474 38.9542 14.5782C38.9542 10.9504 36.0038 8 32.3765 8C30.6195 8 28.9673 8.68419 27.7251 9.92633L27.2016 10.4498L26.6786 9.92685C25.436 8.68419 23.7843 8 22.0267 8C18.3995 8 15.4491 10.9504 15.4491 14.5777C15.4491 14.9778 15.4892 15.3709 15.5586 15.7562C14.6003 15.2306 13.5243 14.9447 12.411 14.9447C8.78372 14.9447 5.83331 17.8951 5.83331 21.5224C5.83331 23.2794 6.51751 24.9316 7.75964 26.1738L17.5859 36L25.8661 27.7198L27.2016 29.0553L29.7096 26.5473L31.1602 28.3601L32.5437 23.7484L33.9272 28.3601L36.9728 24.5534L35.7132 23.0418L36.6421 23.6608C37.0005 23.9002 37.4173 24.0262 37.8485 24.0262C38.4583 24.0262 38.9542 23.5298 38.9542 22.9205V17.653C38.9542 17.3145 38.7977 17.0142 38.5567 16.8113ZM25.9227 10.6823L27.2016 11.9606L28.4805 10.6817C29.521 9.64097 30.9048 9.06842 32.3765 9.06842C35.414 9.06842 37.8858 11.5402 37.8858 14.5777C37.8858 15.2684 37.7522 15.9377 37.5023 16.5763C37.1961 16.6253 36.9034 16.738 36.6421 16.9122L34.1528 18.572C33.868 18.3125 33.4929 18.1499 33.0779 18.1499H32.0095C31.5945 18.1499 31.2194 18.3125 30.9346 18.572L28.4453 16.9122C28.0869 16.6733 27.6701 16.5473 27.2389 16.5473C26.9309 16.5473 26.652 16.6749 26.4512 16.8791C24.0973 14.9157 22.171 12.552 20.7314 9.83243L20.4502 9.30135C20.9502 9.1511 21.4792 9.06842 22.0267 9.06842C23.4984 9.06842 24.8822 9.64097 25.9227 10.6823ZM30.4303 21.0534L27.853 22.7718C27.6701 22.8937 27.4575 22.9573 27.2016 22.9205L27.2389 17.6157C27.458 17.6157 27.6706 17.6799 27.8522 17.8017L30.4298 19.5202C30.4191 19.5966 30.4069 19.673 30.4069 19.7526V20.821C30.4069 20.9005 30.4191 20.977 30.4303 21.0534ZM31.4753 20.821V19.7526C31.4753 19.4578 31.7147 19.2184 32.0095 19.2184H33.0779C33.3727 19.2184 33.6121 19.4578 33.6121 19.7526V20.821C33.6121 21.1157 33.3727 21.3552 33.0779 21.3552H32.0095C31.7147 21.3552 31.4753 21.1157 31.4753 20.821ZM19.7874 10.3319C21.3671 13.316 23.5039 15.8923 26.1332 18.0015V19.8509C22.9825 17.6997 20.3834 14.8138 18.5951 11.4345L18.1767 10.6444C18.5549 10.274 18.9861 9.95789 19.4577 9.70774L19.7874 10.3319ZM17.5859 34.4892L8.51557 25.4184C7.47428 24.3778 6.90173 22.9941 6.90173 21.5224C6.90173 18.4849 9.37348 16.0131 12.411 16.0131C13.7867 16.0131 15.0974 16.528 16.1179 17.4592C16.4335 18.1056 16.8519 18.7055 17.3754 19.2291L18.0742 19.9279L17.5859 20.4167L15.5516 18.3818C15.2792 18.1098 14.9756 17.8818 14.6524 17.6922C14.1248 17.3095 13.4784 17.0815 12.778 17.0815C12.7172 17.0815 12.6578 17.0875 12.598 17.0907C12.536 17.0881 12.4741 17.0815 12.411 17.0815C9.96221 17.0815 7.97014 19.0736 7.97014 21.5224C7.97014 22.7085 8.43158 23.8238 9.27097 24.663L17.5859 32.9779L24.3553 26.209L25.1107 26.9644L17.5859 34.4892ZM14.0319 18.5649C14.5645 18.9539 14.9148 19.5783 14.9148 20.2868C14.9148 21.4653 13.9565 22.4236 12.778 22.4236C11.5995 22.4236 10.6412 21.4653 10.6412 20.2868C10.6412 19.149 11.5364 18.2253 12.6588 18.1622C13.1455 18.1969 13.6119 18.3338 14.0319 18.5649ZM18.6543 29.3683C17.4758 29.3683 16.5175 28.41 16.5175 27.2315C16.5175 26.816 16.6403 26.4221 16.8631 26.0775C17.096 26.1315 17.337 26.1631 17.5859 26.1631C18.3919 26.1631 19.1277 25.8618 19.6917 25.3688C20.3639 25.7436 20.7911 26.4516 20.7911 27.2315C20.7911 28.41 19.8328 29.3683 18.6543 29.3683ZM11.7096 24.5604C11.7096 24.1449 11.8325 23.751 12.0552 23.4065C12.2882 23.4605 12.5292 23.492 12.778 23.492C13.3641 23.492 13.9122 23.3313 14.3853 23.0556C14.4169 24.0888 14.9378 24.9994 15.7258 25.5636C15.3614 26.2426 14.6477 26.6973 13.8464 26.6973C12.6679 26.6973 11.7096 25.7389 11.7096 24.5604ZM18.4892 21.0239C19.2394 21.3755 19.7227 22.1265 19.7227 22.9578C19.7227 24.1363 18.7644 25.0946 17.5859 25.0946C16.4074 25.0946 15.4491 24.1363 15.4491 22.9578C15.4491 22.1265 15.9324 21.3755 16.6826 21.0239L17.5859 21.9272L18.4892 21.0239ZM11.0601 22.9883C10.7946 23.4563 10.6498 23.9788 10.6438 24.5257L10.0259 23.9081C9.38887 23.2703 9.03856 22.4236 9.03856 21.5224C9.03856 20.8032 9.26654 20.1378 9.65128 19.5901C9.6012 19.8147 9.57277 20.0473 9.57277 20.2868C9.57277 21.422 10.1672 22.4189 11.0601 22.9883ZM15.4537 27.3283C15.5051 29.0386 16.8999 30.4153 18.618 30.4346L17.5859 31.4673L13.8811 27.7631C14.4485 27.7566 14.9868 27.6006 15.4537 27.3283ZM21.8569 27.1963C21.8447 26.1044 21.28 25.1059 20.3761 24.5294C20.6393 24.0646 20.7911 23.5288 20.7911 22.9578C20.7911 22.8436 20.7784 22.7319 20.7661 22.6198L23.5994 25.453L21.8569 27.1963ZM27.2016 27.5445L18.1313 18.4737C17.09 17.4331 16.5175 16.0494 16.5175 14.5777C16.5175 13.4532 16.8579 12.4067 17.4385 11.5344L17.6506 11.9346C19.6335 15.6803 22.5657 18.8519 26.1332 21.1356V22.92C26.1332 23.5298 26.6296 24.0257 27.2389 24.0257C27.6701 24.0257 28.0869 23.8997 28.4453 23.6603L29.3742 23.041L28.1146 24.5529L29.0382 25.7074L27.2016 27.5445ZM30.722 26.1028L29.4939 24.5675L31.3861 22.2976C31.5248 22.3563 31.6756 22.3884 31.8311 22.4059L30.722 26.1028ZM34.3654 26.1028L33.2563 22.4059C33.4118 22.3884 33.5631 22.3563 33.7013 22.2976L35.5935 24.5675L34.3654 26.1028ZM37.8485 22.9578C37.6294 22.9578 37.4168 22.8937 37.2352 22.7718L34.6576 21.0534C34.6683 20.977 34.6805 20.9005 34.6805 20.821V19.7526C34.6805 19.673 34.6683 19.5966 34.6571 19.5202L37.2345 17.8017C37.4168 17.6799 37.6283 17.6152 37.8858 17.6536L37.8485 22.9578Z" fill="#609416"/>
</svg>
