<svg width="73" height="74" viewBox="0 0 73 74" fill="none" xmlns="http://www.w3.org/2000/svg">
<g filter="url(#filter0_d)">
<circle cx="36.5" cy="32.5015" r="32.5" fill="#609416"/>
<path d="M53.5706 19.9258L52.6648 19.042C53.3188 18.4033 53.3188 17.3684 52.6648 16.7297C52.0019 16.1108 50.9575 16.1108 50.2946 16.7297L49.3906 15.8465C50.5496 14.746 52.3998 14.7586 53.5431 15.8746C54.6867 16.9903 54.6989 18.7954 53.5706 19.9258Z" fill="white"/>
<path d="M19.8438 40.0015H21.125V43.7515H19.8438V40.0015Z" fill="white"/>
<path d="M45.4688 45.0015V43.6721C46.5995 43.3862 47.3894 42.391 47.3906 41.2515V39.9221C48.5214 39.6362 49.3112 38.641 49.3125 37.5015V36.1727C50.5631 35.859 51.3792 34.6862 51.2165 33.4365C51.0539 32.1865 49.9631 31.2502 48.6719 31.2515H40.6641V26.564C40.6606 23.6315 38.2245 21.2548 35.2188 21.2515H34.5781V27.5015C34.5772 27.7719 34.4874 28.0346 34.3219 28.2516L31.9196 31.3766C31.6769 31.6903 31.2974 31.8755 30.8945 31.8765H28.1719V30.0015H16V31.2515H26.8906V41.2515H21.125V42.5015H26.8906V46.2515H16V47.5015H28.1719V45.6265H31.7044L35.5481 47.5015H42.9062C44.3214 47.5015 45.4688 46.3821 45.4688 45.0015ZM32.0066 44.3765H28.1719V33.1265H30.8945C31.7006 33.1243 32.4592 32.7542 32.9447 32.1264L35.3476 29.0014C35.6789 28.5681 35.8581 28.0422 35.8594 27.5015V22.5497C37.886 22.86 39.3803 24.5626 39.3828 26.564V32.5015H48.6719C49.3794 32.5015 49.9531 33.0612 49.9531 33.7515C49.9531 34.4418 49.3794 35.0015 48.6719 35.0015H43.8672V36.2515H48.0312V37.5015C48.0312 38.1918 47.4576 38.7515 46.75 38.7515H41.9453V40.0015H46.1094V41.2515C46.1094 41.9418 45.5357 42.5015 44.8281 42.5015H41.9453V43.7515H44.1875V45.0015C44.1875 45.6918 43.6138 46.2515 42.9062 46.2515H35.8503L32.0066 44.3765Z" fill="white"/>
<path d="M16 18.7515H24.9688V20.0015H16V18.7515Z" fill="white"/>
<path d="M16 15.6265H27.5312V16.8765H16V15.6265Z" fill="white"/>
<path d="M16 12.5015H30.0938V13.7515H16V12.5015Z" fill="white"/>
<path d="M48.0312 45.0015H57V46.2515H48.0312V45.0015Z" fill="white"/>
<path d="M45.4688 48.1265H57V49.3765H45.4688V48.1265Z" fill="white"/>
<path d="M42.9062 51.2515H57V52.5015H42.9062V51.2515Z" fill="white"/>
<path d="M48.0313 28.8665L55.3838 21.6933C57.4539 19.6716 57.5446 16.4245 55.5908 14.2956C53.6371 12.1664 50.3188 11.8972 48.0313 13.6822C45.7437 11.8972 42.4255 12.1664 40.4717 14.2956C38.5179 16.4245 38.6086 19.6716 40.6788 21.6933L48.0313 28.8665ZM41.5847 14.9627C43.2397 13.3477 45.9233 13.3477 47.5783 14.9627L48.0313 15.4046L48.4842 14.9627C49.554 13.9144 51.1162 13.5037 52.581 13.8854C54.0459 14.2672 55.1901 15.3835 55.5815 16.8127C55.9728 18.2418 55.5517 19.7659 54.4773 20.8096L48.0313 27.0983L41.5847 20.8096C39.9324 19.194 39.9324 16.5783 41.5847 14.9627Z" fill="white"/>
</g>
<defs>
<filter id="filter0_d" x="0" y="0.00146484" width="73" height="73" filterUnits="userSpaceOnUse" color-interpolation-filters="sRGB">
<feFlood flood-opacity="0" result="BackgroundImageFix"/>
<feColorMatrix in="SourceAlpha" type="matrix" values="0 0 0 0 0 0 0 0 0 0 0 0 0 0 0 0 0 0 127 0"/>
<feOffset dy="4"/>
<feGaussianBlur stdDeviation="2"/>
<feColorMatrix type="matrix" values="0 0 0 0 0 0 0 0 0 0 0 0 0 0 0 0 0 0 0.25 0"/>
<feBlend mode="normal" in2="BackgroundImageFix" result="effect1_dropShadow"/>
<feBlend mode="normal" in="SourceGraphic" in2="effect1_dropShadow" result="shape"/>
</filter>
</defs>
</svg>
