<svg width="45" height="44" viewBox="0 0 45 44" fill="none" xmlns="http://www.w3.org/2000/svg">
<circle cx="22.6666" cy="22" r="22" fill="#E8D749"/>
<path d="M36.6199 25.0736L36.6241 25.0722L32.027 15.0417L33.1419 14.4869L32.7247 13.6516L31.6379 14.1929L31.4909 13.8723C31.3834 13.638 31.1064 13.5352 30.8722 13.6426C30.7706 13.6892 30.6891 13.7707 30.6425 13.8723L30.5113 14.1588C29.7203 13.7914 28.8588 13.6008 27.9867 13.6002H24.0667V12.6669H25.0001V11.7336H24.1979L24.5334 10.391C24.791 9.36007 24.1641 8.3155 23.1332 8.05785C22.1023 7.80025 21.0577 8.4271 20.8001 9.45801C20.7236 9.76426 20.7236 10.0847 20.8001 10.3909L21.1356 11.7335H20.3334V12.6668H21.2668V13.6002H17.3491C16.4761 13.6009 15.6137 13.792 14.8221 14.1602L14.691 13.8736C14.5836 13.6394 14.3066 13.5365 14.0723 13.6439C13.9707 13.6905 13.8892 13.772 13.8426 13.8736L13.6956 14.1942L12.6088 13.6506L12.1916 14.4868L13.3064 15.044L8.70934 25.0722C8.68099 25.1331 8.66653 25.1996 8.66688 25.2668C8.66892 27.07 10.1303 28.5314 11.9335 28.5334H16.6001C18.4034 28.5314 19.8647 27.07 19.8668 25.2668C19.8656 25.1997 19.8497 25.1338 19.8201 25.0736L15.2104 15.0053C15.8805 14.6943 16.6104 14.5333 17.3491 14.5335H21.2668V31.6068L19.6736 33.2H18.0001C16.7121 33.2015 15.6683 34.2454 15.6668 35.5333C15.6668 35.7911 15.8758 36 16.1335 36H29.2C29.4577 36 29.6667 35.7911 29.6667 35.5333C29.6652 34.2454 28.6213 33.2015 27.3334 33.2H25.6599L24.0667 31.6068V14.5335H27.9867C28.7254 14.5333 29.4553 14.6943 30.1254 15.0053L25.5092 25.0722C25.4808 25.1331 25.4664 25.1996 25.4667 25.2668C25.4688 27.07 26.9301 28.5314 28.7333 28.5334H33.4C35.2032 28.5314 36.6646 27.07 36.6666 25.2668C36.6655 25.1997 36.6496 25.1338 36.6199 25.0736ZM16.6001 27.6001H11.9335C10.8251 27.5989 9.86999 26.8192 9.64687 25.7334H18.8868C18.6637 26.8192 17.7086 27.5989 16.6001 27.6001ZM18.673 24.8001H9.8606L14.1474 15.4477C14.2256 15.4687 14.308 15.4687 14.3863 15.4477L18.673 24.8001ZM21.886 9.3144C22.2494 8.8832 22.8936 8.82831 23.3248 9.19172C23.3691 9.22905 23.4101 9.27012 23.4475 9.3144C23.6362 9.55449 23.7029 9.86856 23.6281 10.1647L23.2356 11.7336H22.0979L21.7054 10.1647C21.6306 9.86856 21.6973 9.55449 21.886 9.3144ZM22.2001 13.6002V12.6669H23.1334V13.6002H22.2001ZM23.1334 14.5335V31.3334H22.2001V14.5335H23.1334ZM27.3334 34.1334C27.9265 34.1341 28.455 34.5077 28.6535 35.0667H16.6799C16.8784 34.5077 17.407 34.1341 18.0001 34.1334H27.3334ZM24.3402 33.2H20.9933L21.9266 32.2667H23.4069L24.3402 33.2ZM30.9463 15.4491C31.0233 15.4763 31.1078 15.4728 31.1824 15.4393L35.4729 24.8001H26.6604L30.9463 15.4491ZM33.4 27.6001H28.7333C27.6249 27.5989 26.6698 26.8192 26.4467 25.7334H35.6866C35.4635 26.8192 34.5084 27.5989 33.4 27.6001Z" fill="#609416"/>
</svg>
