<svg width="45" height="44" viewBox="0 0 45 44" fill="none" xmlns="http://www.w3.org/2000/svg">
<circle cx="22.8333" cy="22" r="22" fill="#D5D5D5"/>
<path d="M36.7866 25.0736L36.7908 25.0722L32.1937 15.0417L33.3086 14.4869L32.8914 13.6516L31.8045 14.1929L31.6575 13.8723C31.5501 13.638 31.2731 13.5352 31.0389 13.6426C30.9372 13.6892 30.8558 13.7707 30.8091 13.8723L30.678 14.1588C29.887 13.7914 29.0255 13.6008 28.1534 13.6002H24.2334V12.6669H25.1667V11.7336H24.3645L24.7001 10.391C24.9577 9.36007 24.3308 8.3155 23.2999 8.05785C22.269 7.80025 21.2244 8.4271 20.9668 9.45801C20.8902 9.76426 20.8902 10.0847 20.9668 10.3909L21.3023 11.7335H20.5001V12.6668H21.4334V13.6002H17.5158C16.6428 13.6009 15.7804 13.792 14.9888 14.1602L14.8577 13.8736C14.7503 13.6394 14.4733 13.5365 14.239 13.6439C14.1374 13.6905 14.0559 13.772 14.0093 13.8736L13.8623 14.1942L12.7755 13.6506L12.3583 14.4868L13.4731 15.044L8.87603 25.0722C8.84768 25.1331 8.83321 25.1996 8.83356 25.2668C8.8356 27.07 10.297 28.5314 12.1002 28.5334H16.7668C18.5701 28.5314 20.0314 27.07 20.0335 25.2668C20.0323 25.1997 20.0164 25.1338 19.9868 25.0736L15.3771 15.0053C16.0472 14.6943 16.7771 14.5333 17.5158 14.5335H21.4334V31.6068L19.8403 33.2H18.1668C16.8788 33.2015 15.835 34.2454 15.8335 35.5333C15.8335 35.7911 16.0424 36 16.3002 36H29.3667C29.6244 36 29.8334 35.7911 29.8334 35.5333C29.8318 34.2454 28.788 33.2015 27.5 33.2H25.8266L24.2334 31.6068V14.5335H28.1534C28.8921 14.5333 29.622 14.6943 30.2921 15.0053L25.6759 25.0722C25.6475 25.1331 25.6331 25.1996 25.6334 25.2668C25.6354 27.07 27.0968 28.5314 28.9 28.5334H33.5667C35.3699 28.5314 36.8312 27.07 36.8333 25.2668C36.8322 25.1997 36.8163 25.1338 36.7866 25.0736ZM16.7668 27.6001H12.1002C10.9918 27.5989 10.0367 26.8192 9.81355 25.7334H19.0535C18.8304 26.8192 17.8753 27.5989 16.7668 27.6001ZM18.8397 24.8001H10.0273L14.314 15.4477C14.3923 15.4687 14.4747 15.4687 14.553 15.4477L18.8397 24.8001ZM22.0527 9.3144C22.4161 8.8832 23.0603 8.82831 23.4915 9.19172C23.5358 9.22905 23.5768 9.27012 23.6142 9.3144C23.8029 9.55449 23.8696 9.86856 23.7948 10.1647L23.4023 11.7336H22.2646L21.8721 10.1647C21.7973 9.86856 21.864 9.55449 22.0527 9.3144ZM22.3668 13.6002V12.6669H23.3001V13.6002H22.3668ZM23.3001 14.5335V31.3334H22.3668V14.5335H23.3001ZM27.5 34.1334C28.0932 34.1341 28.6217 34.5077 28.8202 35.0667H16.8466C17.0451 34.5077 17.5737 34.1341 18.1668 34.1334H27.5ZM24.5069 33.2H21.16L22.0933 32.2667H23.5736L24.5069 33.2ZM31.1129 15.4491C31.19 15.4763 31.2745 15.4728 31.3491 15.4393L35.6396 24.8001H26.8271L31.1129 15.4491ZM33.5667 27.6001H28.9C27.7916 27.5989 26.8365 26.8192 26.6134 25.7334H35.8533C35.6302 26.8192 34.6751 27.5989 33.5667 27.6001Z" fill="#808080"/>
</svg>
